<?xml version='1.0' encoding='ASCII' standalone='yes'?>
<svg xmlns="http://www.w3.org/2000/svg" xmlns:xlink="http://www.w3.org/1999/xlink" version="1.1" id="Layer_1" x="0px" y="0px" viewBox="0 0 70.9 70.9" style="enable-background:new 0 0 70.9 70.9;" xml:space="preserve">
<g id="Layer_1_1_">
</g>
<g>
	<polyline points="6.4,10.3 20.8,10.3 20.8,7.3 6.4,7.3  "/>
	<polyline points="6.4,13.3 20.8,13.3 20.8,12.3 6.4,12.3  "/>
	<polyline points="6.4,17.3 20.8,17.3 20.8,16.3 6.4,16.3  "/>
</g>
<svg version="1.1" id="Layer_1" x="0px" y="0px" viewBox="0 0 70.9 70.9" style="enable-background:new 0 0 70.9 70.9;" xml:space="preserve">
<g>
	<path d="M65.8,10.3c-0.1,0.3-0.2,0.7-0.4,1.1c-0.1,0.4-0.3,0.8-0.5,1.3c-0.2,0.4-0.4,0.8-0.6,1.2c-0.2,0.4-0.4,0.7-0.7,0.9   c-0.2,0.2-0.5,0.4-0.7,0.4c-0.2,0-0.3-0.1-0.4-0.2c-0.1-0.1-0.2-0.3-0.3-0.4s-0.1-0.3-0.2-0.4S62,13.8,62,13.8c0-0.2,0-0.4,0.1-0.7   c0.1-0.2,0.1-0.5,0.2-0.7c0.1-0.3,0.2-0.5,0.3-0.7s0.2-0.4,0.2-0.6c0.1-0.2,0.2-0.5,0.4-0.8c0.2-0.3,0.4-0.5,0.6-0.7   c0.2-0.2,0.5-0.4,0.7-0.5C64.8,9,65,8.9,65.3,8.9c0.2,0,0.4,0,0.4,0.1c0.1,0.1,0.1,0.3,0.1,0.6C65.9,9.7,65.8,10,65.8,10.3z    M55.1,10.8c-0.2,0.6-0.4,1.2-0.7,1.8s-0.6,1.2-1,1.7c-0.3,0.5-0.7,0.8-1,0.8c-0.2,0-0.3-0.1-0.4-0.2c-0.1-0.1-0.2-0.3-0.3-0.4   s-0.1-0.3-0.2-0.4c0-0.1-0.1-0.2-0.1-0.3c0-0.2,0-0.4,0.1-0.7c0.1-0.2,0.1-0.5,0.2-0.7c0.1-0.3,0.2-0.5,0.3-0.7s0.2-0.4,0.2-0.6   c0.1-0.2,0.2-0.5,0.4-0.8c0.2-0.3,0.4-0.5,0.6-0.7c0.2-0.2,0.5-0.4,0.7-0.5c0.3-0.1,0.5-0.2,0.8-0.2c0.2,0,0.4,0,0.4,0.1   c0.1,0.1,0.1,0.3,0.1,0.6C55.4,9.8,55.3,10.2,55.1,10.8z M44.6,10.8c-0.2,0.6-0.4,1.2-0.7,1.8c-0.3,0.6-0.6,1.2-1,1.7   c-0.3,0.5-0.7,0.8-1,0.8c-0.2,0-0.3-0.1-0.4-0.2c-0.1-0.1-0.2-0.3-0.3-0.4S41,14.2,41,14.1c0-0.1-0.1-0.2-0.1-0.3   c0-0.2,0-0.4,0.1-0.7c0.1-0.2,0.1-0.5,0.2-0.7c0.1-0.3,0.2-0.5,0.3-0.7s0.2-0.4,0.2-0.6c0.1-0.2,0.2-0.5,0.4-0.8   c0.2-0.3,0.4-0.5,0.6-0.7c0.2-0.2,0.5-0.4,0.7-0.5C43.8,9,44,8.9,44.3,8.9c0.2,0,0.4,0,0.4,0.1c0.1,0.1,0.1,0.3,0.1,0.6   C44.9,9.8,44.8,10.2,44.6,10.8z M57.7,10.2c-0.1-0.8-0.3-1.5-0.6-1.9c-0.3-0.4-0.8-0.6-1.4-0.6c-0.4,0-0.8,0.1-1.2,0.2   c-0.4,0.1-0.7,0.3-1,0.5c-0.2,0.2-0.4,0.3-0.5,0.4c-0.1,0.1-0.3,0.3-0.5,0.5c-0.1-0.2-0.1-0.4-0.2-0.5c-0.1-0.1-0.2-0.3-0.2-0.4   s-0.2-0.2-0.3-0.3c-0.1-0.1-0.3-0.2-0.4-0.3c-0.2-0.1-0.5-0.2-1-0.2c-0.5,0-1.1,0.2-1.6,0.6c-0.5,0.4-1,1-1.6,1.9   c-0.1-0.8-0.3-1.4-0.6-1.8c-0.3-0.4-0.8-0.6-1.4-0.6c-0.4,0-0.8,0.1-1.2,0.2c-0.4,0.1-0.7,0.3-1,0.5c-0.2,0.2-0.4,0.3-0.5,0.4   c-0.1,0.1-0.3,0.3-0.5,0.5c-0.1-0.2-0.2-0.4-0.2-0.5c-0.1-0.1-0.2-0.3-0.2-0.4s-0.2-0.2-0.3-0.3C41.1,8.1,41,8,40.8,7.9   c-0.2-0.1-0.5-0.2-1-0.2c-0.7,0-1.3,0.3-2,0.9c-0.6,0.6-1.3,1.7-2,3.1l0.2,0.1l0.2,0c0.1-0.2,0.3-0.5,0.4-0.8   c0.1-0.3,0.4-0.6,0.6-1c0.3-0.3,0.6-0.7,0.9-1c0.3-0.3,0.6-0.4,0.9-0.4c0.2,0,0.4,0.1,0.5,0.3c0.1,0.2,0.1,0.4,0,0.6   c0,0.1-0.1,0.3-0.3,0.6c-0.1,0.3-0.3,0.7-0.5,1.2c-0.2,0.5-0.4,1-0.7,1.6c-0.3,0.6-0.5,1.2-0.7,1.7c-0.6,1.4-1.3,2.9-2,4.6L33,19.5   v0.5c0.4,0,1,0,1.7,0c0.7,0,1.4,0,2.2,0c0.7,0,1.4,0,2,0c0.6,0,1.1,0,1.4,0v-0.5l-2-0.2l1.9-4.5c0.1,0.2,0.3,0.3,0.4,0.4   c0.1,0.1,0.2,0.2,0.4,0.3c0.2,0.1,0.4,0.2,0.6,0.3C41.8,16,42,16,42.4,16c0.4,0,0.8-0.1,1.3-0.2c0.4-0.2,0.8-0.4,1.1-0.7   s0.7-0.6,1-1c0.3-0.4,0.6-0.8,0.8-1.2c0.1-0.3,0.3-0.6,0.4-0.9c0.1-0.3,0.1-0.6,0.2-0.9c0.1-0.1,0.2-0.3,0.3-0.5   c0.1-0.2,0.2-0.4,0.4-0.6c0.3-0.3,0.6-0.7,0.9-1c0.3-0.3,0.6-0.4,0.9-0.4c0.2,0,0.4,0.1,0.5,0.3c0.1,0.2,0.1,0.4,0,0.6   c0,0.1-0.1,0.3-0.3,0.6c-0.1,0.3-0.3,0.7-0.5,1.2c-0.2,0.5-0.4,1-0.7,1.6c-0.3,0.6-0.5,1.2-0.7,1.7c-0.6,1.4-1.3,2.9-2,4.6   l-2.4,0.2v0.5h7.3v-0.5l-2-0.2l1.9-4.5c0.2,0.2,0.3,0.3,0.4,0.4c0.1,0.1,0.2,0.2,0.4,0.3c0.2,0.1,0.4,0.2,0.6,0.3s0.4,0.1,0.8,0.2   c0.4,0,0.9-0.1,1.3-0.2c0.4-0.2,0.8-0.4,1.1-0.7c0.4-0.3,0.7-0.6,1-1c0.3-0.4,0.6-0.8,0.8-1.2c0.1-0.2,0.2-0.5,0.3-0.8   c0.1-0.3,0.1-0.6,0.2-0.8c0.1-0.2,0.2-0.4,0.3-0.6c0.1-0.2,0.3-0.4,0.4-0.7c0.3-0.3,0.6-0.7,0.9-1c0.3-0.3,0.6-0.4,0.9-0.4   c0.2,0,0.4,0.1,0.5,0.3c0.1,0.2,0.1,0.4,0.1,0.6c0,0.1-0.1,0.3-0.3,0.6c-0.1,0.3-0.3,0.7-0.5,1.2c-0.2,0.5-0.4,1-0.7,1.6   c-0.3,0.6-0.5,1.2-0.7,1.7c-0.6,1.4-1.2,2.9-2,4.6L54,19.5v0.5h7.3v-0.5l-1.9-0.2l1.8-4.5c0.2,0.2,0.3,0.3,0.4,0.4   c0.1,0.1,0.2,0.2,0.4,0.3c0.2,0.1,0.4,0.2,0.6,0.3c0.2,0.1,0.4,0.1,0.7,0.2c0.4,0,0.9-0.1,1.3-0.2c0.4-0.2,0.8-0.4,1.1-0.7   c0.4-0.3,0.7-0.6,1-1c0.3-0.4,0.6-0.8,0.8-1.2c0.1-0.2,0.2-0.5,0.3-0.8c0.1-0.3,0.2-0.6,0.2-0.8c0-0.3,0.1-0.5,0.1-0.7   c0-0.2,0-0.3,0-0.3c-0.1-0.8-0.3-1.5-0.6-1.9c-0.3-0.4-0.8-0.6-1.4-0.6c-0.4,0-0.8,0.1-1.2,0.2c-0.4,0.1-0.7,0.3-1,0.5   c-0.2,0.2-0.4,0.3-0.5,0.4c-0.1,0.1-0.2,0.3-0.4,0.5c-0.1-0.2-0.2-0.4-0.2-0.5c-0.1-0.1-0.1-0.3-0.2-0.4s-0.2-0.2-0.3-0.3   C62.1,8.1,62,8,61.8,7.9c-0.2-0.1-0.5-0.2-1-0.2c-0.6,0-1.1,0.2-1.6,0.6C58.7,8.7,58.2,9.4,57.7,10.2L57.7,10.2z"/>
</g>
</svg><svg version="1.1" id="Layer_1" x="0px" y="0px" viewBox="0 0 70.87 70.87" style="enable-background:new 0 0 70.87 70.87;" xml:space="preserve">
<style type="text/css">
	.st0{fill:#231F20;}
</style>
<g>
	<polyline points="19.91,60.64 58.05,64.89 58.16,63.9 20.02,59.65  "/>
	<polyline points="20.02,60.3 58.16,56.3 58.05,55.31 19.91,59.31  "/>
	<path class="st0" d="M15.5,62.59c-0.31-0.14-0.59-0.34-0.85-0.58c-0.25-0.24-0.45-0.52-0.59-0.85c-0.14-0.32-0.22-0.67-0.22-1.03   c0-0.36,0.07-0.71,0.22-1.04c0.14-0.34,0.34-0.62,0.59-0.86s0.53-0.43,0.85-0.58c0.31-0.14,0.65-0.22,1.01-0.22   c0.77,0,1.42,0.26,1.96,0.79c0.54,0.54,0.81,1.18,0.81,1.92c0,0.72-0.27,1.34-0.81,1.87c-0.54,0.53-1.19,0.79-1.96,0.79   C16.15,62.81,15.81,62.74,15.5,62.59z M15.21,56.99c-0.41,0.18-0.77,0.42-1.08,0.72c-0.31,0.3-0.56,0.66-0.74,1.08   c-0.18,0.42-0.27,0.87-0.27,1.35c0,0.46,0.09,0.89,0.27,1.31c0.18,0.42,0.43,0.79,0.74,1.1c0.31,0.31,0.67,0.56,1.08,0.74   c0.41,0.18,0.84,0.27,1.3,0.27c0.48,0,0.93-0.09,1.35-0.27c0.42-0.18,0.78-0.43,1.08-0.74c0.3-0.31,0.54-0.68,0.72-1.1   c0.18-0.42,0.27-0.86,0.27-1.31c0-0.96-0.33-1.77-0.99-2.43c-0.66-0.66-1.47-0.99-2.43-0.99C16.05,56.72,15.62,56.81,15.21,56.99z"/>
</g>
</svg></svg>
