<?xml version='1.0' encoding='ASCII' standalone='yes'?>
<svg xmlns="http://www.w3.org/2000/svg" xmlns:xlink="http://www.w3.org/1999/xlink" version="1.1" id="Layer_1" x="0px" y="0px" viewBox="0 0 70.9 70.9" style="enable-background:new 0 0 70.9 70.9;" xml:space="preserve">
<g id="Layer_1_1_">
</g>
<g>
	<polyline points="6.4,10.3 20.8,10.3 20.8,7.3 6.4,7.3  "/>
	<polyline points="6.4,13.3 20.8,13.3 20.8,12.3 6.4,12.3  "/>
	<polyline points="6.4,17.3 20.8,17.3 20.8,16.3 6.4,16.3  "/>
</g>
<svg version="1.1" id="Layer_1" x="0px" y="0px" viewBox="0 0 70.9 70.9" style="enable-background:new 0 0 70.9 70.9;" xml:space="preserve">
<g>
	<path d="M48.2,17h1.8l1.5-4.7c0.2-0.3,0.4-0.6,0.5-0.8c0.2-0.2,0.3-0.4,0.5-0.5c0.2-0.2,0.4-0.2,0.5-0.2s0.3,0.1,0.3,0.3   c0,0.2,0,0.3,0,0.5c0,0.2-0.1,0.4-0.2,0.7l-1.1,3.4c-0.1,0.2-0.1,0.4-0.1,0.6s0.1,0.4,0.2,0.5c0.1,0.1,0.2,0.3,0.3,0.4   c0.1,0.1,0.3,0.1,0.4,0.2c0.4,0,0.9-0.1,1.3-0.4c0.4-0.3,0.8-0.6,1.1-1c0.3-0.4,0.6-0.7,0.7-1c0.2-0.3,0.3-0.5,0.3-0.5l-0.2-0.2   c-0.2,0.4-0.4,0.7-0.6,0.9c-0.2,0.2-0.3,0.4-0.5,0.6c-0.2,0.2-0.4,0.3-0.5,0.2c-0.1,0-0.2-0.1-0.2-0.2c0-0.1,0-0.2,0-0.4   c0-0.1,0-0.3,0.1-0.4c0-0.1,0.1-0.2,0.1-0.3l1-3.1c0,0,0-0.1,0.1-0.4c0-0.2,0-0.5,0-0.7c0-0.3-0.1-0.5-0.3-0.7   c-0.1-0.2-0.4-0.3-0.7-0.4c-0.3,0-0.5,0-0.8,0.1c-0.3,0.1-0.5,0.2-0.8,0.4c-0.3,0.2-0.5,0.4-0.8,0.6c-0.1-0.2-0.3-0.4-0.5-0.5   c-0.1-0.1-0.3-0.3-0.4-0.4c-0.2-0.1-0.3-0.2-0.4-0.2c-0.3,0-0.6,0.1-0.9,0.2c-0.3,0.1-0.5,0.2-0.8,0.4c-0.3,0.2-0.5,0.4-0.7,0.6   c0,0-0.1-0.1-0.2-0.2c-0.1-0.1-0.2-0.2-0.3-0.4c-0.1-0.1-0.3-0.3-0.5-0.4c-0.2-0.1-0.3-0.2-0.4-0.2c-0.4-0.1-0.7,0-1,0.2   c-0.3,0.2-0.6,0.4-0.9,0.7c-0.3,0.3-0.5,0.6-0.7,1c-0.2,0.4-0.4,0.7-0.5,1c-0.1,0.3-0.3,0.7-0.4,1.2l0.3,0c0.3-0.6,0.5-1.2,0.8-1.6   c0.2-0.4,0.5-0.7,0.8-0.9s0.6-0.2,0.8,0c0.1,0.1,0.1,0.2,0.1,0.3c0,0.1,0,0.3,0,0.4c0,0.1-0.1,0.3-0.1,0.6L44.6,17h1.8l1.6-4.7   c0.2-0.3,0.3-0.6,0.5-0.8c0.1-0.2,0.3-0.4,0.5-0.5c0.2-0.1,0.4-0.2,0.6-0.2c0.1,0,0.2,0.1,0.2,0.3c0,0.2,0,0.3,0,0.5   c0,0.2-0.1,0.4-0.1,0.7L48.2,17z M67.1,4.9c-0.4-0.4-0.7-0.5-1.2-0.5c-1,0-1.9,0.2-2.7,0.7c-0.8,0.4-1.6,1.1-2.2,2.1   c-0.3,0.4-0.5,0.8-0.8,1.2c-0.2,0.4-0.5,0.9-0.7,1.5h-2.7v0.6h2.4c-0.3,1.2-0.6,2.3-0.9,3.2c-0.3,0.9-0.5,1.8-0.8,2.7   c0,0.1-0.1,0.4-0.2,0.7s-0.2,0.7-0.3,1.1c-0.1,0.4-0.3,0.8-0.5,1.3c-0.2,0.4-0.4,0.8-0.6,1.2c-0.2,0.4-0.5,0.7-0.7,0.9   c-0.3,0.2-0.5,0.3-0.8,0.3c-0.1,0-0.2-0.1-0.4-0.3c0-0.1,0.1-0.1,0.2-0.2c0.1-0.1,0.2-0.1,0.3-0.2c0.1-0.1,0.3-0.2,0.4-0.4   s0.2-0.4,0.3-0.7c0-0.4-0.1-0.7-0.3-1c-0.2-0.3-0.5-0.4-0.9-0.4c-0.3,0-0.5,0.1-0.7,0.2c-0.2,0.1-0.3,0.3-0.5,0.4   c-0.1,0.2-0.2,0.4-0.3,0.6c-0.1,0.2-0.1,0.4-0.1,0.6c0,0.3,0.1,0.5,0.2,0.7c0.1,0.2,0.3,0.4,0.4,0.6c0.2,0.2,0.4,0.4,0.6,0.5   s0.4,0.2,0.6,0.2c0.5,0,1.1-0.1,1.6-0.3c0.6-0.2,1.1-0.6,1.6-1c0.7-0.7,1.3-1.4,1.8-2.2s0.8-1.4,1.1-2c0.2-0.4,0.3-0.7,0.4-1   c0.1-0.3,0.2-0.6,0.3-0.9c0.1-0.3,0.2-0.6,0.3-0.9c0.1-0.3,0.2-0.6,0.3-1c0-0.1,0.1-0.3,0.1-0.5c0.1-0.2,0.1-0.5,0.2-0.7   c0.1-0.3,0.2-0.6,0.2-0.8c0.1-0.3,0.2-0.5,0.2-0.8h1.4h1.4V9.8h-2.7c0.1-0.5,0.2-0.9,0.4-1.4c0.2-0.5,0.3-0.8,0.4-1   c0.1-0.3,0.2-0.6,0.4-0.9c0.1-0.3,0.3-0.5,0.5-0.7c0.2-0.2,0.4-0.4,0.7-0.5C65.2,5.1,65.5,5,65.9,5c0.1,0,0.2,0,0.4,0.1   c0.1,0,0.2,0.1,0.2,0.3c-0.1,0.2-0.3,0.3-0.4,0.5c-0.2,0.1-0.3,0.2-0.5,0.4c-0.2,0.1-0.3,0.2-0.4,0.4C65,6.7,65,6.9,65,7.1   c0,0.2,0.1,0.5,0.2,0.7c0.1,0.2,0.4,0.4,0.7,0.4c0.3,0,0.5-0.1,0.7-0.2c0.2-0.1,0.4-0.3,0.5-0.5c0.1-0.2,0.3-0.4,0.3-0.6   s0.1-0.5,0.1-0.7C67.6,5.7,67.4,5.3,67.1,4.9z"/>
</g>
</svg><svg version="1.1" id="Layer_1" x="0px" y="0px" viewBox="0 0 70.87 70.87" style="enable-background:new 0 0 70.87 70.87;" xml:space="preserve">
<style type="text/css">
	.st0{fill:#231F20;}
</style>
<g>
	<polyline points="51.37,59.56 13.23,55.31 13.12,56.3 51.26,60.55  "/>
	<polyline points="51.26,59.9 13.12,63.9 13.23,64.89 51.37,60.89  "/>
	<path class="st0" d="M55.78,57.61c0.31,0.14,0.59,0.34,0.85,0.58c0.25,0.24,0.45,0.52,0.59,0.85c0.14,0.32,0.22,0.67,0.22,1.03   s-0.07,0.71-0.22,1.04c-0.14,0.34-0.34,0.62-0.59,0.86c-0.25,0.24-0.53,0.43-0.85,0.58c-0.31,0.14-0.65,0.22-1.01,0.22   c-0.77,0-1.42-0.26-1.96-0.79C52.27,61.44,52,60.8,52,60.06c0-0.72,0.27-1.34,0.81-1.87c0.54-0.53,1.19-0.79,1.96-0.79   C55.13,57.39,55.47,57.46,55.78,57.61z M56.07,63.21c0.41-0.18,0.77-0.42,1.08-0.72c0.31-0.3,0.56-0.66,0.74-1.08   c0.18-0.42,0.27-0.87,0.27-1.35c0-0.46-0.09-0.89-0.27-1.31c-0.18-0.42-0.43-0.79-0.74-1.1c-0.31-0.31-0.67-0.56-1.08-0.74   c-0.41-0.18-0.84-0.27-1.3-0.27c-0.48,0-0.93,0.09-1.35,0.27c-0.42,0.18-0.78,0.43-1.08,0.74c-0.3,0.31-0.54,0.68-0.72,1.1   c-0.18,0.42-0.27,0.86-0.27,1.31c0,0.96,0.33,1.77,0.99,2.43c0.66,0.66,1.47,0.99,2.43,0.99C55.23,63.48,55.66,63.39,56.07,63.21z"/>
</g>
</svg></svg>
