<?xml version='1.0' encoding='ASCII' standalone='yes'?>
<svg xmlns="http://www.w3.org/2000/svg" xmlns:xlink="http://www.w3.org/1999/xlink" version="1.1" id="Layer_1" x="0px" y="0px" viewBox="0 0 70.9 70.9" style="enable-background:new 0 0 70.9 70.9;" xml:space="preserve">
<g id="Layer_1_1_">
</g>
<g>
	<polyline points="6.4,10.3 20.8,10.3 20.8,7.3 6.4,7.3  "/>
	<polyline points="6.4,13.3 20.8,13.3 20.8,12.3 6.4,12.3  "/>
	<polyline points="6.4,17.3 20.8,17.3 20.8,16.3 6.4,16.3  "/>
</g>
<svg version="1.1" id="Layer_1" x="0px" y="0px" viewBox="0 0 70.9 70.9" style="enable-background:new 0 0 70.9 70.9;" xml:space="preserve">
<g>
	<path d="M63.8,12.4c-0.2,0.6-0.4,1.2-0.7,1.8c-0.3,0.6-0.6,1.2-1,1.7s-0.7,0.8-1,0.8c-0.2,0-0.3-0.1-0.4-0.2   c-0.1-0.1-0.2-0.3-0.3-0.4s-0.1-0.3-0.2-0.4c0-0.1-0.1-0.3-0.1-0.3c0-0.2,0-0.4,0.1-0.6c0.1-0.2,0.1-0.5,0.2-0.7   c0.1-0.3,0.2-0.5,0.3-0.7s0.2-0.4,0.2-0.6c0.1-0.2,0.2-0.5,0.4-0.8c0.2-0.3,0.4-0.5,0.6-0.7c0.2-0.2,0.5-0.4,0.7-0.5   s0.5-0.2,0.8-0.2c0.2,0,0.4,0,0.5,0.1c0.1,0.1,0.2,0.3,0.2,0.6C64.1,11.4,64,11.8,63.8,12.4z M64.3,9.4c-0.4,0-0.8,0.1-1.2,0.2   s-0.7,0.3-1,0.5c-0.2,0.1-0.4,0.3-0.5,0.4s-0.3,0.3-0.4,0.5c-0.1-0.2-0.1-0.4-0.2-0.5c-0.1-0.1-0.2-0.3-0.2-0.4   c-0.1-0.1-0.2-0.2-0.3-0.3c-0.1-0.1-0.3-0.2-0.4-0.3c-0.2-0.1-0.5-0.2-1-0.2c-0.6,0-1.3,0.3-2,0.9c-0.7,0.6-1.4,1.6-2.2,3   c-0.1,0.2-0.2,0.4-0.3,0.6s-0.3,0.5-0.4,0.7c-0.1,0.2-0.3,0.4-0.4,0.6c-0.1,0.2-0.3,0.2-0.3,0.2s-0.1-0.1-0.2-0.2   c0-0.1,0-0.2,0-0.4s0-0.3,0.1-0.4c0-0.1,0.1-0.3,0.1-0.3l1.1-2.6c0,0,0-0.1,0-0.4c0-0.2,0-0.5,0-0.7c0-0.3-0.1-0.5-0.3-0.7   s-0.4-0.4-0.7-0.4c-0.3,0-0.5,0-0.8,0.1c-0.3,0.1-0.5,0.2-0.8,0.4c-0.3,0.1-0.5,0.3-0.8,0.5c-0.2-0.2-0.3-0.4-0.5-0.5   c-0.1-0.1-0.3-0.3-0.4-0.4c-0.1-0.1-0.3-0.2-0.4-0.2c-0.3,0-0.6,0.1-0.9,0.2c-0.3,0.1-0.5,0.2-0.8,0.4c-0.3,0.2-0.5,0.4-0.8,0.6   c0,0-0.1-0.1-0.2-0.2c-0.1-0.1-0.2-0.2-0.4-0.4c-0.1-0.1-0.3-0.3-0.4-0.4c-0.2-0.1-0.3-0.2-0.5-0.2c-0.4-0.1-0.7,0-1,0.2   c-0.3,0.2-0.6,0.4-0.9,0.7c-0.3,0.3-0.5,0.6-0.7,1c-0.2,0.4-0.4,0.7-0.5,1c-0.1,0.3-0.3,0.7-0.4,1.1l0.3,0.1   c0.3-0.6,0.6-1.2,0.8-1.6c0.2-0.4,0.5-0.7,0.8-0.9c0.3-0.2,0.6-0.2,0.8,0c0.1,0.1,0.1,0.2,0.1,0.3c0,0.2,0,0.3,0,0.5   c0,0.1-0.1,0.3-0.1,0.6L43.4,17h1.8l1.7-4.7c0.2-0.3,0.3-0.6,0.5-0.8c0.1-0.2,0.3-0.4,0.5-0.5c0.2-0.1,0.4-0.2,0.6-0.2   c0.1,0,0.2,0.1,0.2,0.2c0,0.2,0,0.3,0,0.5s-0.1,0.4-0.1,0.8L47.1,17h1.8l1.7-4.7c0.2-0.3,0.3-0.6,0.5-0.8c0.1-0.2,0.3-0.4,0.5-0.5   s0.4-0.2,0.5-0.2c0.2,0,0.3,0.1,0.3,0.3c0,0.2,0,0.3,0,0.5c0,0.2-0.1,0.4-0.1,0.7l-1.1,3.4C51,15.9,51,16.1,51,16.3   c0,0.2,0.1,0.4,0.2,0.5s0.2,0.3,0.3,0.4c0.1,0.1,0.3,0.1,0.4,0.2c0.4,0,0.8,0,1.2-0.3s0.7-0.5,0.9-0.8c0.3-0.4,0.5-0.7,0.8-1.2   c0.2-0.4,0.4-0.8,0.6-1.3c0.4-0.7,0.7-1.3,1-1.7s0.6-0.7,0.9-0.9s0.5-0.3,0.7-0.3c0.2,0,0.3-0.1,0.3-0.1c0.1,0,0.2,0,0.3,0.1   s0.1,0.2,0,0.4c0,0.1-0.1,0.3-0.3,0.6c-0.1,0.3-0.3,0.7-0.5,1.2c-0.2,0.5-0.4,1-0.7,1.6s-0.5,1.2-0.7,1.7c-0.6,1.4-1.2,2.9-2,4.6   l-2.4,0.2v0.5h7.3v-0.5l-2-0.2l1.8-4.5c0.2,0.2,0.3,0.3,0.4,0.4c0.1,0.1,0.2,0.2,0.4,0.3c0.2,0.1,0.4,0.2,0.6,0.3   c0.2,0.1,0.4,0.1,0.8,0.2c0.4,0,0.8-0.1,1.3-0.2c0.4-0.2,0.8-0.4,1.1-0.7c0.4-0.3,0.7-0.6,1-1c0.3-0.4,0.6-0.8,0.8-1.2   c0.1-0.2,0.3-0.5,0.4-0.8c0.1-0.3,0.2-0.6,0.3-0.8c0.1-0.3,0.1-0.5,0.2-0.7s0.1-0.3,0.1-0.3C66.4,10.2,65.6,9.4,64.3,9.4z"/>
</g>
</svg><svg version="1.1" id="Layer_1" x="0px" y="0px" viewBox="0 0 70.87 70.87" style="enable-background:new 0 0 70.87 70.87;" xml:space="preserve">
<style type="text/css">
	.st0{fill:#231F20;}
</style>
<g>
	<polyline points="19.91,60.64 58.05,64.89 58.16,63.9 20.02,59.65  "/>
	<polyline points="20.02,60.3 58.16,56.3 58.05,55.31 19.91,59.31  "/>
	<path class="st0" d="M15.5,62.59c-0.31-0.14-0.59-0.34-0.85-0.58c-0.25-0.24-0.45-0.52-0.59-0.85c-0.14-0.32-0.22-0.67-0.22-1.03   c0-0.36,0.07-0.71,0.22-1.04c0.14-0.34,0.34-0.62,0.59-0.86s0.53-0.43,0.85-0.58c0.31-0.14,0.65-0.22,1.01-0.22   c0.77,0,1.42,0.26,1.96,0.79c0.54,0.54,0.81,1.18,0.81,1.92c0,0.72-0.27,1.34-0.81,1.87c-0.54,0.53-1.19,0.79-1.96,0.79   C16.15,62.81,15.81,62.74,15.5,62.59z M15.21,56.99c-0.41,0.18-0.77,0.42-1.08,0.72c-0.31,0.3-0.56,0.66-0.74,1.08   c-0.18,0.42-0.27,0.87-0.27,1.35c0,0.46,0.09,0.89,0.27,1.31c0.18,0.42,0.43,0.79,0.74,1.1c0.31,0.31,0.67,0.56,1.08,0.74   c0.41,0.18,0.84,0.27,1.3,0.27c0.48,0,0.93-0.09,1.35-0.27c0.42-0.18,0.78-0.43,1.08-0.74c0.3-0.31,0.54-0.68,0.72-1.1   c0.18-0.42,0.27-0.86,0.27-1.31c0-0.96-0.33-1.77-0.99-2.43c-0.66-0.66-1.47-0.99-2.43-0.99C16.05,56.72,15.62,56.81,15.21,56.99z"/>
</g>
</svg></svg>
