<?xml version='1.0' encoding='ASCII' standalone='yes'?>
<svg xmlns="http://www.w3.org/2000/svg" xmlns:xlink="http://www.w3.org/1999/xlink" version="1.1" id="Layer_1" x="0px" y="0px" viewBox="0 0 70.9 70.9" style="enable-background:new 0 0 70.9 70.9;" xml:space="preserve">
<g id="Layer_1_1_">
</g>
<g>
	<polyline points="6.4,10.3 20.8,10.3 20.8,7.3 6.4,7.3  "/>
	<polyline points="6.4,13.3 20.8,13.3 20.8,12.3 6.4,12.3  "/>
	<polyline points="6.4,17.3 20.8,17.3 20.8,16.3 6.4,16.3  "/>
</g>
<svg version="1.1" id="Layer_1" x="0px" y="0px" viewBox="0 0 70.9 70.9" style="enable-background:new 0 0 70.9 70.9;" xml:space="preserve">
<g>
	<path d="M61.9,12.3c-0.2,0.6-0.4,1.2-0.7,1.8c-0.3,0.6-0.6,1.2-1,1.7c-0.3,0.5-0.7,0.8-1,0.8c-0.2,0-0.3-0.1-0.4-0.2   c-0.1-0.1-0.2-0.3-0.3-0.4s-0.1-0.3-0.2-0.4s-0.1-0.2-0.1-0.3c0-0.2,0-0.4,0.1-0.7c0.1-0.2,0.1-0.5,0.2-0.7   c0.1-0.3,0.2-0.5,0.3-0.7s0.2-0.4,0.2-0.6c0.1-0.2,0.2-0.5,0.4-0.8c0.2-0.3,0.4-0.5,0.6-0.7c0.2-0.2,0.5-0.4,0.7-0.5   c0.3-0.1,0.5-0.2,0.8-0.2c0.2,0,0.4,0,0.5,0.1c0.1,0.1,0.2,0.3,0.2,0.6C62.2,11.4,62.1,11.7,61.9,12.3z M51.5,12.3   c-0.2,0.6-0.4,1.2-0.7,1.8c-0.3,0.6-0.6,1.2-1,1.7c-0.3,0.5-0.7,0.8-1,0.8c-0.2,0-0.3-0.1-0.4-0.2c-0.1-0.1-0.2-0.3-0.3-0.4   s-0.1-0.3-0.2-0.4c0-0.1-0.1-0.2-0.1-0.3c0-0.2,0-0.4,0.1-0.7c0.1-0.2,0.1-0.5,0.2-0.7c0.1-0.3,0.2-0.5,0.3-0.7s0.2-0.4,0.2-0.6   c0.1-0.2,0.2-0.5,0.4-0.8c0.2-0.3,0.4-0.5,0.6-0.7c0.2-0.2,0.5-0.4,0.7-0.5c0.3-0.1,0.5-0.2,0.8-0.2c0.2,0,0.4,0,0.5,0.1   c0.1,0.1,0.2,0.3,0.2,0.6C51.8,11.4,51.7,11.7,51.5,12.3z M53.4,10c-0.3-0.4-0.8-0.6-1.4-0.6c-0.4,0-0.8,0.1-1.2,0.2   c-0.4,0.1-0.7,0.3-1,0.5c-0.2,0.1-0.4,0.3-0.5,0.4c-0.1,0.1-0.3,0.3-0.4,0.5c-0.1-0.2-0.1-0.4-0.2-0.5c-0.1-0.1-0.2-0.3-0.2-0.4   s-0.2-0.2-0.3-0.3c-0.1-0.1-0.3-0.2-0.4-0.3c-0.2-0.1-0.5-0.2-1-0.2c-0.7,0-1.4,0.3-2,0.9c-0.6,0.6-1.3,1.7-2,3.1l0.2,0.1l0.2,0   c0.1-0.2,0.3-0.5,0.4-0.8c0.1-0.3,0.4-0.6,0.6-1c0.3-0.3,0.6-0.6,0.9-0.9c0.3-0.3,0.6-0.4,0.9-0.4c0.2,0,0.4,0.1,0.5,0.3   c0.1,0.2,0.1,0.4,0,0.6c0,0.1-0.1,0.3-0.3,0.6c-0.1,0.3-0.3,0.7-0.5,1.2c-0.2,0.5-0.4,1-0.7,1.6c-0.3,0.6-0.5,1.2-0.7,1.7   c-0.6,1.4-1.2,2.9-2,4.6l-2.4,0.2v0.5h7.3v-0.5l-2-0.2l1.8-4.5c0.2,0.2,0.3,0.3,0.4,0.4c0.1,0.1,0.2,0.2,0.4,0.3   c0.2,0.1,0.4,0.2,0.6,0.3s0.4,0.1,0.8,0.2c0.4,0,0.8-0.1,1.3-0.2c0.4-0.2,0.8-0.4,1.1-0.7c0.4-0.3,0.7-0.6,1-1   c0.3-0.4,0.6-0.8,0.8-1.2c0.1-0.3,0.3-0.6,0.4-0.9c0.1-0.3,0.2-0.6,0.2-0.9c0.1-0.1,0.2-0.3,0.3-0.5c0.1-0.2,0.2-0.4,0.4-0.6   c0.3-0.3,0.6-0.6,0.9-0.9c0.3-0.3,0.6-0.4,0.9-0.4c0.2,0,0.4,0.1,0.5,0.3c0.1,0.2,0.1,0.4,0,0.6c0,0.1-0.1,0.3-0.3,0.6   c-0.1,0.3-0.3,0.7-0.5,1.2c-0.2,0.5-0.4,1-0.7,1.6c-0.3,0.6-0.5,1.2-0.7,1.7c-0.6,1.4-1.2,2.9-2,4.6l-2.4,0.2v0.5h7.3v-0.5l-2-0.2   l1.8-4.5c0.2,0.2,0.3,0.3,0.4,0.4c0.1,0.1,0.2,0.2,0.4,0.3c0.2,0.1,0.4,0.2,0.6,0.3c0.2,0.1,0.4,0.1,0.8,0.2c0.4,0,0.8-0.1,1.3-0.2   c0.4-0.2,0.8-0.4,1.1-0.7s0.7-0.6,1-1c0.3-0.4,0.6-0.8,0.8-1.2c0.1-0.2,0.2-0.5,0.3-0.8c0.1-0.3,0.2-0.6,0.2-0.8   c0-0.3,0.1-0.5,0.1-0.7c0-0.2,0-0.3,0-0.3c-0.1-0.8-0.3-1.5-0.6-1.9c-0.3-0.4-0.8-0.6-1.4-0.6c-0.4,0-0.8,0.1-1.2,0.2   c-0.4,0.1-0.7,0.3-1,0.5c-0.2,0.1-0.4,0.3-0.5,0.4s-0.3,0.3-0.4,0.5c-0.1-0.2-0.1-0.4-0.2-0.5c-0.1-0.1-0.2-0.3-0.2-0.4   s-0.2-0.2-0.3-0.3c-0.1-0.1-0.3-0.2-0.4-0.3c-0.2-0.1-0.5-0.2-1-0.2c-0.6,0-1.1,0.2-1.6,0.6s-1,1-1.6,1.9   C53.9,11,53.7,10.4,53.4,10z"/>
</g>
</svg><svg version="1.1" id="Layer_1" x="0px" y="0px" viewBox="0 0 70.87 70.87" style="enable-background:new 0 0 70.87 70.87;" xml:space="preserve">
<style type="text/css">
	.st0{fill:#231F20;}
</style>
<g>
	<polyline class="st0" points="11.06,52.8 51.74,66.04 52.05,65.09 11.37,51.85  "/>
	<polygon class="st0" points="55.25,66.65 49.89,67.05 51.64,65.48 51.15,63.18  "/>
</g>
</svg></svg>
