<?xml version='1.0' encoding='ASCII' standalone='yes'?>
<svg xmlns="http://www.w3.org/2000/svg" xmlns:xlink="http://www.w3.org/1999/xlink" version="1.1" id="Layer_1" x="0px" y="0px" viewBox="0 0 70.9 70.9" style="enable-background:new 0 0 70.9 70.9;" xml:space="preserve">
<g id="Layer_1_1_">
</g>
<g>
	<polyline points="6.4,9.3 20.8,9.3 20.8,8.3 6.4,8.3  "/>
	<polyline points="6.4,13.3 20.8,13.3 20.8,12.3 6.4,12.3  "/>
	<polyline points="6.4,18.3 20.8,18.3 20.8,15.3 6.4,15.3  "/>
</g>
<svg version="1.1" id="Layer_1" x="0px" y="0px" viewBox="0 0 70.9 70.9" style="enable-background:new 0 0 70.9 70.9;" xml:space="preserve">
<g>
	<path d="M64,13.9c-0.3,0-0.5,0.2-0.6,0.4c-0.1,0.1-0.1,0.2-0.1,0.4c0,0.2,0,0.4,0.1,0.5s0.2,0.3,0.3,0.4c0.1,0.1,0.3,0.2,0.5,0.2   c0.1,0.3,0,0.5-0.2,0.6c-0.2,0.1-0.5,0.1-0.7,0c-0.1,0-0.2-0.1-0.3-0.2c-0.1-0.1-0.3-0.2-0.5-0.3c-0.2-0.1-0.5-0.2-0.8-0.2   c-0.3,0-0.7,0-1.1,0l5.9-5.3l0.2-0.5h-5.2l-1.3,2.4l0.2,0.2c0.1-0.1,0.2-0.3,0.3-0.4c0.2-0.2,0.4-0.4,0.8-0.4c0.1,0,0.2,0,0.4,0   c0.2,0,0.4,0,0.7,0s0.5,0,0.8,0s0.5,0,0.7,0c-0.1,0.1-0.3,0.2-0.5,0.4c-0.2,0.2-0.5,0.4-0.8,0.7c-0.3,0.3-0.6,0.6-1,0.9   c-0.3,0.3-0.7,0.6-1,1c-0.8,0.7-1.7,1.6-2.6,2.5l0.4,0.3c0.1-0.1,0.3-0.1,0.4-0.2c0.1-0.1,0.3-0.1,0.5-0.2c0.2,0,0.4-0.1,0.7-0.1   c0.2,0,0.3,0,0.5,0.1s0.3,0.2,0.5,0.3c0.2,0.1,0.4,0.2,0.6,0.3c0.2,0.1,0.5,0.1,0.8,0.1c0.3,0,0.6-0.1,0.9-0.2   c0.3-0.1,0.6-0.3,0.8-0.5c0.2-0.2,0.4-0.4,0.6-0.7s0.2-0.6,0.2-0.9c0-0.3,0-0.5-0.1-0.7c-0.1-0.2-0.2-0.4-0.4-0.6   C64.5,14,64.3,13.9,64,13.9z M51,10.5c-0.1-0.2-0.3-0.4-0.5-0.6c-0.2-0.2-0.5-0.3-0.7-0.5c-0.3-0.1-0.5-0.2-0.8-0.2   c-0.3,0-0.6,0.1-1,0.2C47.6,9.6,47.3,9.8,47,10c-0.3,0.2-0.5,0.5-0.7,0.9S46,11.6,46,12c0,0.4,0.1,0.7,0.3,1   c0.2,0.3,0.4,0.5,0.6,0.7c0.3,0.2,0.5,0.3,0.8,0.5c0.3,0.1,0.6,0.3,0.8,0.4c0.3,0.1,0.5,0.3,0.6,0.5s0.3,0.4,0.3,0.6   c0,0.2-0.1,0.4-0.2,0.6c-0.1,0.2-0.3,0.4-0.4,0.5c-0.2,0.1-0.4,0.2-0.6,0.3c-0.2,0.1-0.4,0.1-0.6,0.1c-0.3,0-0.4-0.1-0.5-0.2   c-0.1-0.1-0.2-0.3-0.4-0.4c0.1-0.2,0.2-0.3,0.2-0.5s0.1-0.3,0.1-0.4c0-0.1-0.1-0.3-0.2-0.6c-0.1-0.3-0.3-0.4-0.7-0.4   c-0.2,0-0.4,0-0.5,0.1c-0.1,0.1-0.2,0.2-0.3,0.4c-0.1,0.1-0.1,0.3-0.1,0.4c0,0.2,0,0.3,0,0.5c0,0.4,0.1,0.7,0.3,0.9   c0.2,0.2,0.4,0.4,0.7,0.6c0.3,0.2,0.6,0.3,0.9,0.4c0.3,0.1,0.6,0.1,0.8,0.1c0.3,0,0.7-0.1,1-0.2c0.4-0.1,0.7-0.3,1-0.6   s0.6-0.5,0.8-0.9s0.3-0.7,0.3-1.1c0-0.5-0.1-0.9-0.3-1.2c-0.2-0.3-0.4-0.5-0.6-0.7s-0.5-0.3-0.8-0.4c-0.3-0.1-0.6-0.2-0.8-0.3   c-0.3-0.1-0.5-0.2-0.6-0.4c-0.2-0.2-0.3-0.4-0.3-0.8c0-0.3,0.1-0.5,0.2-0.7c0.1-0.2,0.3-0.3,0.4-0.4c0.2-0.1,0.3-0.2,0.5-0.2   c0.2,0,0.4,0,0.5,0.1c0.2,0.1,0.3,0.2,0.3,0.4c0,0.2,0,0.4,0,0.6c0,0.2,0,0.4,0.1,0.6s0.3,0.3,0.7,0.3c0.1,0,0.3-0.1,0.6-0.2   s0.3-0.4,0.3-0.7C51.2,11,51.1,10.8,51,10.5z M62.1,5.1c-0.4-0.4-0.7-0.5-1.2-0.5c-1,0-1.9,0.2-2.7,0.6c-0.8,0.4-1.6,1.2-2.2,2.1   c-0.3,0.4-0.5,0.8-0.8,1.2c-0.2,0.4-0.5,0.9-0.7,1.4h-2.7v0.6h2.4c-0.2,0.6-0.3,1.2-0.5,1.7c-0.1,0.5-0.3,1-0.4,1.5   c-0.1,0.5-0.3,0.9-0.4,1.4c-0.1,0.4-0.3,0.9-0.4,1.3c0,0.1-0.1,0.3-0.2,0.6s-0.2,0.7-0.3,1.1c-0.1,0.4-0.3,0.8-0.5,1.3   c-0.2,0.4-0.4,0.8-0.6,1.2c-0.2,0.4-0.5,0.7-0.7,0.9c-0.3,0.2-0.5,0.4-0.8,0.4c-0.1,0-0.2-0.1-0.4-0.3c0-0.1,0.1-0.1,0.2-0.2   c0.1-0.1,0.2-0.1,0.4-0.2c0.1-0.1,0.3-0.2,0.4-0.4c0.1-0.2,0.2-0.4,0.3-0.7c0-0.4-0.1-0.7-0.3-0.9c-0.2-0.3-0.5-0.4-0.9-0.4   c-0.3,0-0.5,0.1-0.7,0.2c-0.2,0.1-0.4,0.3-0.5,0.4c-0.1,0.2-0.2,0.4-0.3,0.6c-0.1,0.2-0.1,0.4-0.1,0.6c0,0.2,0.1,0.5,0.2,0.7   c0.1,0.2,0.3,0.4,0.4,0.6s0.4,0.3,0.6,0.4c0.2,0.1,0.4,0.2,0.6,0.2c0.5,0,1-0.1,1.6-0.3c0.6-0.2,1.1-0.5,1.6-1   c0.7-0.7,1.3-1.4,1.7-2.2c0.5-0.7,0.8-1.4,1.1-2c0.1-0.4,0.3-0.7,0.4-1c0.1-0.3,0.2-0.6,0.3-0.9c0.1-0.3,0.2-0.6,0.3-0.9   c0.1-0.3,0.2-0.6,0.4-1c0-0.1,0.1-0.3,0.2-0.5s0.1-0.5,0.2-0.7c0.1-0.3,0.2-0.5,0.2-0.8c0.1-0.3,0.2-0.5,0.2-0.8h1.4h1.4V9.9H59   c-0.3,0-0.6,0-0.9,0s-0.4,0-0.4,0c0.1-0.5,0.2-0.9,0.4-1.4c0.1-0.5,0.3-0.8,0.4-1c0.1-0.3,0.2-0.6,0.4-0.8c0.1-0.3,0.3-0.5,0.5-0.7   c0.2-0.2,0.4-0.4,0.7-0.5c0.3-0.1,0.6-0.2,0.9-0.2c0.1,0,0.2,0,0.4,0.1c0.1,0,0.2,0.1,0.2,0.3C61.3,5.7,61.1,5.9,61,6   c-0.2,0.1-0.3,0.2-0.5,0.4c-0.1,0.1-0.3,0.2-0.4,0.4C60,6.9,60,7,60,7.2c0,0.2,0.1,0.5,0.2,0.7c0.1,0.2,0.4,0.4,0.7,0.4   c0.3,0,0.5-0.1,0.7-0.2C61.8,8,62,7.8,62.1,7.6c0.1-0.2,0.3-0.4,0.3-0.6c0.1-0.2,0.1-0.5,0.1-0.7C62.6,5.9,62.4,5.4,62.1,5.1z"/>
</g>
</svg><svg version="1.1" id="Layer_1" x="0px" y="0px" viewBox="0 0 70.9 70.9" style="enable-background:new 0 0 70.9 70.9;" xml:space="preserve">
<style type="text/css">
	.st0{fill:#231F20;}
</style>
<g>
	<polyline class="st0" points="10.1,60.4 56.4,60.4 56.4,58.4 10.1,58.4  "/>
</g>
</svg></svg>
