<?xml version='1.0' encoding='ASCII' standalone='yes'?>
<svg xmlns="http://www.w3.org/2000/svg" xmlns:xlink="http://www.w3.org/1999/xlink" version="1.1" id="Layer_1" x="0px" y="0px" viewBox="0 0 70.9 70.9" style="enable-background:new 0 0 70.9 70.9;" xml:space="preserve">
<g id="Layer_1_1_">
</g>
<g>
	<polyline points="6.4,9.3 20.8,9.3 20.8,8.3 6.4,8.3  "/>
	<polyline points="6.4,13.3 20.8,13.3 20.8,12.3 6.4,12.3  "/>
	<polyline points="6.4,18.3 20.8,18.3 20.8,15.3 6.4,15.3  "/>
</g>
<svg version="1.1" id="Layer_1" x="0px" y="0px" viewBox="0 0 70.9 70.9" style="enable-background:new 0 0 70.9 70.9;" xml:space="preserve">
<g>
	<path d="M62.4,5c-0.4-0.4-0.7-0.5-1.2-0.5c-1,0-1.9,0.2-2.7,0.6c-0.8,0.4-1.6,1.1-2.2,2.1c-0.3,0.4-0.5,0.8-0.8,1.2   c-0.2,0.4-0.5,0.9-0.7,1.4h-2.7v0.6h2.4c-0.2,0.6-0.3,1.2-0.5,1.7c-0.1,0.5-0.3,1-0.4,1.5c-0.1,0.5-0.3,0.9-0.4,1.4   c-0.1,0.4-0.2,0.9-0.4,1.3c0,0.1-0.1,0.3-0.2,0.6c-0.1,0.3-0.2,0.7-0.3,1.1c-0.1,0.4-0.3,0.8-0.5,1.2c-0.2,0.4-0.4,0.8-0.6,1.2   c-0.2,0.4-0.5,0.7-0.7,0.9c-0.3,0.2-0.5,0.4-0.8,0.4l-0.2,0c0,0-0.1-0.1-0.2-0.2c0-0.1,0.1-0.1,0.2-0.2c0.1-0.1,0.2-0.1,0.4-0.2   c0.1-0.1,0.3-0.2,0.4-0.4c0.1-0.2,0.2-0.4,0.3-0.7c0-0.4-0.1-0.7-0.3-0.9c-0.2-0.3-0.5-0.4-0.9-0.4c-0.3,0-0.5,0.1-0.7,0.2   c-0.2,0.1-0.3,0.3-0.5,0.4c-0.1,0.2-0.2,0.4-0.3,0.6C48,20.1,48,20.3,48,20.5c0,0.3,0.1,0.5,0.2,0.7c0.1,0.2,0.3,0.4,0.4,0.6   c0.2,0.2,0.4,0.3,0.6,0.4c0.2,0.1,0.4,0.2,0.6,0.2c0.5,0,1-0.1,1.6-0.3c0.6-0.2,1.1-0.6,1.6-1c0.7-0.7,1.3-1.4,1.7-2.2   c0.5-0.7,0.8-1.4,1.1-2c0.1-0.4,0.3-0.7,0.4-1c0.1-0.3,0.2-0.6,0.3-0.9c0.1-0.3,0.2-0.6,0.3-0.9c0.1-0.3,0.2-0.6,0.4-1   c0-0.1,0.1-0.3,0.1-0.5c0.1-0.2,0.1-0.5,0.2-0.7c0.1-0.3,0.2-0.5,0.2-0.8c0.1-0.3,0.2-0.5,0.3-0.8h1.4h1.4V9.9H58   c0.1-0.5,0.2-0.9,0.4-1.4c0.2-0.5,0.3-0.8,0.4-1c0.1-0.3,0.2-0.6,0.4-0.8s0.3-0.5,0.5-0.7c0.2-0.2,0.4-0.4,0.7-0.5s0.6-0.2,0.9-0.2   c0.1,0,0.2,0,0.3,0.1c0.1,0,0.2,0.1,0.2,0.3c-0.1,0.2-0.3,0.3-0.4,0.4c-0.2,0.1-0.3,0.3-0.5,0.4c-0.1,0.1-0.3,0.2-0.4,0.4   c-0.1,0.1-0.2,0.3-0.2,0.5c0,0.2,0.1,0.5,0.2,0.7c0.1,0.2,0.4,0.4,0.7,0.4c0.3,0,0.5-0.1,0.7-0.2c0.2-0.1,0.4-0.3,0.5-0.5   c0.1-0.2,0.3-0.4,0.3-0.6C62.9,6.7,63,6.5,63,6.3C63,5.8,62.8,5.4,62.4,5z"/>
</g>
</svg><svg version="1.1" id="Layer_1" x="0px" y="0px" viewBox="0 0 70.87 70.87" style="enable-background:new 0 0 70.87 70.87;" xml:space="preserve">
<style type="text/css">
	.st0{fill:#231F20;}
	.st1{fill:#3F3B3C;}
</style>
<g>
	<polyline class="st0" points="26.66,60.06 12.44,55.19 12.11,56.14 26.34,61  "/>
	<polyline class="st0" points="26.35,60.44 12.12,65.01 12.43,65.96 26.65,61.39  "/>
	<polyline class="st0" points="43.74,61.01 58.32,56.14 58.01,55.19 43.42,60.06  "/>
	<polyline class="st0" points="43.43,61.39 58.02,65.96 58.32,65.01 43.73,60.44  "/>
	<polygon class="st1" points="35.51,58.03 32.47,58.03 36.3,66.73 40.13,58.03 37.09,58.03 37.09,52.81 35.51,52.81  "/>
</g>
</svg></svg>
