<?xml version='1.0' encoding='ASCII' standalone='yes'?>
<svg xmlns="http://www.w3.org/2000/svg" xmlns:xlink="http://www.w3.org/1999/xlink" version="1.1" id="Layer_1" x="0px" y="0px" viewBox="0 0 70.9 70.9" style="enable-background:new 0 0 70.9 70.9;" xml:space="preserve">
<g id="Layer_1_1_">
</g>
<g>
	<polyline points="6.4,9.3 20.8,9.3 20.8,8.3 6.4,8.3  "/>
	<polyline points="6.4,13.3 20.8,13.3 20.8,12.3 6.4,12.3  "/>
	<polyline points="6.4,18.3 20.8,18.3 20.8,15.3 6.4,15.3  "/>
</g>
<svg version="1.1" id="Layer_1" x="0px" y="0px" viewBox="0 0 70.9 70.9" style="enable-background:new 0 0 70.9 70.9;" xml:space="preserve">
<g>
	<path d="M63.8,12.4c-0.2,0.6-0.4,1.2-0.7,1.8c-0.3,0.6-0.6,1.2-1,1.7s-0.7,0.8-1,0.8c-0.2,0-0.3-0.1-0.4-0.2   c-0.1-0.1-0.2-0.3-0.3-0.4s-0.1-0.3-0.2-0.4c0-0.1-0.1-0.3-0.1-0.3c0-0.2,0-0.4,0.1-0.6c0.1-0.2,0.1-0.5,0.2-0.7   c0.1-0.3,0.2-0.5,0.3-0.7s0.2-0.4,0.2-0.6c0.1-0.2,0.2-0.5,0.4-0.8c0.2-0.3,0.4-0.5,0.6-0.7c0.2-0.2,0.5-0.4,0.7-0.5   s0.5-0.2,0.8-0.2c0.2,0,0.4,0,0.5,0.1c0.1,0.1,0.2,0.3,0.2,0.6C64.1,11.4,64,11.8,63.8,12.4z M64.3,9.4c-0.4,0-0.8,0.1-1.2,0.2   s-0.7,0.3-1,0.5c-0.2,0.1-0.4,0.3-0.5,0.4s-0.3,0.3-0.4,0.5c-0.1-0.2-0.1-0.4-0.2-0.5c-0.1-0.1-0.2-0.3-0.2-0.4   c-0.1-0.1-0.2-0.2-0.3-0.3c-0.1-0.1-0.3-0.2-0.4-0.3c-0.2-0.1-0.5-0.2-1-0.2c-0.6,0-1.3,0.3-2,0.9c-0.7,0.6-1.4,1.6-2.2,3   c-0.1,0.2-0.2,0.4-0.3,0.6s-0.3,0.5-0.4,0.7c-0.1,0.2-0.3,0.4-0.4,0.6c-0.1,0.2-0.3,0.2-0.3,0.2s-0.1-0.1-0.2-0.2   c0-0.1,0-0.2,0-0.4s0-0.3,0.1-0.4c0-0.1,0.1-0.3,0.1-0.3l1.1-2.6c0,0,0-0.1,0-0.4c0-0.2,0-0.5,0-0.7c0-0.3-0.1-0.5-0.3-0.7   s-0.4-0.4-0.7-0.4c-0.3,0-0.5,0-0.8,0.1c-0.3,0.1-0.5,0.2-0.8,0.4c-0.3,0.1-0.5,0.3-0.8,0.5c-0.2-0.2-0.3-0.4-0.5-0.5   c-0.1-0.1-0.3-0.3-0.4-0.4c-0.1-0.1-0.3-0.2-0.4-0.2c-0.3,0-0.6,0.1-0.9,0.2c-0.3,0.1-0.5,0.2-0.8,0.4c-0.3,0.2-0.5,0.4-0.8,0.6   c0,0-0.1-0.1-0.2-0.2c-0.1-0.1-0.2-0.2-0.4-0.4c-0.1-0.1-0.3-0.3-0.4-0.4c-0.2-0.1-0.3-0.2-0.5-0.2c-0.4-0.1-0.7,0-1,0.2   c-0.3,0.2-0.6,0.4-0.9,0.7c-0.3,0.3-0.5,0.6-0.7,1c-0.2,0.4-0.4,0.7-0.5,1c-0.1,0.3-0.3,0.7-0.4,1.1l0.3,0.1   c0.3-0.6,0.6-1.2,0.8-1.6c0.2-0.4,0.5-0.7,0.8-0.9c0.3-0.2,0.6-0.2,0.8,0c0.1,0.1,0.1,0.2,0.1,0.3c0,0.2,0,0.3,0,0.5   c0,0.1-0.1,0.3-0.1,0.6L43.4,17h1.8l1.7-4.7c0.2-0.3,0.3-0.6,0.5-0.8c0.1-0.2,0.3-0.4,0.5-0.5c0.2-0.1,0.4-0.2,0.6-0.2   c0.1,0,0.2,0.1,0.2,0.2c0,0.2,0,0.3,0,0.5s-0.1,0.4-0.1,0.8L47.1,17h1.8l1.7-4.7c0.2-0.3,0.3-0.6,0.5-0.8c0.1-0.2,0.3-0.4,0.5-0.5   s0.4-0.2,0.5-0.2c0.2,0,0.3,0.1,0.3,0.3c0,0.2,0,0.3,0,0.5c0,0.2-0.1,0.4-0.1,0.7l-1.1,3.4C51,15.9,51,16.1,51,16.3   c0,0.2,0.1,0.4,0.2,0.5s0.2,0.3,0.3,0.4c0.1,0.1,0.3,0.1,0.4,0.2c0.4,0,0.8,0,1.2-0.3s0.7-0.5,0.9-0.8c0.3-0.4,0.5-0.7,0.8-1.2   c0.2-0.4,0.4-0.8,0.6-1.3c0.4-0.7,0.7-1.3,1-1.7s0.6-0.7,0.9-0.9s0.5-0.3,0.7-0.3c0.2,0,0.3-0.1,0.3-0.1c0.1,0,0.2,0,0.3,0.1   s0.1,0.2,0,0.4c0,0.1-0.1,0.3-0.3,0.6c-0.1,0.3-0.3,0.7-0.5,1.2c-0.2,0.5-0.4,1-0.7,1.6s-0.5,1.2-0.7,1.7c-0.6,1.4-1.2,2.9-2,4.6   l-2.4,0.2v0.5h7.3v-0.5l-2-0.2l1.8-4.5c0.2,0.2,0.3,0.3,0.4,0.4c0.1,0.1,0.2,0.2,0.4,0.3c0.2,0.1,0.4,0.2,0.6,0.3   c0.2,0.1,0.4,0.1,0.8,0.2c0.4,0,0.8-0.1,1.3-0.2c0.4-0.2,0.8-0.4,1.1-0.7c0.4-0.3,0.7-0.6,1-1c0.3-0.4,0.6-0.8,0.8-1.2   c0.1-0.2,0.3-0.5,0.4-0.8c0.1-0.3,0.2-0.6,0.3-0.8c0.1-0.3,0.1-0.5,0.2-0.7s0.1-0.3,0.1-0.3C66.4,10.2,65.6,9.4,64.3,9.4z"/>
</g>
</svg><svg version="1.1" id="Layer_1" x="0px" y="0px" viewBox="0 0 70.87 70.87" style="enable-background:new 0 0 70.87 70.87;" xml:space="preserve">
<style type="text/css">
	.st0{fill:#231F20;}
	.st1{fill:#3F3B3C;}
</style>
<g>
	<polyline class="st0" points="12.11,61.09 26.34,65.96 26.66,65.01 12.44,60.15  "/>
	<polyline class="st0" points="12.43,60.71 26.65,56.14 26.35,55.19 12.12,59.76  "/>
	<polyline class="st0" points="58.01,60.15 43.42,65.01 43.74,65.96 58.32,61.09  "/>
	<polyline class="st0" points="58.32,59.76 43.73,55.19 43.43,56.14 58.02,60.71  "/>
	<polygon class="st1" points="37.09,61.52 40.13,61.52 36.31,52.81 32.47,61.52 35.51,61.52 35.51,66.73 37.09,66.73  "/>
</g>
</svg></svg>
