<?xml version='1.0' encoding='ASCII' standalone='yes'?>
<svg xmlns="http://www.w3.org/2000/svg" xmlns:xlink="http://www.w3.org/1999/xlink" version="1.1" id="Layer_1" x="0px" y="0px" viewBox="0 0 70.9 70.9" style="enable-background:new 0 0 70.9 70.9;" xml:space="preserve">
<g id="Layer_1_1_">
</g>
<g>
	<polyline points="6.4,9.3 20.8,9.3 20.8,8.3 6.4,8.3  "/>
	<polyline points="6.4,14.3 20.8,14.3 20.8,11.3 6.4,11.3  "/>
	<polyline points="6.4,17.3 20.8,17.3 20.8,16.3 6.4,16.3  "/>
</g>
<svg version="1.1" id="Layer_1" x="0px" y="0px" viewBox="0 0 70.9 70.9" style="enable-background:new 0 0 70.9 70.9;" xml:space="preserve">
<g>
	<path d="M48.2,17h1.8l1.5-4.7c0.2-0.3,0.4-0.6,0.5-0.8c0.2-0.2,0.3-0.4,0.5-0.5c0.2-0.2,0.4-0.2,0.5-0.2s0.3,0.1,0.3,0.3   c0,0.2,0,0.3,0,0.5c0,0.2-0.1,0.4-0.2,0.7l-1.1,3.4c-0.1,0.2-0.1,0.4-0.1,0.6s0.1,0.4,0.2,0.5c0.1,0.1,0.2,0.3,0.3,0.4   c0.1,0.1,0.3,0.1,0.4,0.2c0.4,0,0.9-0.1,1.3-0.4c0.4-0.3,0.8-0.6,1.1-1c0.3-0.4,0.6-0.7,0.7-1c0.2-0.3,0.3-0.5,0.3-0.5l-0.2-0.2   c-0.2,0.4-0.4,0.7-0.6,0.9c-0.2,0.2-0.3,0.4-0.5,0.6c-0.2,0.2-0.4,0.3-0.5,0.2c-0.1,0-0.2-0.1-0.2-0.2c0-0.1,0-0.2,0-0.4   c0-0.1,0-0.3,0.1-0.4c0-0.1,0.1-0.2,0.1-0.3l1-3.1c0,0,0-0.1,0.1-0.4c0-0.2,0-0.5,0-0.7c0-0.3-0.1-0.5-0.3-0.7   c-0.1-0.2-0.4-0.3-0.7-0.4c-0.3,0-0.5,0-0.8,0.1c-0.3,0.1-0.5,0.2-0.8,0.4c-0.3,0.2-0.5,0.4-0.8,0.6c-0.1-0.2-0.3-0.4-0.5-0.5   c-0.1-0.1-0.3-0.3-0.4-0.4c-0.2-0.1-0.3-0.2-0.4-0.2c-0.3,0-0.6,0.1-0.9,0.2c-0.3,0.1-0.5,0.2-0.8,0.4c-0.3,0.2-0.5,0.4-0.7,0.6   c0,0-0.1-0.1-0.2-0.2c-0.1-0.1-0.2-0.2-0.3-0.4c-0.1-0.1-0.3-0.3-0.5-0.4c-0.2-0.1-0.3-0.2-0.4-0.2c-0.4-0.1-0.7,0-1,0.2   c-0.3,0.2-0.6,0.4-0.9,0.7c-0.3,0.3-0.5,0.6-0.7,1c-0.2,0.4-0.4,0.7-0.5,1c-0.1,0.3-0.3,0.7-0.4,1.2l0.3,0c0.3-0.6,0.5-1.2,0.8-1.6   c0.2-0.4,0.5-0.7,0.8-0.9s0.6-0.2,0.8,0c0.1,0.1,0.1,0.2,0.1,0.3c0,0.1,0,0.3,0,0.4c0,0.1-0.1,0.3-0.1,0.6L44.6,17h1.8l1.6-4.7   c0.2-0.3,0.3-0.6,0.5-0.8c0.1-0.2,0.3-0.4,0.5-0.5c0.2-0.1,0.4-0.2,0.6-0.2c0.1,0,0.2,0.1,0.2,0.3c0,0.2,0,0.3,0,0.5   c0,0.2-0.1,0.4-0.1,0.7L48.2,17z M67.1,4.9c-0.4-0.4-0.7-0.5-1.2-0.5c-1,0-1.9,0.2-2.7,0.7c-0.8,0.4-1.6,1.1-2.2,2.1   c-0.3,0.4-0.5,0.8-0.8,1.2c-0.2,0.4-0.5,0.9-0.7,1.5h-2.7v0.6h2.4c-0.3,1.2-0.6,2.3-0.9,3.2c-0.3,0.9-0.5,1.8-0.8,2.7   c0,0.1-0.1,0.4-0.2,0.7s-0.2,0.7-0.3,1.1c-0.1,0.4-0.3,0.8-0.5,1.3c-0.2,0.4-0.4,0.8-0.6,1.2c-0.2,0.4-0.5,0.7-0.7,0.9   c-0.3,0.2-0.5,0.3-0.8,0.3c-0.1,0-0.2-0.1-0.4-0.3c0-0.1,0.1-0.1,0.2-0.2c0.1-0.1,0.2-0.1,0.3-0.2c0.1-0.1,0.3-0.2,0.4-0.4   s0.2-0.4,0.3-0.7c0-0.4-0.1-0.7-0.3-1c-0.2-0.3-0.5-0.4-0.9-0.4c-0.3,0-0.5,0.1-0.7,0.2c-0.2,0.1-0.3,0.3-0.5,0.4   c-0.1,0.2-0.2,0.4-0.3,0.6c-0.1,0.2-0.1,0.4-0.1,0.6c0,0.3,0.1,0.5,0.2,0.7c0.1,0.2,0.3,0.4,0.4,0.6c0.2,0.2,0.4,0.4,0.6,0.5   s0.4,0.2,0.6,0.2c0.5,0,1.1-0.1,1.6-0.3c0.6-0.2,1.1-0.6,1.6-1c0.7-0.7,1.3-1.4,1.8-2.2s0.8-1.4,1.1-2c0.2-0.4,0.3-0.7,0.4-1   c0.1-0.3,0.2-0.6,0.3-0.9c0.1-0.3,0.2-0.6,0.3-0.9c0.1-0.3,0.2-0.6,0.3-1c0-0.1,0.1-0.3,0.1-0.5c0.1-0.2,0.1-0.5,0.2-0.7   c0.1-0.3,0.2-0.6,0.2-0.8c0.1-0.3,0.2-0.5,0.2-0.8h1.4h1.4V9.8h-2.7c0.1-0.5,0.2-0.9,0.4-1.4c0.2-0.5,0.3-0.8,0.4-1   c0.1-0.3,0.2-0.6,0.4-0.9c0.1-0.3,0.3-0.5,0.5-0.7c0.2-0.2,0.4-0.4,0.7-0.5C65.2,5.1,65.5,5,65.9,5c0.1,0,0.2,0,0.4,0.1   c0.1,0,0.2,0.1,0.2,0.3c-0.1,0.2-0.3,0.3-0.4,0.5c-0.2,0.1-0.3,0.2-0.5,0.4c-0.2,0.1-0.3,0.2-0.4,0.4C65,6.7,65,6.9,65,7.1   c0,0.2,0.1,0.5,0.2,0.7c0.1,0.2,0.4,0.4,0.7,0.4c0.3,0,0.5-0.1,0.7-0.2c0.2-0.1,0.4-0.3,0.5-0.5c0.1-0.2,0.3-0.4,0.3-0.6   s0.1-0.5,0.1-0.7C67.6,5.7,67.4,5.3,67.1,4.9z"/>
</g>
</svg><svg version="1.1" id="Layer_1" x="0px" y="0px" viewBox="0 0 70.87 70.87" style="enable-background:new 0 0 70.87 70.87;" xml:space="preserve">
<style type="text/css">
	.st0{fill:#231F20;}
	.st1{fill:#3F3B3C;}
</style>
<g>
	<polyline class="st0" points="12.11,61.09 26.34,65.96 26.66,65.01 12.44,60.15  "/>
	<polyline class="st0" points="12.43,60.71 26.65,56.14 26.35,55.19 12.12,59.76  "/>
	<polyline class="st0" points="58.01,60.15 43.42,65.01 43.74,65.96 58.32,61.09  "/>
	<polyline class="st0" points="58.32,59.76 43.73,55.19 43.43,56.14 58.02,60.71  "/>
	<polygon class="st1" points="37.09,61.52 40.13,61.52 36.31,52.81 32.47,61.52 35.51,61.52 35.51,66.73 37.09,66.73  "/>
</g>
</svg></svg>
