<?xml version='1.0' encoding='ASCII' standalone='yes'?>
<svg xmlns="http://www.w3.org/2000/svg" xmlns:xlink="http://www.w3.org/1999/xlink" version="1.1" id="Layer_1" x="0px" y="0px" viewBox="0 0 70.9 70.9" style="enable-background:new 0 0 70.9 70.9;" xml:space="preserve">
<g id="Layer_1_1_">
</g>
<g>
	<polyline points="6.4,9.3 20.8,9.3 20.8,8.3 6.4,8.3  "/>
	<polyline points="6.4,14.3 20.8,14.3 20.8,11.3 6.4,11.3  "/>
	<polyline points="6.4,17.3 20.8,17.3 20.8,16.3 6.4,16.3  "/>
</g>
<svg version="1.1" id="Layer_1" x="0px" y="0px" viewBox="0 0 70.9 70.9" style="enable-background:new 0 0 70.9 70.9;" xml:space="preserve">
<g>
	<path d="M48,13.4l0.2,0c0.1-0.2,0.3-0.5,0.4-0.8c0.1-0.3,0.4-0.6,0.6-1c0.3-0.3,0.6-0.6,0.9-0.9c0.3-0.3,0.6-0.4,0.9-0.4   c0.2,0,0.4,0.1,0.5,0.3c0.1,0.2,0.1,0.4,0,0.6c0,0.1-0.1,0.3-0.3,0.6c-0.1,0.3-0.3,0.7-0.5,1.2c-0.2,0.5-0.4,1-0.7,1.6   c-0.3,0.6-0.5,1.2-0.7,1.7c-0.6,1.4-1.2,2.9-2,4.6l-2.4,0.2v0.5h7.3v-0.5l-2-0.2l1.8-4.5c0.2,0.2,0.3,0.3,0.4,0.4   c0.1,0.1,0.2,0.2,0.4,0.3c0.2,0.1,0.4,0.2,0.6,0.3s0.4,0.1,0.8,0.2c0.4,0,0.8-0.1,1.3-0.2c0.4-0.2,0.8-0.4,1.1-0.7   c0.4-0.3,0.7-0.6,1-1c0.3-0.4,0.6-0.8,0.8-1.2c0.1-0.2,0.2-0.5,0.3-0.8c0.1-0.3,0.2-0.6,0.2-0.8c0-0.3,0.1-0.5,0.1-0.7   c0-0.2,0-0.3,0-0.3C59,11,58.8,10.4,58.5,10c-0.3-0.4-0.8-0.6-1.4-0.6c-0.4,0-0.8,0.1-1.2,0.2c-0.4,0.1-0.7,0.3-1,0.5   c-0.2,0.1-0.4,0.3-0.5,0.4c-0.1,0.1-0.3,0.3-0.4,0.5c-0.1-0.2-0.1-0.4-0.2-0.5c-0.1-0.1-0.2-0.3-0.2-0.4s-0.2-0.2-0.3-0.3   c-0.1-0.1-0.3-0.2-0.4-0.3c-0.2-0.1-0.5-0.2-1-0.2c-0.7,0-1.4,0.3-2,0.9c-0.6,0.6-1.3,1.7-2,3.1L48,13.4z M56.5,12.3   c-0.2,0.6-0.4,1.2-0.7,1.8c-0.3,0.6-0.6,1.2-1,1.7c-0.3,0.5-0.7,0.8-1,0.8c-0.2,0-0.3-0.1-0.4-0.2c-0.1-0.1-0.2-0.3-0.3-0.4   s-0.1-0.3-0.2-0.4c0-0.1-0.1-0.2-0.1-0.3c0-0.2,0-0.4,0.1-0.7c0.1-0.2,0.1-0.5,0.2-0.7c0.1-0.3,0.2-0.5,0.3-0.7s0.2-0.4,0.2-0.6   c0.1-0.2,0.2-0.5,0.4-0.8c0.2-0.3,0.4-0.5,0.6-0.7c0.2-0.2,0.5-0.4,0.7-0.5c0.3-0.1,0.5-0.2,0.8-0.2c0.2,0,0.4,0,0.5,0.1   c0.1,0.1,0.2,0.3,0.2,0.6C56.8,11.4,56.7,11.7,56.5,12.3z"/>
</g>
</svg><svg version="1.1" id="Layer_1" x="0px" y="0px" viewBox="0 0 70.9 70.9" style="enable-background:new 0 0 70.9 70.9;" xml:space="preserve">
<g id="Layer_1_1_">
</g>
<g>
	<polyline points="16.3,60.7 54.4,64.9 54.6,63.9 16.4,59.7  "/>
	<polyline points="16.4,60.3 54.5,56.3 54.5,55.3 16.3,59.3  "/>
</g>
</svg></svg>
