<?xml version='1.0' encoding='ASCII' standalone='yes'?>
<svg xmlns="http://www.w3.org/2000/svg" xmlns:xlink="http://www.w3.org/1999/xlink" version="1.1" id="Layer_1" x="0px" y="0px" viewBox="0 0 70.9 70.9" style="enable-background:new 0 0 70.9 70.9;" xml:space="preserve">
<g id="Layer_1_1_">
</g>
<g>
	<polyline points="6.4,9.3 20.8,9.3 20.8,8.3 6.4,8.3  "/>
	<polyline points="6.4,14.3 20.8,14.3 20.8,11.3 6.4,11.3  "/>
	<polyline points="6.4,17.3 20.8,17.3 20.8,16.3 6.4,16.3  "/>
</g>
<svg version="1.1" id="Layer_1" x="0px" y="0px" viewBox="0 0 70.9 70.9" style="enable-background:new 0 0 70.9 70.9;" xml:space="preserve">
<g>
	<path d="M65.8,10.3c-0.1,0.3-0.2,0.7-0.4,1.1c-0.1,0.4-0.3,0.8-0.5,1.3c-0.2,0.4-0.4,0.8-0.6,1.2c-0.2,0.4-0.4,0.7-0.7,0.9   c-0.2,0.2-0.5,0.4-0.7,0.4c-0.2,0-0.3-0.1-0.4-0.2c-0.1-0.1-0.2-0.3-0.3-0.4s-0.1-0.3-0.2-0.4S62,13.8,62,13.8c0-0.2,0-0.4,0.1-0.7   c0.1-0.2,0.1-0.5,0.2-0.7c0.1-0.3,0.2-0.5,0.3-0.7s0.2-0.4,0.2-0.6c0.1-0.2,0.2-0.5,0.4-0.8c0.2-0.3,0.4-0.5,0.6-0.7   c0.2-0.2,0.5-0.4,0.7-0.5C64.8,9,65,8.9,65.3,8.9c0.2,0,0.4,0,0.4,0.1c0.1,0.1,0.1,0.3,0.1,0.6C65.9,9.7,65.8,10,65.8,10.3z    M55.1,10.8c-0.2,0.6-0.4,1.2-0.7,1.8s-0.6,1.2-1,1.7c-0.3,0.5-0.7,0.8-1,0.8c-0.2,0-0.3-0.1-0.4-0.2c-0.1-0.1-0.2-0.3-0.3-0.4   s-0.1-0.3-0.2-0.4c0-0.1-0.1-0.2-0.1-0.3c0-0.2,0-0.4,0.1-0.7c0.1-0.2,0.1-0.5,0.2-0.7c0.1-0.3,0.2-0.5,0.3-0.7s0.2-0.4,0.2-0.6   c0.1-0.2,0.2-0.5,0.4-0.8c0.2-0.3,0.4-0.5,0.6-0.7c0.2-0.2,0.5-0.4,0.7-0.5c0.3-0.1,0.5-0.2,0.8-0.2c0.2,0,0.4,0,0.4,0.1   c0.1,0.1,0.1,0.3,0.1,0.6C55.4,9.8,55.3,10.2,55.1,10.8z M44.6,10.8c-0.2,0.6-0.4,1.2-0.7,1.8c-0.3,0.6-0.6,1.2-1,1.7   c-0.3,0.5-0.7,0.8-1,0.8c-0.2,0-0.3-0.1-0.4-0.2c-0.1-0.1-0.2-0.3-0.3-0.4S41,14.2,41,14.1c0-0.1-0.1-0.2-0.1-0.3   c0-0.2,0-0.4,0.1-0.7c0.1-0.2,0.1-0.5,0.2-0.7c0.1-0.3,0.2-0.5,0.3-0.7s0.2-0.4,0.2-0.6c0.1-0.2,0.2-0.5,0.4-0.8   c0.2-0.3,0.4-0.5,0.6-0.7c0.2-0.2,0.5-0.4,0.7-0.5C43.8,9,44,8.9,44.3,8.9c0.2,0,0.4,0,0.4,0.1c0.1,0.1,0.1,0.3,0.1,0.6   C44.9,9.8,44.8,10.2,44.6,10.8z M57.7,10.2c-0.1-0.8-0.3-1.5-0.6-1.9c-0.3-0.4-0.8-0.6-1.4-0.6c-0.4,0-0.8,0.1-1.2,0.2   c-0.4,0.1-0.7,0.3-1,0.5c-0.2,0.2-0.4,0.3-0.5,0.4c-0.1,0.1-0.3,0.3-0.5,0.5c-0.1-0.2-0.1-0.4-0.2-0.5c-0.1-0.1-0.2-0.3-0.2-0.4   s-0.2-0.2-0.3-0.3c-0.1-0.1-0.3-0.2-0.4-0.3c-0.2-0.1-0.5-0.2-1-0.2c-0.5,0-1.1,0.2-1.6,0.6c-0.5,0.4-1,1-1.6,1.9   c-0.1-0.8-0.3-1.4-0.6-1.8c-0.3-0.4-0.8-0.6-1.4-0.6c-0.4,0-0.8,0.1-1.2,0.2c-0.4,0.1-0.7,0.3-1,0.5c-0.2,0.2-0.4,0.3-0.5,0.4   c-0.1,0.1-0.3,0.3-0.5,0.5c-0.1-0.2-0.2-0.4-0.2-0.5c-0.1-0.1-0.2-0.3-0.2-0.4s-0.2-0.2-0.3-0.3C41.1,8.1,41,8,40.8,7.9   c-0.2-0.1-0.5-0.2-1-0.2c-0.7,0-1.3,0.3-2,0.9c-0.6,0.6-1.3,1.7-2,3.1l0.2,0.1l0.2,0c0.1-0.2,0.3-0.5,0.4-0.8   c0.1-0.3,0.4-0.6,0.6-1c0.3-0.3,0.6-0.7,0.9-1c0.3-0.3,0.6-0.4,0.9-0.4c0.2,0,0.4,0.1,0.5,0.3c0.1,0.2,0.1,0.4,0,0.6   c0,0.1-0.1,0.3-0.3,0.6c-0.1,0.3-0.3,0.7-0.5,1.2c-0.2,0.5-0.4,1-0.7,1.6c-0.3,0.6-0.5,1.2-0.7,1.7c-0.6,1.4-1.3,2.9-2,4.6L33,19.5   v0.5c0.4,0,1,0,1.7,0c0.7,0,1.4,0,2.2,0c0.7,0,1.4,0,2,0c0.6,0,1.1,0,1.4,0v-0.5l-2-0.2l1.9-4.5c0.1,0.2,0.3,0.3,0.4,0.4   c0.1,0.1,0.2,0.2,0.4,0.3c0.2,0.1,0.4,0.2,0.6,0.3C41.8,16,42,16,42.4,16c0.4,0,0.8-0.1,1.3-0.2c0.4-0.2,0.8-0.4,1.1-0.7   s0.7-0.6,1-1c0.3-0.4,0.6-0.8,0.8-1.2c0.1-0.3,0.3-0.6,0.4-0.9c0.1-0.3,0.1-0.6,0.2-0.9c0.1-0.1,0.2-0.3,0.3-0.5   c0.1-0.2,0.2-0.4,0.4-0.6c0.3-0.3,0.6-0.7,0.9-1c0.3-0.3,0.6-0.4,0.9-0.4c0.2,0,0.4,0.1,0.5,0.3c0.1,0.2,0.1,0.4,0,0.6   c0,0.1-0.1,0.3-0.3,0.6c-0.1,0.3-0.3,0.7-0.5,1.2c-0.2,0.5-0.4,1-0.7,1.6c-0.3,0.6-0.5,1.2-0.7,1.7c-0.6,1.4-1.3,2.9-2,4.6   l-2.4,0.2v0.5h7.3v-0.5l-2-0.2l1.9-4.5c0.2,0.2,0.3,0.3,0.4,0.4c0.1,0.1,0.2,0.2,0.4,0.3c0.2,0.1,0.4,0.2,0.6,0.3s0.4,0.1,0.8,0.2   c0.4,0,0.9-0.1,1.3-0.2c0.4-0.2,0.8-0.4,1.1-0.7c0.4-0.3,0.7-0.6,1-1c0.3-0.4,0.6-0.8,0.8-1.2c0.1-0.2,0.2-0.5,0.3-0.8   c0.1-0.3,0.1-0.6,0.2-0.8c0.1-0.2,0.2-0.4,0.3-0.6c0.1-0.2,0.3-0.4,0.4-0.7c0.3-0.3,0.6-0.7,0.9-1c0.3-0.3,0.6-0.4,0.9-0.4   c0.2,0,0.4,0.1,0.5,0.3c0.1,0.2,0.1,0.4,0.1,0.6c0,0.1-0.1,0.3-0.3,0.6c-0.1,0.3-0.3,0.7-0.5,1.2c-0.2,0.5-0.4,1-0.7,1.6   c-0.3,0.6-0.5,1.2-0.7,1.7c-0.6,1.4-1.2,2.9-2,4.6L54,19.5v0.5h7.3v-0.5l-1.9-0.2l1.8-4.5c0.2,0.2,0.3,0.3,0.4,0.4   c0.1,0.1,0.2,0.2,0.4,0.3c0.2,0.1,0.4,0.2,0.6,0.3c0.2,0.1,0.4,0.1,0.7,0.2c0.4,0,0.9-0.1,1.3-0.2c0.4-0.2,0.8-0.4,1.1-0.7   c0.4-0.3,0.7-0.6,1-1c0.3-0.4,0.6-0.8,0.8-1.2c0.1-0.2,0.2-0.5,0.3-0.8c0.1-0.3,0.2-0.6,0.2-0.8c0-0.3,0.1-0.5,0.1-0.7   c0-0.2,0-0.3,0-0.3c-0.1-0.8-0.3-1.5-0.6-1.9c-0.3-0.4-0.8-0.6-1.4-0.6c-0.4,0-0.8,0.1-1.2,0.2c-0.4,0.1-0.7,0.3-1,0.5   c-0.2,0.2-0.4,0.3-0.5,0.4c-0.1,0.1-0.2,0.3-0.4,0.5c-0.1-0.2-0.2-0.4-0.2-0.5c-0.1-0.1-0.1-0.3-0.2-0.4s-0.2-0.2-0.3-0.3   C62.1,8.1,62,8,61.8,7.9c-0.2-0.1-0.5-0.2-1-0.2c-0.6,0-1.1,0.2-1.6,0.6C58.7,8.7,58.2,9.4,57.7,10.2L57.7,10.2z"/>
</g>
</svg><svg version="1.1" id="Layer_1" x="0px" y="0px" viewBox="0 0 70.9 70.9" style="enable-background:new 0 0 70.9 70.9;" xml:space="preserve">
<g id="Layer_1_1_">
</g>
<g>
	<polyline points="54.6,59.6 16.4,55.4 16.3,56.3 54.4,60.6  "/>
	<polyline points="54.4,59.9 16.3,63.9 16.4,64.9 54.6,60.9  "/>
</g>
</svg></svg>
