<?xml version='1.0' encoding='ASCII' standalone='yes'?>
<svg xmlns="http://www.w3.org/2000/svg" xmlns:xlink="http://www.w3.org/1999/xlink" version="1.1" id="Layer_1" x="0px" y="0px" viewBox="0 0 70.9 70.9" style="enable-background:new 0 0 70.9 70.9;" xml:space="preserve">
<g>
	<path d="M36.9,38c0,0.4-0.1,0.8-0.4,1c-0.3,0.3-0.6,0.4-1,0.4c-0.4,0-0.8-0.1-1-0.4c-0.3-0.3-0.4-0.6-0.4-1c0-0.4,0.1-0.7,0.4-1   c0.3-0.3,0.6-0.4,1-0.4c0.4,0,0.7,0.1,1,0.4S36.9,37.6,36.9,38z"/>
</g>
<g>
	<path d="M27.7,30.4h15.5v9.1H42v-4.9H28.9v4.9h-1.2V30.4z"/>
</g>
<svg version="1.1" id="Layer_1" x="0px" y="0px" viewBox="0 0 70.87 70.87" style="enable-background:new 0 0 70.87 70.87;" xml:space="preserve">
</svg><svg version="1.1" id="Layer_1" x="0px" y="0px" viewBox="0 0 70.87 70.87" style="enable-background:new 0 0 70.87 70.87;" xml:space="preserve">
</svg><svg version="1.1" id="Layer_1" x="0px" y="0px" viewBox="0 0 70.87 70.87" style="enable-background:new 0 0 70.87 70.87;" xml:space="preserve">
</svg></svg>
