<?xml version='1.0' encoding='ASCII' standalone='yes'?>
<svg xmlns="http://www.w3.org/2000/svg" xmlns:xlink="http://www.w3.org/1999/xlink" version="1.1" id="Layer_1" x="0px" y="0px" viewBox="0 0 70.87 70.87" style="enable-background:new 0 0 70.87 70.87;" xml:space="preserve">
<style type="text/css">
	.st0{fill:#231F20;}
</style>
<g>
	<path class="st0" d="M31.22,40.91c0.06,0.44,0.22,0.83,0.49,1.16c0.27,0.34,0.62,0.6,1.06,0.8c0.44,0.2,0.96,0.29,1.55,0.29   c0.58,0,1.16-0.09,1.75-0.27c0.59-0.18,1.13-0.43,1.64-0.76s0.95-0.71,1.34-1.15c0.39-0.44,0.68-0.91,0.87-1.41   s0.25-0.98,0.18-1.41s-0.23-0.82-0.49-1.15c-0.26-0.33-0.62-0.59-1.06-0.78c-0.45-0.2-0.97-0.29-1.57-0.29   c-0.6,0-1.19,0.09-1.76,0.27c-0.58,0.18-1.12,0.43-1.62,0.76c-0.5,0.33-0.95,0.71-1.33,1.13c-0.38,0.43-0.67,0.9-0.85,1.4   C31.23,40,31.17,40.47,31.22,40.91z"/>
	<path class="st0" d="M31.23,32.24c0.06,0.44,0.22,0.83,0.49,1.16c0.27,0.34,0.62,0.6,1.06,0.8c0.44,0.2,0.96,0.29,1.55,0.29   c0.58,0,1.16-0.09,1.75-0.27c0.59-0.18,1.13-0.43,1.64-0.76s0.95-0.71,1.34-1.15c0.39-0.44,0.68-0.91,0.87-1.41   s0.25-0.98,0.18-1.41s-0.23-0.82-0.49-1.15c-0.26-0.33-0.62-0.59-1.06-0.78c-0.45-0.2-0.97-0.29-1.57-0.29   c-0.6,0-1.19,0.09-1.76,0.27c-0.58,0.18-1.12,0.43-1.62,0.76c-0.5,0.33-0.95,0.71-1.33,1.13c-0.38,0.43-0.67,0.9-0.85,1.4   C31.24,31.33,31.17,31.8,31.23,32.24z"/>
</g>
<svg version="1.1" id="Layer_1" x="0px" y="0px" viewBox="0 0 70.87 70.87" style="enable-background:new 0 0 70.87 70.87;" xml:space="preserve">
</svg><svg version="1.1" id="Layer_1" x="0px" y="0px" viewBox="0 0 70.9 70.9" style="enable-background:new 0 0 70.9 70.9;" xml:space="preserve">
<g>
	<path d="M63.8,12.4c-0.2,0.6-0.4,1.2-0.7,1.8c-0.3,0.6-0.6,1.2-1,1.7s-0.7,0.8-1,0.8c-0.2,0-0.3-0.1-0.4-0.2   c-0.1-0.1-0.2-0.3-0.3-0.4s-0.1-0.3-0.2-0.4c0-0.1-0.1-0.3-0.1-0.3c0-0.2,0-0.4,0.1-0.6c0.1-0.2,0.1-0.5,0.2-0.7   c0.1-0.3,0.2-0.5,0.3-0.7s0.2-0.4,0.2-0.6c0.1-0.2,0.2-0.5,0.4-0.8c0.2-0.3,0.4-0.5,0.6-0.7c0.2-0.2,0.5-0.4,0.7-0.5   s0.5-0.2,0.8-0.2c0.2,0,0.4,0,0.5,0.1c0.1,0.1,0.2,0.3,0.2,0.6C64.1,11.4,64,11.8,63.8,12.4z M64.3,9.4c-0.4,0-0.8,0.1-1.2,0.2   s-0.7,0.3-1,0.5c-0.2,0.1-0.4,0.3-0.5,0.4s-0.3,0.3-0.4,0.5c-0.1-0.2-0.1-0.4-0.2-0.5c-0.1-0.1-0.2-0.3-0.2-0.4   c-0.1-0.1-0.2-0.2-0.3-0.3c-0.1-0.1-0.3-0.2-0.4-0.3c-0.2-0.1-0.5-0.2-1-0.2c-0.6,0-1.3,0.3-2,0.9c-0.7,0.6-1.4,1.6-2.2,3   c-0.1,0.2-0.2,0.4-0.3,0.6s-0.3,0.5-0.4,0.7c-0.1,0.2-0.3,0.4-0.4,0.6c-0.1,0.2-0.3,0.2-0.3,0.2s-0.1-0.1-0.2-0.2   c0-0.1,0-0.2,0-0.4s0-0.3,0.1-0.4c0-0.1,0.1-0.3,0.1-0.3l1.1-2.6c0,0,0-0.1,0-0.4c0-0.2,0-0.5,0-0.7c0-0.3-0.1-0.5-0.3-0.7   s-0.4-0.4-0.7-0.4c-0.3,0-0.5,0-0.8,0.1c-0.3,0.1-0.5,0.2-0.8,0.4c-0.3,0.1-0.5,0.3-0.8,0.5c-0.2-0.2-0.3-0.4-0.5-0.5   c-0.1-0.1-0.3-0.3-0.4-0.4c-0.1-0.1-0.3-0.2-0.4-0.2c-0.3,0-0.6,0.1-0.9,0.2c-0.3,0.1-0.5,0.2-0.8,0.4c-0.3,0.2-0.5,0.4-0.8,0.6   c0,0-0.1-0.1-0.2-0.2c-0.1-0.1-0.2-0.2-0.4-0.4c-0.1-0.1-0.3-0.3-0.4-0.4c-0.2-0.1-0.3-0.2-0.5-0.2c-0.4-0.1-0.7,0-1,0.2   c-0.3,0.2-0.6,0.4-0.9,0.7c-0.3,0.3-0.5,0.6-0.7,1c-0.2,0.4-0.4,0.7-0.5,1c-0.1,0.3-0.3,0.7-0.4,1.1l0.3,0.1   c0.3-0.6,0.6-1.2,0.8-1.6c0.2-0.4,0.5-0.7,0.8-0.9c0.3-0.2,0.6-0.2,0.8,0c0.1,0.1,0.1,0.2,0.1,0.3c0,0.2,0,0.3,0,0.5   c0,0.1-0.1,0.3-0.1,0.6L43.4,17h1.8l1.7-4.7c0.2-0.3,0.3-0.6,0.5-0.8c0.1-0.2,0.3-0.4,0.5-0.5c0.2-0.1,0.4-0.2,0.6-0.2   c0.1,0,0.2,0.1,0.2,0.2c0,0.2,0,0.3,0,0.5s-0.1,0.4-0.1,0.8L47.1,17h1.8l1.7-4.7c0.2-0.3,0.3-0.6,0.5-0.8c0.1-0.2,0.3-0.4,0.5-0.5   s0.4-0.2,0.5-0.2c0.2,0,0.3,0.1,0.3,0.3c0,0.2,0,0.3,0,0.5c0,0.2-0.1,0.4-0.1,0.7l-1.1,3.4C51,15.9,51,16.1,51,16.3   c0,0.2,0.1,0.4,0.2,0.5s0.2,0.3,0.3,0.4c0.1,0.1,0.3,0.1,0.4,0.2c0.4,0,0.8,0,1.2-0.3s0.7-0.5,0.9-0.8c0.3-0.4,0.5-0.7,0.8-1.2   c0.2-0.4,0.4-0.8,0.6-1.3c0.4-0.7,0.7-1.3,1-1.7s0.6-0.7,0.9-0.9s0.5-0.3,0.7-0.3c0.2,0,0.3-0.1,0.3-0.1c0.1,0,0.2,0,0.3,0.1   s0.1,0.2,0,0.4c0,0.1-0.1,0.3-0.3,0.6c-0.1,0.3-0.3,0.7-0.5,1.2c-0.2,0.5-0.4,1-0.7,1.6s-0.5,1.2-0.7,1.7c-0.6,1.4-1.2,2.9-2,4.6   l-2.4,0.2v0.5h7.3v-0.5l-2-0.2l1.8-4.5c0.2,0.2,0.3,0.3,0.4,0.4c0.1,0.1,0.2,0.2,0.4,0.3c0.2,0.1,0.4,0.2,0.6,0.3   c0.2,0.1,0.4,0.1,0.8,0.2c0.4,0,0.8-0.1,1.3-0.2c0.4-0.2,0.8-0.4,1.1-0.7c0.4-0.3,0.7-0.6,1-1c0.3-0.4,0.6-0.8,0.8-1.2   c0.1-0.2,0.3-0.5,0.4-0.8c0.1-0.3,0.2-0.6,0.3-0.8c0.1-0.3,0.1-0.5,0.2-0.7s0.1-0.3,0.1-0.3C66.4,10.2,65.6,9.4,64.3,9.4z"/>
</g>
</svg><svg version="1.1" id="Layer_1" x="0px" y="0px" viewBox="0 0 70.9 70.9" style="enable-background:new 0 0 70.9 70.9;" xml:space="preserve">
<style type="text/css">
	.st0{fill:#231F20;}
</style>
<g>
	<polyline class="st0" points="10.1,60.4 56.4,60.4 56.4,58.4 10.1,58.4  "/>
</g>
</svg></svg>
