<?xml version='1.0' encoding='ASCII' standalone='yes'?>
<svg xmlns="http://www.w3.org/2000/svg" xmlns:xlink="http://www.w3.org/1999/xlink" version="1.1" id="Layer_1" x="0px" y="0px" viewBox="0 0 70.9 70.9" style="enable-background:new 0 0 70.9 70.9;" xml:space="preserve">
<g>
	<path d="M41.8,39c-0.3-1.1-0.7-2-1.3-2.7c-0.5-0.7-1.1-1.1-1.7-1.5c-0.6-0.3-1.2-0.6-1.8-0.7s-1.1-0.1-1.5-0.1s-1,0-1.6,0.1   s-1.2,0.3-1.8,0.7c-0.6,0.3-1.2,0.8-1.7,1.5c-0.5,0.7-1,1.5-1.3,2.7h-0.3c0-0.6,0.1-1.1,0.2-1.7c0.2-0.6,0.4-1.2,0.7-1.7   c0.3-0.6,0.6-1.1,1-1.6c0.4-0.5,0.9-0.9,1.3-1.3c0.5-0.4,1-0.7,1.6-0.9c0.6-0.2,1.1-0.3,1.8-0.3c0.6,0,1.2,0.1,1.8,0.3   c0.6,0.2,1.1,0.5,1.6,0.9c0.5,0.4,0.9,0.8,1.3,1.3s0.8,1,1,1.6c0.3,0.6,0.5,1.1,0.7,1.7c0.2,0.6,0.2,1.2,0.2,1.7H41.8z M36.9,38   c0,0.4-0.1,0.8-0.4,1c-0.3,0.3-0.6,0.4-1,0.4c-0.4,0-0.8-0.1-1-0.4c-0.3-0.3-0.4-0.6-0.4-1c0-0.4,0.1-0.7,0.4-1   c0.3-0.3,0.6-0.4,1-0.4c0.4,0,0.7,0.1,1,0.4S36.9,37.6,36.9,38z"/>
</g>
<svg version="1.1" id="Layer_1" x="0px" y="0px" viewBox="0 0 70.87 70.87" style="enable-background:new 0 0 70.87 70.87;" xml:space="preserve">
</svg><svg version="1.1" id="Layer_1" x="0px" y="0px" viewBox="0 0 70.87 70.87" style="enable-background:new 0 0 70.87 70.87;" xml:space="preserve">
</svg><svg version="1.1" id="Layer_1" x="0px" y="0px" viewBox="0 0 70.87 70.87" style="enable-background:new 0 0 70.87 70.87;" xml:space="preserve">
</svg></svg>
