<?xml version='1.0' encoding='ASCII' standalone='yes'?>
<svg xmlns="http://www.w3.org/2000/svg" xmlns:xlink="http://www.w3.org/1999/xlink" version="1.1" id="Layer_1" x="0px" y="0px" viewBox="0 0 70.87 70.87" style="enable-background:new 0 0 70.87 70.87;" xml:space="preserve">
<style type="text/css">
	.st0{fill:#231F20;}
</style>
<g>
	<path class="st0" d="M31.22,40.91c0.06,0.44,0.22,0.83,0.49,1.16c0.27,0.34,0.62,0.6,1.06,0.8c0.44,0.2,0.96,0.29,1.55,0.29   c0.58,0,1.16-0.09,1.75-0.27c0.59-0.18,1.13-0.43,1.64-0.76s0.95-0.71,1.34-1.15c0.39-0.44,0.68-0.91,0.87-1.41   s0.25-0.98,0.18-1.41s-0.23-0.82-0.49-1.15c-0.26-0.33-0.62-0.59-1.06-0.78c-0.45-0.2-0.97-0.29-1.57-0.29   c-0.6,0-1.19,0.09-1.76,0.27c-0.58,0.18-1.12,0.43-1.62,0.76c-0.5,0.33-0.95,0.71-1.33,1.13c-0.38,0.43-0.67,0.9-0.85,1.4   C31.23,40,31.17,40.47,31.22,40.91z"/>
	<path class="st0" d="M31.23,32.24c0.06,0.44,0.22,0.83,0.49,1.16c0.27,0.34,0.62,0.6,1.06,0.8c0.44,0.2,0.96,0.29,1.55,0.29   c0.58,0,1.16-0.09,1.75-0.27c0.59-0.18,1.13-0.43,1.64-0.76s0.95-0.71,1.34-1.15c0.39-0.44,0.68-0.91,0.87-1.41   s0.25-0.98,0.18-1.41s-0.23-0.82-0.49-1.15c-0.26-0.33-0.62-0.59-1.06-0.78c-0.45-0.2-0.97-0.29-1.57-0.29   c-0.6,0-1.19,0.09-1.76,0.27c-0.58,0.18-1.12,0.43-1.62,0.76c-0.5,0.33-0.95,0.71-1.33,1.13c-0.38,0.43-0.67,0.9-0.85,1.4   C31.24,31.33,31.17,31.8,31.23,32.24z"/>
</g>
<svg version="1.1" id="Layer_1" x="0px" y="0px" viewBox="0 0 70.9 70.9" style="enable-background:new 0 0 70.9 70.9;" xml:space="preserve">
<g id="Layer_1_1_">
</g>
<g>
	<polyline points="6.4,9.3 20.8,9.3 20.8,8.3 6.4,8.3  "/>
	<polyline points="6.4,13.3 20.8,13.3 20.8,12.3 6.4,12.3  "/>
	<polyline points="6.4,18.3 20.8,18.3 20.8,15.3 6.4,15.3  "/>
</g>
</svg><svg version="1.1" id="Layer_1" x="0px" y="0px" viewBox="0 0 70.9 70.9" style="enable-background:new 0 0 70.9 70.9;" xml:space="preserve">
<g>
	<path d="M61.9,12.3c-0.2,0.6-0.4,1.2-0.7,1.8c-0.3,0.6-0.6,1.2-1,1.7c-0.3,0.5-0.7,0.8-1,0.8c-0.2,0-0.3-0.1-0.4-0.2   c-0.1-0.1-0.2-0.3-0.3-0.4s-0.1-0.3-0.2-0.4s-0.1-0.2-0.1-0.3c0-0.2,0-0.4,0.1-0.7c0.1-0.2,0.1-0.5,0.2-0.7   c0.1-0.3,0.2-0.5,0.3-0.7s0.2-0.4,0.2-0.6c0.1-0.2,0.2-0.5,0.4-0.8c0.2-0.3,0.4-0.5,0.6-0.7c0.2-0.2,0.5-0.4,0.7-0.5   c0.3-0.1,0.5-0.2,0.8-0.2c0.2,0,0.4,0,0.5,0.1c0.1,0.1,0.2,0.3,0.2,0.6C62.2,11.4,62.1,11.7,61.9,12.3z M51.5,12.3   c-0.2,0.6-0.4,1.2-0.7,1.8c-0.3,0.6-0.6,1.2-1,1.7c-0.3,0.5-0.7,0.8-1,0.8c-0.2,0-0.3-0.1-0.4-0.2c-0.1-0.1-0.2-0.3-0.3-0.4   s-0.1-0.3-0.2-0.4c0-0.1-0.1-0.2-0.1-0.3c0-0.2,0-0.4,0.1-0.7c0.1-0.2,0.1-0.5,0.2-0.7c0.1-0.3,0.2-0.5,0.3-0.7s0.2-0.4,0.2-0.6   c0.1-0.2,0.2-0.5,0.4-0.8c0.2-0.3,0.4-0.5,0.6-0.7c0.2-0.2,0.5-0.4,0.7-0.5c0.3-0.1,0.5-0.2,0.8-0.2c0.2,0,0.4,0,0.5,0.1   c0.1,0.1,0.2,0.3,0.2,0.6C51.8,11.4,51.7,11.7,51.5,12.3z M53.4,10c-0.3-0.4-0.8-0.6-1.4-0.6c-0.4,0-0.8,0.1-1.2,0.2   c-0.4,0.1-0.7,0.3-1,0.5c-0.2,0.1-0.4,0.3-0.5,0.4c-0.1,0.1-0.3,0.3-0.4,0.5c-0.1-0.2-0.1-0.4-0.2-0.5c-0.1-0.1-0.2-0.3-0.2-0.4   s-0.2-0.2-0.3-0.3c-0.1-0.1-0.3-0.2-0.4-0.3c-0.2-0.1-0.5-0.2-1-0.2c-0.7,0-1.4,0.3-2,0.9c-0.6,0.6-1.3,1.7-2,3.1l0.2,0.1l0.2,0   c0.1-0.2,0.3-0.5,0.4-0.8c0.1-0.3,0.4-0.6,0.6-1c0.3-0.3,0.6-0.6,0.9-0.9c0.3-0.3,0.6-0.4,0.9-0.4c0.2,0,0.4,0.1,0.5,0.3   c0.1,0.2,0.1,0.4,0,0.6c0,0.1-0.1,0.3-0.3,0.6c-0.1,0.3-0.3,0.7-0.5,1.2c-0.2,0.5-0.4,1-0.7,1.6c-0.3,0.6-0.5,1.2-0.7,1.7   c-0.6,1.4-1.2,2.9-2,4.6l-2.4,0.2v0.5h7.3v-0.5l-2-0.2l1.8-4.5c0.2,0.2,0.3,0.3,0.4,0.4c0.1,0.1,0.2,0.2,0.4,0.3   c0.2,0.1,0.4,0.2,0.6,0.3s0.4,0.1,0.8,0.2c0.4,0,0.8-0.1,1.3-0.2c0.4-0.2,0.8-0.4,1.1-0.7c0.4-0.3,0.7-0.6,1-1   c0.3-0.4,0.6-0.8,0.8-1.2c0.1-0.3,0.3-0.6,0.4-0.9c0.1-0.3,0.2-0.6,0.2-0.9c0.1-0.1,0.2-0.3,0.3-0.5c0.1-0.2,0.2-0.4,0.4-0.6   c0.3-0.3,0.6-0.6,0.9-0.9c0.3-0.3,0.6-0.4,0.9-0.4c0.2,0,0.4,0.1,0.5,0.3c0.1,0.2,0.1,0.4,0,0.6c0,0.1-0.1,0.3-0.3,0.6   c-0.1,0.3-0.3,0.7-0.5,1.2c-0.2,0.5-0.4,1-0.7,1.6c-0.3,0.6-0.5,1.2-0.7,1.7c-0.6,1.4-1.2,2.9-2,4.6l-2.4,0.2v0.5h7.3v-0.5l-2-0.2   l1.8-4.5c0.2,0.2,0.3,0.3,0.4,0.4c0.1,0.1,0.2,0.2,0.4,0.3c0.2,0.1,0.4,0.2,0.6,0.3c0.2,0.1,0.4,0.1,0.8,0.2c0.4,0,0.8-0.1,1.3-0.2   c0.4-0.2,0.8-0.4,1.1-0.7s0.7-0.6,1-1c0.3-0.4,0.6-0.8,0.8-1.2c0.1-0.2,0.2-0.5,0.3-0.8c0.1-0.3,0.2-0.6,0.2-0.8   c0-0.3,0.1-0.5,0.1-0.7c0-0.2,0-0.3,0-0.3c-0.1-0.8-0.3-1.5-0.6-1.9c-0.3-0.4-0.8-0.6-1.4-0.6c-0.4,0-0.8,0.1-1.2,0.2   c-0.4,0.1-0.7,0.3-1,0.5c-0.2,0.1-0.4,0.3-0.5,0.4s-0.3,0.3-0.4,0.5c-0.1-0.2-0.1-0.4-0.2-0.5c-0.1-0.1-0.2-0.3-0.2-0.4   s-0.2-0.2-0.3-0.3c-0.1-0.1-0.3-0.2-0.4-0.3c-0.2-0.1-0.5-0.2-1-0.2c-0.6,0-1.1,0.2-1.6,0.6s-1,1-1.6,1.9   C53.9,11,53.7,10.4,53.4,10z"/>
</g>
</svg><svg version="1.1" id="Layer_1" x="0px" y="0px" viewBox="0 0 70.9 70.9" style="enable-background:new 0 0 70.9 70.9;" xml:space="preserve">
<g>
	<path d="M22,56.9l-0.3,1.4h0c0.2-0.4,0.5-0.8,0.9-1.1c0.4-0.3,0.8-0.4,1.4-0.4h0.2c0,0,0.1,0,0.1,0c0,0,0.1,0,0.1,0l-0.2,0.8   c-0.1,0-0.1,0-0.2,0c-0.1,0-0.1,0-0.2,0c-0.3,0-0.6,0.1-0.9,0.2c-0.3,0.1-0.5,0.3-0.7,0.5c-0.2,0.2-0.4,0.5-0.5,0.7   c-0.1,0.3-0.2,0.6-0.3,0.8l-0.7,3.2H20l1.3-6.2H22z"/>
	<path d="M25,57.8c0.2-0.3,0.4-0.5,0.6-0.6s0.5-0.3,0.8-0.4s0.6-0.1,0.9-0.1c0.2,0,0.4,0,0.7,0.1s0.5,0.1,0.7,0.2   c0.2,0.1,0.4,0.2,0.5,0.4s0.2,0.4,0.2,0.7c0,0.2,0,0.3,0,0.5c0,0.2-0.1,0.4-0.1,0.6c0,0.2-0.1,0.4-0.1,0.6s-0.1,0.3-0.1,0.5   c-0.1,0.3-0.1,0.6-0.2,0.9c-0.1,0.2-0.1,0.4-0.1,0.6c0,0.2-0.1,0.3-0.1,0.4c0,0.1,0,0.2,0,0.3c0,0.1,0,0.2,0.1,0.2   c0.1,0,0.2,0,0.3,0c0.1,0,0.1,0,0.2,0c0,0,0.1,0,0.1,0l-0.1,0.6c-0.2,0-0.4,0.1-0.6,0.1c-0.4,0-0.6-0.2-0.7-0.7c0-0.1,0-0.1,0-0.2   c0-0.1,0-0.1,0-0.2l0,0c-0.2,0.4-0.5,0.6-0.9,0.8s-0.8,0.3-1.2,0.3c-0.3,0-0.6,0-0.8-0.1c-0.2-0.1-0.4-0.2-0.6-0.3   c-0.2-0.1-0.3-0.3-0.4-0.5c-0.1-0.2-0.2-0.5-0.2-0.8c0-0.3,0.1-0.6,0.2-0.8c0.1-0.2,0.3-0.4,0.5-0.6c0.2-0.1,0.4-0.3,0.7-0.3   s0.5-0.2,0.8-0.2c0.4-0.1,0.8-0.1,1.1-0.1s0.6,0,0.9-0.1c0.2-0.1,0.4-0.2,0.6-0.3s0.2-0.5,0.2-0.9c0-0.2,0-0.3-0.1-0.5   s-0.2-0.2-0.3-0.3c-0.1-0.1-0.3-0.1-0.4-0.1c-0.2,0-0.3,0-0.5,0c-0.2,0-0.5,0-0.7,0.1c-0.2,0-0.4,0.1-0.6,0.2   c-0.2,0.1-0.3,0.3-0.4,0.4c-0.1,0.2-0.2,0.4-0.2,0.7h-0.8C24.7,58.4,24.8,58.1,25,57.8z M28.4,59.7c-0.1,0.1-0.2,0.1-0.3,0.2   C28,60,27.9,60,27.8,60c-0.1,0-0.3,0-0.4,0s-0.2,0-0.3,0c-0.2,0-0.5,0-0.8,0.1c-0.3,0-0.5,0.1-0.8,0.2s-0.5,0.2-0.6,0.4   s-0.3,0.4-0.3,0.8c0,0.2,0,0.4,0.1,0.5c0.1,0.1,0.2,0.3,0.3,0.3s0.3,0.2,0.4,0.2s0.3,0.1,0.5,0.1c0.6,0,1.1-0.2,1.5-0.5   s0.6-0.8,0.7-1.3L28.4,59.7L28.4,59.7z"/>
	<path d="M32.6,54.5l-1.8,8.6H30l1.8-8.6H32.6z"/>
	<path d="M34.8,54.5L33,63.1h-0.7l1.8-8.6H34.8z"/>
	<path d="M35.5,60.7c0,0.3,0,0.5,0.1,0.8c0.1,0.2,0.2,0.4,0.3,0.6c0.1,0.2,0.3,0.3,0.6,0.4c0.2,0.1,0.5,0.2,0.8,0.2   c0.5,0,0.9-0.1,1.3-0.4c0.4-0.3,0.6-0.7,0.7-1.1h0.8c-0.2,0.7-0.5,1.2-1,1.6s-1.1,0.6-1.8,0.6c-0.8,0-1.5-0.2-1.9-0.7   c-0.4-0.5-0.6-1.1-0.6-1.9c0-0.5,0.1-1,0.2-1.4c0.1-0.5,0.4-0.9,0.7-1.3c0.3-0.4,0.6-0.7,1.1-0.9c0.4-0.2,0.9-0.3,1.4-0.3   c0.4,0,0.7,0.1,1,0.2c0.3,0.1,0.5,0.3,0.7,0.5s0.4,0.5,0.5,0.8c0.1,0.3,0.2,0.6,0.2,1c0,0.2,0,0.4,0,0.5s0,0.4,0,0.5h-4.8   C35.5,60.3,35.5,60.5,35.5,60.7z M39.7,59.3c0-0.1,0-0.2,0-0.2c0-0.5-0.2-0.9-0.5-1.3c-0.3-0.3-0.7-0.5-1.2-0.5   c-0.3,0-0.6,0.1-0.9,0.2c-0.3,0.1-0.5,0.3-0.7,0.5s-0.4,0.4-0.5,0.7c-0.1,0.3-0.2,0.5-0.3,0.8h4C39.7,59.5,39.7,59.4,39.7,59.3z"/>
	<path d="M42.7,56.9L42.5,58h0c0.2-0.4,0.5-0.7,0.9-0.9s0.8-0.4,1.3-0.4c0.3,0,0.5,0,0.8,0.1c0.2,0.1,0.4,0.2,0.6,0.3   c0.2,0.1,0.3,0.3,0.4,0.5s0.1,0.5,0.1,0.8c0,0.2,0,0.4-0.1,0.7l-0.9,4h-0.8l0.9-4c0-0.1,0-0.2,0.1-0.3c0-0.1,0-0.2,0-0.3   c0-0.2,0-0.4-0.1-0.5c-0.1-0.1-0.2-0.3-0.3-0.3c-0.1-0.1-0.3-0.2-0.4-0.2s-0.3-0.1-0.5-0.1c-0.3,0-0.5,0.1-0.8,0.2   s-0.5,0.3-0.7,0.5c-0.2,0.2-0.4,0.5-0.6,0.8c-0.2,0.3-0.3,0.7-0.4,1.1l-0.7,3.2h-0.7l1.3-6.2H42.7z"/>
	<path d="M47.8,61.8h1l-0.3,1.3h-1L47.8,61.8z"/>
</g>
</svg></svg>
