<?xml version='1.0' encoding='ASCII' standalone='yes'?>
<svg xmlns="http://www.w3.org/2000/svg" xmlns:xlink="http://www.w3.org/1999/xlink" version="1.1" id="Layer_1" x="0px" y="0px" viewBox="0 0 70.87 70.87" style="enable-background:new 0 0 70.87 70.87;" xml:space="preserve">
<style type="text/css">
	.st0{fill:#231F20;}
</style>
<g>
	<polygon class="st0" points="35.78,34.8 39.53,38.55 39.53,37.4 36.34,34.21 39.53,31.02 39.53,29.87 35.78,33.62 32,29.87    32,31.02 35.19,34.21 32,37.4 32,38.55  "/>
	<polygon class="st0" points="35.78,34.8 35.52,35.06 39.91,39.46 39.91,37.25 36.87,34.21 39.91,31.17 39.91,29.87 39.91,28.97    35.78,33.09 31.63,28.97 31.63,31.17 34.66,34.21 31.63,37.25 31.63,38.55 31.63,39.45 36.05,35.07 35.78,34.8 35.52,35.06    35.78,34.8 35.52,34.53 32.38,37.65 32.38,37.56 35.72,34.21 32.38,30.86 32.38,30.77 35.78,34.15 39.16,30.78 39.16,30.86    35.81,34.21 39.16,37.56 39.16,37.64 35.78,34.27 35.52,34.53  "/>
</g>
<svg version="1.1" id="Layer_1" x="0px" y="0px" viewBox="0 0 70.9 70.9" style="enable-background:new 0 0 70.9 70.9;" xml:space="preserve">
<g id="Layer_1_1_">
</g>
<g>
	<polyline points="6.4,9.3 20.8,9.3 20.8,8.3 6.4,8.3  "/>
	<polyline points="6.4,13.3 20.8,13.3 20.8,12.3 6.4,12.3  "/>
	<polyline points="6.4,18.3 20.8,18.3 20.8,15.3 6.4,15.3  "/>
</g>
</svg><svg version="1.1" id="Layer_1" x="0px" y="0px" viewBox="0 0 70.9 70.9" style="enable-background:new 0 0 70.9 70.9;" xml:space="preserve">
<g>
	<path d="M62.4,5c-0.4-0.4-0.7-0.5-1.2-0.5c-1,0-1.9,0.2-2.7,0.6c-0.8,0.4-1.6,1.1-2.2,2.1c-0.3,0.4-0.5,0.8-0.8,1.2   c-0.2,0.4-0.5,0.9-0.7,1.4h-2.7v0.6h2.4c-0.2,0.6-0.3,1.2-0.5,1.7c-0.1,0.5-0.3,1-0.4,1.5c-0.1,0.5-0.3,0.9-0.4,1.4   c-0.1,0.4-0.2,0.9-0.4,1.3c0,0.1-0.1,0.3-0.2,0.6c-0.1,0.3-0.2,0.7-0.3,1.1c-0.1,0.4-0.3,0.8-0.5,1.2c-0.2,0.4-0.4,0.8-0.6,1.2   c-0.2,0.4-0.5,0.7-0.7,0.9c-0.3,0.2-0.5,0.4-0.8,0.4l-0.2,0c0,0-0.1-0.1-0.2-0.2c0-0.1,0.1-0.1,0.2-0.2c0.1-0.1,0.2-0.1,0.4-0.2   c0.1-0.1,0.3-0.2,0.4-0.4c0.1-0.2,0.2-0.4,0.3-0.7c0-0.4-0.1-0.7-0.3-0.9c-0.2-0.3-0.5-0.4-0.9-0.4c-0.3,0-0.5,0.1-0.7,0.2   c-0.2,0.1-0.3,0.3-0.5,0.4c-0.1,0.2-0.2,0.4-0.3,0.6C48,20.1,48,20.3,48,20.5c0,0.3,0.1,0.5,0.2,0.7c0.1,0.2,0.3,0.4,0.4,0.6   c0.2,0.2,0.4,0.3,0.6,0.4c0.2,0.1,0.4,0.2,0.6,0.2c0.5,0,1-0.1,1.6-0.3c0.6-0.2,1.1-0.6,1.6-1c0.7-0.7,1.3-1.4,1.7-2.2   c0.5-0.7,0.8-1.4,1.1-2c0.1-0.4,0.3-0.7,0.4-1c0.1-0.3,0.2-0.6,0.3-0.9c0.1-0.3,0.2-0.6,0.3-0.9c0.1-0.3,0.2-0.6,0.4-1   c0-0.1,0.1-0.3,0.1-0.5c0.1-0.2,0.1-0.5,0.2-0.7c0.1-0.3,0.2-0.5,0.2-0.8c0.1-0.3,0.2-0.5,0.3-0.8h1.4h1.4V9.9H58   c0.1-0.5,0.2-0.9,0.4-1.4c0.2-0.5,0.3-0.8,0.4-1c0.1-0.3,0.2-0.6,0.4-0.8s0.3-0.5,0.5-0.7c0.2-0.2,0.4-0.4,0.7-0.5s0.6-0.2,0.9-0.2   c0.1,0,0.2,0,0.3,0.1c0.1,0,0.2,0.1,0.2,0.3c-0.1,0.2-0.3,0.3-0.4,0.4c-0.2,0.1-0.3,0.3-0.5,0.4c-0.1,0.1-0.3,0.2-0.4,0.4   c-0.1,0.1-0.2,0.3-0.2,0.5c0,0.2,0.1,0.5,0.2,0.7c0.1,0.2,0.4,0.4,0.7,0.4c0.3,0,0.5-0.1,0.7-0.2c0.2-0.1,0.4-0.3,0.5-0.5   c0.1-0.2,0.3-0.4,0.3-0.6C62.9,6.7,63,6.5,63,6.3C63,5.8,62.8,5.4,62.4,5z"/>
</g>
</svg><svg version="1.1" id="Layer_1" x="0px" y="0px" viewBox="0 0 70.9 70.9" style="enable-background:new 0 0 70.9 70.9;" xml:space="preserve">
<g>
	<path d="M22,56.9l-0.3,1.4h0c0.2-0.4,0.5-0.8,0.9-1.1c0.4-0.3,0.8-0.4,1.4-0.4h0.2c0,0,0.1,0,0.1,0c0,0,0.1,0,0.1,0l-0.2,0.8   c-0.1,0-0.1,0-0.2,0c-0.1,0-0.1,0-0.2,0c-0.3,0-0.6,0.1-0.9,0.2c-0.3,0.1-0.5,0.3-0.7,0.5c-0.2,0.2-0.4,0.5-0.5,0.7   c-0.1,0.3-0.2,0.6-0.3,0.8l-0.7,3.2H20l1.3-6.2H22z"/>
	<path d="M25,57.8c0.2-0.3,0.4-0.5,0.6-0.6s0.5-0.3,0.8-0.4s0.6-0.1,0.9-0.1c0.2,0,0.4,0,0.7,0.1s0.5,0.1,0.7,0.2   c0.2,0.1,0.4,0.2,0.5,0.4s0.2,0.4,0.2,0.7c0,0.2,0,0.3,0,0.5c0,0.2-0.1,0.4-0.1,0.6c0,0.2-0.1,0.4-0.1,0.6s-0.1,0.3-0.1,0.5   c-0.1,0.3-0.1,0.6-0.2,0.9c-0.1,0.2-0.1,0.4-0.1,0.6c0,0.2-0.1,0.3-0.1,0.4c0,0.1,0,0.2,0,0.3c0,0.1,0,0.2,0.1,0.2   c0.1,0,0.2,0,0.3,0c0.1,0,0.1,0,0.2,0c0,0,0.1,0,0.1,0l-0.1,0.6c-0.2,0-0.4,0.1-0.6,0.1c-0.4,0-0.6-0.2-0.7-0.7c0-0.1,0-0.1,0-0.2   c0-0.1,0-0.1,0-0.2l0,0c-0.2,0.4-0.5,0.6-0.9,0.8s-0.8,0.3-1.2,0.3c-0.3,0-0.6,0-0.8-0.1c-0.2-0.1-0.4-0.2-0.6-0.3   c-0.2-0.1-0.3-0.3-0.4-0.5c-0.1-0.2-0.2-0.5-0.2-0.8c0-0.3,0.1-0.6,0.2-0.8c0.1-0.2,0.3-0.4,0.5-0.6c0.2-0.1,0.4-0.3,0.7-0.3   s0.5-0.2,0.8-0.2c0.4-0.1,0.8-0.1,1.1-0.1s0.6,0,0.9-0.1c0.2-0.1,0.4-0.2,0.6-0.3s0.2-0.5,0.2-0.9c0-0.2,0-0.3-0.1-0.5   s-0.2-0.2-0.3-0.3c-0.1-0.1-0.3-0.1-0.4-0.1c-0.2,0-0.3,0-0.5,0c-0.2,0-0.5,0-0.7,0.1c-0.2,0-0.4,0.1-0.6,0.2   c-0.2,0.1-0.3,0.3-0.4,0.4c-0.1,0.2-0.2,0.4-0.2,0.7h-0.8C24.7,58.4,24.8,58.1,25,57.8z M28.4,59.7c-0.1,0.1-0.2,0.1-0.3,0.2   C28,60,27.9,60,27.8,60c-0.1,0-0.3,0-0.4,0s-0.2,0-0.3,0c-0.2,0-0.5,0-0.8,0.1c-0.3,0-0.5,0.1-0.8,0.2s-0.5,0.2-0.6,0.4   s-0.3,0.4-0.3,0.8c0,0.2,0,0.4,0.1,0.5c0.1,0.1,0.2,0.3,0.3,0.3s0.3,0.2,0.4,0.2s0.3,0.1,0.5,0.1c0.6,0,1.1-0.2,1.5-0.5   s0.6-0.8,0.7-1.3L28.4,59.7L28.4,59.7z"/>
	<path d="M32.6,54.5l-1.8,8.6H30l1.8-8.6H32.6z"/>
	<path d="M34.8,54.5L33,63.1h-0.7l1.8-8.6H34.8z"/>
	<path d="M35.5,60.7c0,0.3,0,0.5,0.1,0.8c0.1,0.2,0.2,0.4,0.3,0.6c0.1,0.2,0.3,0.3,0.6,0.4c0.2,0.1,0.5,0.2,0.8,0.2   c0.5,0,0.9-0.1,1.3-0.4c0.4-0.3,0.6-0.7,0.7-1.1h0.8c-0.2,0.7-0.5,1.2-1,1.6s-1.1,0.6-1.8,0.6c-0.8,0-1.5-0.2-1.9-0.7   c-0.4-0.5-0.6-1.1-0.6-1.9c0-0.5,0.1-1,0.2-1.4c0.1-0.5,0.4-0.9,0.7-1.3c0.3-0.4,0.6-0.7,1.1-0.9c0.4-0.2,0.9-0.3,1.4-0.3   c0.4,0,0.7,0.1,1,0.2c0.3,0.1,0.5,0.3,0.7,0.5s0.4,0.5,0.5,0.8c0.1,0.3,0.2,0.6,0.2,1c0,0.2,0,0.4,0,0.5s0,0.4,0,0.5h-4.8   C35.5,60.3,35.5,60.5,35.5,60.7z M39.7,59.3c0-0.1,0-0.2,0-0.2c0-0.5-0.2-0.9-0.5-1.3c-0.3-0.3-0.7-0.5-1.2-0.5   c-0.3,0-0.6,0.1-0.9,0.2c-0.3,0.1-0.5,0.3-0.7,0.5s-0.4,0.4-0.5,0.7c-0.1,0.3-0.2,0.5-0.3,0.8h4C39.7,59.5,39.7,59.4,39.7,59.3z"/>
	<path d="M42.7,56.9L42.5,58h0c0.2-0.4,0.5-0.7,0.9-0.9s0.8-0.4,1.3-0.4c0.3,0,0.5,0,0.8,0.1c0.2,0.1,0.4,0.2,0.6,0.3   c0.2,0.1,0.3,0.3,0.4,0.5s0.1,0.5,0.1,0.8c0,0.2,0,0.4-0.1,0.7l-0.9,4h-0.8l0.9-4c0-0.1,0-0.2,0.1-0.3c0-0.1,0-0.2,0-0.3   c0-0.2,0-0.4-0.1-0.5c-0.1-0.1-0.2-0.3-0.3-0.3c-0.1-0.1-0.3-0.2-0.4-0.2s-0.3-0.1-0.5-0.1c-0.3,0-0.5,0.1-0.8,0.2   s-0.5,0.3-0.7,0.5c-0.2,0.2-0.4,0.5-0.6,0.8c-0.2,0.3-0.3,0.7-0.4,1.1l-0.7,3.2h-0.7l1.3-6.2H42.7z"/>
	<path d="M47.8,61.8h1l-0.3,1.3h-1L47.8,61.8z"/>
</g>
</svg></svg>
