<?xml version='1.0' encoding='ASCII' standalone='yes'?>
<svg xmlns="http://www.w3.org/2000/svg" xmlns:xlink="http://www.w3.org/1999/xlink" version="1.1" id="Layer_1" x="0px" y="0px" viewBox="0 0 70.87 70.87" style="enable-background:new 0 0 70.87 70.87;" xml:space="preserve">
<style type="text/css">
	.st0{fill:#231F20;}
</style>
<g>
	<path class="st0" d="M31.22,40.91c0.06,0.44,0.22,0.83,0.49,1.16c0.27,0.34,0.62,0.6,1.06,0.8c0.44,0.2,0.96,0.29,1.55,0.29   c0.58,0,1.16-0.09,1.75-0.27c0.59-0.18,1.13-0.43,1.64-0.76s0.95-0.71,1.34-1.15c0.39-0.44,0.68-0.91,0.87-1.41   s0.25-0.98,0.18-1.41s-0.23-0.82-0.49-1.15c-0.26-0.33-0.62-0.59-1.06-0.78c-0.45-0.2-0.97-0.29-1.57-0.29   c-0.6,0-1.19,0.09-1.76,0.27c-0.58,0.18-1.12,0.43-1.62,0.76c-0.5,0.33-0.95,0.71-1.33,1.13c-0.38,0.43-0.67,0.9-0.85,1.4   C31.23,40,31.17,40.47,31.22,40.91z"/>
	<path class="st0" d="M31.23,32.24c0.06,0.44,0.22,0.83,0.49,1.16c0.27,0.34,0.62,0.6,1.06,0.8c0.44,0.2,0.96,0.29,1.55,0.29   c0.58,0,1.16-0.09,1.75-0.27c0.59-0.18,1.13-0.43,1.64-0.76s0.95-0.71,1.34-1.15c0.39-0.44,0.68-0.91,0.87-1.41   s0.25-0.98,0.18-1.41s-0.23-0.82-0.49-1.15c-0.26-0.33-0.62-0.59-1.06-0.78c-0.45-0.2-0.97-0.29-1.57-0.29   c-0.6,0-1.19,0.09-1.76,0.27c-0.58,0.18-1.12,0.43-1.62,0.76c-0.5,0.33-0.95,0.71-1.33,1.13c-0.38,0.43-0.67,0.9-0.85,1.4   C31.24,31.33,31.17,31.8,31.23,32.24z"/>
</g>
<svg version="1.1" id="Layer_1" x="0px" y="0px" viewBox="0 0 70.9 70.9" style="enable-background:new 0 0 70.9 70.9;" xml:space="preserve">
<g id="Layer_1_1_">
</g>
<g>
	<polyline points="6.4,9.3 20.8,9.3 20.8,8.3 6.4,8.3  "/>
	<polyline points="6.4,14.3 20.8,14.3 20.8,11.3 6.4,11.3  "/>
	<polyline points="6.4,17.3 20.8,17.3 20.8,16.3 6.4,16.3  "/>
</g>
</svg><svg version="1.1" id="Layer_1" x="0px" y="0px" viewBox="0 0 70.87 70.87" style="enable-background:new 0 0 70.87 70.87;" xml:space="preserve">
</svg><svg version="1.1" id="Layer_1" x="0px" y="0px" viewBox="0 0 70.9 70.9" style="enable-background:new 0 0 70.9 70.9;" xml:space="preserve">
<g>
	<path d="M67.6,65c0-0.7-0.3-1.4-0.7-2c-0.8-1.1-2.2-2-4-2.8c-5.5-2.5-15.3-4.1-26.5-4.1c-8.5,0-16.3,1-22,2.5   c-2.8,0.8-5.1,1.7-6.8,2.7c-0.8,0.5-1.5,1.1-1.9,1.7c-0.5,0.6-0.7,1.3-0.7,2h1c0-0.4,0.2-0.9,0.5-1.4c0.6-0.8,1.9-1.7,3.7-2.5   c5.3-2.4,15.1-4,26.2-4c8.5,0,16.1,0.9,21.6,2.5c2.8,0.8,5,1.6,6.5,2.6c0.7,0.5,1.3,1,1.7,1.5c0.4,0.5,0.5,0.9,0.5,1.4H67.6   L67.6,65z"/>
</g>
</svg></svg>
