<?xml version="1.0" encoding="UTF-8" standalone="no"?>
<!DOCTYPE svg PUBLIC "-//W3C//DTD SVG 1.1//EN"
 "http://www.w3.org/Graphics/SVG/1.1/DTD/svg11.dtd">
<!-- Generated by graphviz version 2.44.1 (20200629.0846)
 -->
<!-- Pages: 1 -->
<svg width="1191pt" height="781pt"
 viewBox="0.00 0.00 1191.14 780.83" xmlns="http://www.w3.org/2000/svg" xmlns:xlink="http://www.w3.org/1999/xlink">
<g id="graph0" class="graph" transform="scale(1 1) rotate(0) translate(14.4 766.43)">
<polygon fill="white" stroke="transparent" points="-14.4,14.4 -14.4,-766.43 1176.74,-766.43 1176.74,14.4 -14.4,14.4"/>
<!-- 3 -->
<g id="node1" class="node">
<title>3</title>
<polygon fill="none" stroke="black" points="705.42,-483.65 650.42,-483.65 650.42,-428.65 705.42,-428.65 705.42,-483.65"/>
<image xlink:href="12.svg" width="55px" height="55px" preserveAspectRatio="xMinYMin meet" x="650.417" y="-483.649"/>
</g>
<!-- 17 -->
<g id="node2" class="node">
<title>17</title>
<polygon fill="none" stroke="black" points="478.42,-526.24 423.42,-526.24 423.42,-471.24 478.42,-471.24 478.42,-526.24"/>
<image xlink:href="4.svg" width="55px" height="55px" preserveAspectRatio="xMinYMin meet" x="423.418" y="-526.242"/>
</g>
<!-- 3&#45;&gt;17 -->
<g id="edge1" class="edge">
<title>3&#45;&gt;17</title>
<path fill="none" stroke="black" d="M650.08,-480C650.08,-480 483.62,-480 483.62,-480"/>
<polygon fill="black" stroke="black" points="483.62,-478.25 478.62,-480 483.62,-481.75 483.62,-478.25"/>
</g>
<!-- 12 -->
<g id="node3" class="node">
<title>12</title>
<polygon fill="none" stroke="black" points="881.69,-411.73 826.69,-411.73 826.69,-356.73 881.69,-356.73 881.69,-411.73"/>
<image xlink:href="3.svg" width="55px" height="55px" preserveAspectRatio="xMinYMin meet" x="826.692" y="-411.727"/>
</g>
<!-- 3&#45;&gt;12 -->
<g id="edge3" class="edge">
<title>3&#45;&gt;12</title>
<path fill="none" stroke="black" d="M705.56,-440C749.56,-440 830.59,-440 830.59,-440 830.59,-440 830.59,-416.79 830.59,-416.79"/>
<polygon fill="black" stroke="black" points="832.34,-416.79 830.59,-411.79 828.84,-416.79 832.34,-416.79"/>
</g>
<!-- 2 -->
<g id="node7" class="node">
<title>2</title>
<polygon fill="none" stroke="black" points="838.38,-588.25 783.38,-588.25 783.38,-533.25 838.38,-533.25 838.38,-588.25"/>
<image xlink:href="13.svg" width="55px" height="55px" preserveAspectRatio="xMinYMin meet" x="783.376" y="-588.245"/>
</g>
<!-- 3&#45;&gt;2 -->
<g id="edge11" class="edge">
<title>3&#45;&gt;2</title>
<path fill="none" stroke="black" d="M705.43,-471C744.73,-471 812.25,-471 812.25,-471 812.25,-471 812.25,-527.84 812.25,-527.84"/>
<polygon fill="black" stroke="black" points="810.5,-527.84 812.25,-532.84 814,-527.84 810.5,-527.84"/>
</g>
<!-- 8 -->
<g id="node8" class="node">
<title>8</title>
<polygon fill="none" stroke="black" points="543.01,-417.7 488.01,-417.7 488.01,-362.7 543.01,-362.7 543.01,-417.7"/>
<image xlink:href="9.svg" width="55px" height="55px" preserveAspectRatio="xMinYMin meet" x="488.01" y="-417.703"/>
</g>
<!-- 3&#45;&gt;8 -->
<g id="edge13" class="edge">
<title>3&#45;&gt;8</title>
<path fill="none" stroke="black" d="M650.17,-457C606.01,-457 524.68,-457 524.68,-457 524.68,-457 524.68,-422.76 524.68,-422.76"/>
<polygon fill="black" stroke="black" points="526.43,-422.76 524.68,-417.76 522.93,-422.76 526.43,-422.76"/>
</g>
<!-- 17&#45;&gt;3 -->
<g id="edge2" class="edge">
<title>17&#45;&gt;3</title>
<path fill="none" stroke="black" d="M478.75,-477C478.75,-477 645.21,-477 645.21,-477"/>
<polygon fill="black" stroke="black" points="645.21,-478.75 650.21,-477 645.21,-475.25 645.21,-478.75"/>
</g>
<!-- 1 -->
<g id="node10" class="node">
<title>1</title>
<polygon fill="none" stroke="black" points="458.62,-638.52 403.62,-638.52 403.62,-583.52 458.62,-583.52 458.62,-638.52"/>
<image xlink:href="11.svg" width="55px" height="55px" preserveAspectRatio="xMinYMin meet" x="403.624" y="-638.517"/>
</g>
<!-- 17&#45;&gt;1 -->
<g id="edge17" class="edge">
<title>17&#45;&gt;1</title>
<path fill="none" stroke="black" d="M446.89,-526.5C446.89,-526.5 446.89,-578.19 446.89,-578.19"/>
<polygon fill="black" stroke="black" points="445.14,-578.19 446.89,-583.19 448.64,-578.19 445.14,-578.19"/>
</g>
<!-- 10 -->
<g id="node15" class="node">
<title>10</title>
<polygon fill="none" stroke="black" points="371.13,-416.08 316.13,-416.08 316.13,-361.08 371.13,-361.08 371.13,-416.08"/>
<image xlink:href="0.svg" width="55px" height="55px" preserveAspectRatio="xMinYMin meet" x="316.134" y="-416.08"/>
</g>
<!-- 17&#45;&gt;10 -->
<g id="edge26" class="edge">
<title>17&#45;&gt;10</title>
<path fill="none" stroke="black" d="M432.45,-471.21C432.45,-441.39 432.45,-398 432.45,-398 432.45,-398 376.25,-398 376.25,-398"/>
<polygon fill="black" stroke="black" points="376.25,-396.25 371.25,-398 376.25,-399.75 376.25,-396.25"/>
</g>
<!-- 4 -->
<g id="node4" class="node">
<title>4</title>
<polygon fill="none" stroke="black" points="931.36,-507.89 876.36,-507.89 876.36,-452.89 931.36,-452.89 931.36,-507.89"/>
<image xlink:href="16.svg" width="55px" height="55px" preserveAspectRatio="xMinYMin meet" x="876.364" y="-507.89"/>
</g>
<!-- 12&#45;&gt;4 -->
<g id="edge4" class="edge">
<title>12&#45;&gt;4</title>
<path fill="none" stroke="black" d="M857.37,-412.07C857.37,-433.33 857.37,-459 857.37,-459 857.37,-459 871.28,-459 871.28,-459"/>
<polygon fill="black" stroke="black" points="871.28,-460.75 876.28,-459 871.28,-457.25 871.28,-460.75"/>
</g>
<!-- 4&#45;&gt;3 -->
<g id="edge10" class="edge">
<title>4&#45;&gt;3</title>
<path fill="none" stroke="black" d="M876.16,-465C876.16,-465 710.5,-465 710.5,-465"/>
<polygon fill="black" stroke="black" points="710.5,-463.25 705.5,-465 710.5,-466.75 710.5,-463.25"/>
</g>
<!-- 6 -->
<g id="node5" class="node">
<title>6</title>
<polygon fill="none" stroke="black" points="1142.56,-464.76 1087.56,-464.76 1087.56,-409.76 1142.56,-409.76 1142.56,-464.76"/>
<image xlink:href="15.svg" width="55px" height="55px" preserveAspectRatio="xMinYMin meet" x="1087.56" y="-464.756"/>
</g>
<!-- 4&#45;&gt;6 -->
<g id="edge5" class="edge">
<title>4&#45;&gt;6</title>
<path fill="none" stroke="black" d="M931.47,-456C931.47,-456 1082.44,-456 1082.44,-456"/>
<polygon fill="black" stroke="black" points="1082.44,-457.75 1087.44,-456 1082.44,-454.25 1082.44,-457.75"/>
</g>
<!-- 7 -->
<g id="node6" class="node">
<title>7</title>
<polygon fill="none" stroke="black" points="1035.69,-618.34 980.69,-618.34 980.69,-563.34 1035.69,-563.34 1035.69,-618.34"/>
<image xlink:href="14.svg" width="55px" height="55px" preserveAspectRatio="xMinYMin meet" x="980.69" y="-618.34"/>
</g>
<!-- 4&#45;&gt;7 -->
<g id="edge7" class="edge">
<title>4&#45;&gt;7</title>
<path fill="none" stroke="black" d="M903.86,-508.07C903.86,-534.72 903.86,-571 903.86,-571 903.86,-571 975.51,-571 975.51,-571"/>
<polygon fill="black" stroke="black" points="975.51,-572.75 980.51,-571 975.51,-569.25 975.51,-572.75"/>
</g>
<!-- 6&#45;&gt;4 -->
<g id="edge6" class="edge">
<title>6&#45;&gt;4</title>
<path fill="none" stroke="black" d="M1087.45,-460C1087.45,-460 936.48,-460 936.48,-460"/>
<polygon fill="black" stroke="black" points="936.48,-458.25 931.48,-460 936.48,-461.75 936.48,-458.25"/>
</g>
<!-- 7&#45;&gt;2 -->
<g id="edge8" class="edge">
<title>7&#45;&gt;2</title>
<path fill="none" stroke="black" d="M980.34,-579C980.34,-579 843.59,-579 843.59,-579"/>
<polygon fill="black" stroke="black" points="843.59,-577.25 838.59,-579 843.59,-580.75 843.59,-577.25"/>
</g>
<!-- 2&#45;&gt;3 -->
<g id="edge12" class="edge">
<title>2&#45;&gt;3</title>
<path fill="none" stroke="black" d="M797.81,-532.86C797.81,-508.5 797.81,-477 797.81,-477 797.81,-477 710.42,-477 710.42,-477"/>
<polygon fill="black" stroke="black" points="710.42,-475.25 705.42,-477 710.42,-478.75 710.42,-475.25"/>
</g>
<!-- 2&#45;&gt;4 -->
<g id="edge9" class="edge">
<title>2&#45;&gt;4</title>
<path fill="none" stroke="black" d="M834.48,-533.24C834.48,-515.23 834.48,-495 834.48,-495 834.48,-495 871.04,-495 871.04,-495"/>
<polygon fill="black" stroke="black" points="871.04,-496.75 876.04,-495 871.04,-493.25 871.04,-496.75"/>
</g>
<!-- 8&#45;&gt;17 -->
<g id="edge16" class="edge">
<title>8&#45;&gt;17</title>
<path fill="none" stroke="black" d="M506.34,-418.11C506.34,-442.48 506.34,-474 506.34,-474 506.34,-474 483.63,-474 483.63,-474"/>
<polygon fill="black" stroke="black" points="483.63,-472.25 478.63,-474 483.63,-475.75 483.63,-472.25"/>
</g>
<!-- 14 -->
<g id="node9" class="node">
<title>14</title>
<polygon fill="none" stroke="black" points="496.49,-277.79 441.49,-277.79 441.49,-222.79 496.49,-222.79 496.49,-277.79"/>
<image xlink:href="6.svg" width="55px" height="55px" preserveAspectRatio="xMinYMin meet" x="441.487" y="-277.788"/>
</g>
<!-- 8&#45;&gt;14 -->
<g id="edge14" class="edge">
<title>8&#45;&gt;14</title>
<path fill="none" stroke="black" d="M487.98,-380C485.11,-380 483.21,-380 483.21,-380 483.21,-380 483.21,-282.8 483.21,-282.8"/>
<polygon fill="black" stroke="black" points="484.96,-282.8 483.21,-277.8 481.46,-282.8 484.96,-282.8"/>
</g>
<!-- 14&#45;&gt;8 -->
<g id="edge15" class="edge">
<title>14&#45;&gt;8</title>
<path fill="none" stroke="black" d="M490.13,-277.93C490.13,-277.93 490.13,-357.62 490.13,-357.62"/>
<polygon fill="black" stroke="black" points="488.38,-357.62 490.13,-362.62 491.88,-357.62 488.38,-357.62"/>
</g>
<!-- 5 -->
<g id="node16" class="node">
<title>5</title>
<polygon fill="none" stroke="black" points="621.25,-354.7 566.25,-354.7 566.25,-299.7 621.25,-299.7 621.25,-354.7"/>
<image xlink:href="17.svg" width="55px" height="55px" preserveAspectRatio="xMinYMin meet" x="566.254" y="-354.697"/>
</g>
<!-- 14&#45;&gt;5 -->
<g id="edge33" class="edge">
<title>14&#45;&gt;5</title>
<path fill="none" stroke="black" d="M492.25,-277.98C492.25,-299.96 492.25,-327 492.25,-327 492.25,-327 561.02,-327 561.02,-327"/>
<polygon fill="black" stroke="black" points="561.02,-328.75 566.02,-327 561.02,-325.25 561.02,-328.75"/>
</g>
<!-- 15 -->
<g id="node17" class="node">
<title>15</title>
<polygon fill="none" stroke="black" points="452.29,-158.76 397.29,-158.76 397.29,-103.76 452.29,-103.76 452.29,-158.76"/>
<image xlink:href="7.svg" width="55px" height="55px" preserveAspectRatio="xMinYMin meet" x="397.286" y="-158.755"/>
</g>
<!-- 14&#45;&gt;15 -->
<g id="edge29" class="edge">
<title>14&#45;&gt;15</title>
<path fill="none" stroke="black" d="M445.09,-222.68C445.09,-222.68 445.09,-164.13 445.09,-164.13"/>
<polygon fill="black" stroke="black" points="446.84,-164.13 445.09,-159.13 443.34,-164.13 446.84,-164.13"/>
</g>
<!-- 16 -->
<g id="node11" class="node">
<title>16</title>
<polygon fill="none" stroke="black" points="290.51,-612.65 235.51,-612.65 235.51,-557.65 290.51,-557.65 290.51,-612.65"/>
<image xlink:href="5.svg" width="55px" height="55px" preserveAspectRatio="xMinYMin meet" x="235.508" y="-612.655"/>
</g>
<!-- 1&#45;&gt;16 -->
<g id="edge18" class="edge">
<title>1&#45;&gt;16</title>
<path fill="none" stroke="black" d="M403.36,-598C403.36,-598 295.53,-598 295.53,-598"/>
<polygon fill="black" stroke="black" points="295.53,-596.25 290.53,-598 295.53,-599.75 295.53,-596.25"/>
</g>
<!-- 16&#45;&gt;17 -->
<g id="edge25" class="edge">
<title>16&#45;&gt;17</title>
<path fill="none" stroke="black" d="M290.67,-570C339.33,-570 435.15,-570 435.15,-570 435.15,-570 435.15,-531.5 435.15,-531.5"/>
<polygon fill="black" stroke="black" points="436.9,-531.5 435.15,-526.5 433.4,-531.5 436.9,-531.5"/>
</g>
<!-- 11 -->
<g id="node12" class="node">
<title>11</title>
<polygon fill="none" stroke="black" points="302.89,-752.03 247.89,-752.03 247.89,-697.03 302.89,-697.03 302.89,-752.03"/>
<image xlink:href="1.svg" width="55px" height="55px" preserveAspectRatio="xMinYMin meet" x="247.891" y="-752.034"/>
</g>
<!-- 16&#45;&gt;11 -->
<g id="edge19" class="edge">
<title>16&#45;&gt;11</title>
<path fill="none" stroke="black" d="M262.1,-612.69C262.1,-612.69 262.1,-691.58 262.1,-691.58"/>
<polygon fill="black" stroke="black" points="260.35,-691.58 262.1,-696.58 263.85,-691.58 260.35,-691.58"/>
</g>
<!-- 0 -->
<g id="node13" class="node">
<title>0</title>
<polygon fill="none" stroke="black" points="74.78,-567.01 19.78,-567.01 19.78,-512.01 74.78,-512.01 74.78,-567.01"/>
<image xlink:href="10.svg" width="55px" height="55px" preserveAspectRatio="xMinYMin meet" x="19.7799" y="-567.005"/>
</g>
<!-- 16&#45;&gt;0 -->
<g id="edge21" class="edge">
<title>16&#45;&gt;0</title>
<path fill="none" stroke="black" d="M235.25,-560C235.25,-560 79.93,-560 79.93,-560"/>
<polygon fill="black" stroke="black" points="79.93,-558.25 74.93,-560 79.93,-561.75 79.93,-558.25"/>
</g>
<!-- 9 -->
<g id="node14" class="node">
<title>9</title>
<polygon fill="none" stroke="black" points="117.72,-685.13 62.72,-685.13 62.72,-630.13 117.72,-630.13 117.72,-685.13"/>
<image xlink:href="8.svg" width="55px" height="55px" preserveAspectRatio="xMinYMin meet" x="62.7175" y="-685.133"/>
</g>
<!-- 16&#45;&gt;9 -->
<g id="edge23" class="edge">
<title>16&#45;&gt;9</title>
<path fill="none" stroke="black" d="M243.76,-612.7C243.76,-624.23 243.76,-635 243.76,-635 243.76,-635 123.02,-635 123.02,-635"/>
<polygon fill="black" stroke="black" points="123.02,-633.25 118.02,-635 123.02,-636.75 123.02,-633.25"/>
</g>
<!-- 11&#45;&gt;16 -->
<g id="edge20" class="edge">
<title>11&#45;&gt;16</title>
<path fill="none" stroke="black" d="M276.3,-697C276.3,-697 276.3,-618.11 276.3,-618.11"/>
<polygon fill="black" stroke="black" points="278.05,-618.11 276.3,-613.11 274.55,-618.11 278.05,-618.11"/>
</g>
<!-- 0&#45;&gt;16 -->
<g id="edge22" class="edge">
<title>0&#45;&gt;16</title>
<path fill="none" stroke="black" d="M75.04,-563C75.04,-563 230.35,-563 230.35,-563"/>
<polygon fill="black" stroke="black" points="230.35,-564.75 235.35,-563 230.35,-561.25 230.35,-564.75"/>
</g>
<!-- 9&#45;&gt;16 -->
<g id="edge24" class="edge">
<title>9&#45;&gt;16</title>
<path fill="none" stroke="black" d="M117.97,-632C161.18,-632 239.64,-632 239.64,-632 239.64,-632 239.64,-617.68 239.64,-617.68"/>
<polygon fill="black" stroke="black" points="241.39,-617.68 239.64,-612.68 237.89,-617.68 241.39,-617.68"/>
</g>
<!-- 10&#45;&gt;5 -->
<g id="edge27" class="edge">
<title>10&#45;&gt;5</title>
<path fill="none" stroke="black" d="M329.65,-360.88C329.65,-349.97 329.65,-340 329.65,-340 329.65,-340 560.99,-340 560.99,-340"/>
<polygon fill="black" stroke="black" points="560.99,-341.75 565.99,-340 560.99,-338.25 560.99,-341.75"/>
</g>
<!-- 5&#45;&gt;3 -->
<g id="edge34" class="edge">
<title>5&#45;&gt;3</title>
<path fill="none" stroke="black" d="M593.75,-354.99C593.75,-388.96 593.75,-442 593.75,-442 593.75,-442 645.36,-442 645.36,-442"/>
<polygon fill="black" stroke="black" points="645.36,-443.75 650.36,-442 645.36,-440.25 645.36,-443.75"/>
</g>
<!-- 5&#45;&gt;14 -->
<g id="edge28" class="edge">
<title>5&#45;&gt;14</title>
<path fill="none" stroke="black" d="M566.07,-313C536.66,-313 494.37,-313 494.37,-313 494.37,-313 494.37,-282.98 494.37,-282.98"/>
<polygon fill="black" stroke="black" points="496.12,-282.98 494.37,-277.98 492.62,-282.98 496.12,-282.98"/>
</g>
<!-- 15&#45;&gt;14 -->
<g id="edge32" class="edge">
<title>15&#45;&gt;14</title>
<path fill="none" stroke="black" d="M448.69,-158.86C448.69,-158.86 448.69,-217.42 448.69,-217.42"/>
<polygon fill="black" stroke="black" points="446.94,-217.42 448.69,-222.42 450.44,-217.42 446.94,-217.42"/>
</g>
<!-- 13 -->
<g id="node18" class="node">
<title>13</title>
<polygon fill="none" stroke="black" points="370.21,-55 315.21,-55 315.21,0 370.21,0 370.21,-55"/>
<image xlink:href="2.svg" width="55px" height="55px" preserveAspectRatio="xMinYMin meet" x="315.208" y="-55"/>
</g>
<!-- 15&#45;&gt;13 -->
<g id="edge30" class="edge">
<title>15&#45;&gt;13</title>
<path fill="none" stroke="black" d="M397.09,-122C378.24,-122 356.69,-122 356.69,-122 356.69,-122 356.69,-60.09 356.69,-60.09"/>
<polygon fill="black" stroke="black" points="358.44,-60.09 356.69,-55.09 354.94,-60.09 358.44,-60.09"/>
</g>
<!-- 13&#45;&gt;15 -->
<g id="edge31" class="edge">
<title>13&#45;&gt;15</title>
<path fill="none" stroke="black" d="M343.17,-55.02C343.17,-88.33 343.17,-140 343.17,-140 343.17,-140 392.15,-140 392.15,-140"/>
<polygon fill="black" stroke="black" points="392.15,-141.75 397.15,-140 392.15,-138.25 392.15,-141.75"/>
</g>
</g>
</svg>
