<?xml version="1.0" encoding="UTF-8" standalone="no"?>
<!DOCTYPE svg PUBLIC "-//W3C//DTD SVG 1.1//EN"
 "http://www.w3.org/Graphics/SVG/1.1/DTD/svg11.dtd">
<!-- Generated by graphviz version 2.44.1 (20200629.0846)
 -->
<!-- Pages: 1 -->
<svg width="216pt" height="216pt"
 viewBox="0.00 0.00 215.88 215.88" xmlns="http://www.w3.org/2000/svg" xmlns:xlink="http://www.w3.org/1999/xlink">
<g id="graph0" class="graph" transform="scale(1 1) rotate(0) translate(14.4 201.48)">
<polygon fill="white" stroke="transparent" points="-14.4,14.4 -14.4,-201.48 201.48,-201.48 201.48,14.4 -14.4,14.4"/>
<!-- 0 -->
<g id="node1" class="node">
<title>0</title>
<polygon fill="none" stroke="black" points="187.08,-18.75 133.74,-18.75 133.74,0 187.08,0 187.08,-18.75"/>
<image xlink:href="12.svg" width="53.3333px" height="18.75px" preserveAspectRatio="xMinYMin meet" x="133.744" y="-18.75"/>
</g>
<!-- 1 -->
<g id="node2" class="node">
<title>1</title>
<polygon fill="none" stroke="black" points="62.36,-187.08 31.18,-187.08 31.18,-155.01 62.36,-155.01 62.36,-187.08"/>
<image xlink:href="9.svg" width="31.1805px" height="32.0713px" preserveAspectRatio="xMinYMin meet" x="31.1805" y="-187.083"/>
</g>
<!-- 2 -->
<g id="node3" class="node">
<title>2</title>
<polygon fill="none" stroke="black" points="93.54,-187.08 62.36,-187.08 62.36,-155.01 93.54,-155.01 93.54,-187.08"/>
<image xlink:href="12.svg" width="31.1805px" height="32.0713px" preserveAspectRatio="xMinYMin meet" x="62.361" y="-187.083"/>
</g>
<!-- 3 -->
<g id="node4" class="node">
<title>3</title>
<polygon fill="none" stroke="black" points="124.72,-187.08 93.54,-187.08 93.54,-155.01 124.72,-155.01 124.72,-187.08"/>
<image xlink:href="4.svg" width="31.1805px" height="32.0713px" preserveAspectRatio="xMinYMin meet" x="93.5416" y="-187.083"/>
</g>
<!-- 4 -->
<g id="node5" class="node">
<title>4</title>
<polygon fill="none" stroke="black" points="155.9,-187.08 124.72,-187.08 124.72,-155.01 155.9,-155.01 155.9,-187.08"/>
<image xlink:href="13.svg" width="31.1805px" height="32.0713px" preserveAspectRatio="xMinYMin meet" x="124.722" y="-187.083"/>
</g>
<!-- 5 -->
<g id="node6" class="node">
<title>5</title>
<polygon fill="none" stroke="black" points="187.08,-187.08 155.9,-187.08 155.9,-155.01 187.08,-155.01 187.08,-187.08"/>
<image xlink:href="15.svg" width="31.1805px" height="32.0713px" preserveAspectRatio="xMinYMin meet" x="155.903" y="-187.083"/>
</g>
<!-- 6 -->
<g id="node7" class="node">
<title>6</title>
<polygon fill="none" stroke="black" points="32.26,-155.01 0,-155.01 0,-124.01 32.26,-124.01 32.26,-155.01"/>
<image xlink:href="13.svg" width="32.2556px" height="31.0024px" preserveAspectRatio="xMinYMin meet" x="0" y="-155.012"/>
</g>
<!-- 7 -->
<g id="node8" class="node">
<title>7</title>
<polygon fill="none" stroke="black" points="32.26,-124.01 0,-124.01 0,-93.01 32.26,-93.01 32.26,-124.01"/>
<image xlink:href="16.svg" width="32.2556px" height="31.0024px" preserveAspectRatio="xMinYMin meet" x="0" y="-124.009"/>
</g>
<!-- 8 -->
<g id="node9" class="node">
<title>8</title>
<polygon fill="none" stroke="black" points="32.26,-93.01 0,-93.01 0,-62 32.26,-62 32.26,-93.01"/>
<image xlink:href="10.svg" width="32.2556px" height="31.0024px" preserveAspectRatio="xMinYMin meet" x="0" y="-93.0071"/>
</g>
<!-- 9 -->
<g id="node10" class="node">
<title>9</title>
<polygon fill="none" stroke="black" points="32.26,-62 0,-62 0,-31 32.26,-31 32.26,-62"/>
<image xlink:href="13.svg" width="32.2556px" height="31.0024px" preserveAspectRatio="xMinYMin meet" x="0" y="-62.0047"/>
</g>
<!-- 10 -->
<g id="node11" class="node">
<title>10</title>
<polygon fill="none" stroke="black" points="32.26,-31 0,-31 0,0 32.26,0 32.26,-31"/>
<image xlink:href="12.svg" width="32.2556px" height="31.0024px" preserveAspectRatio="xMinYMin meet" x="0" y="-31.0024"/>
</g>
<!-- 11 -->
<g id="node12" class="node">
<title>11</title>
<polygon fill="none" stroke="black" points="63.22,-155.01 32.26,-155.01 32.26,-122.72 63.22,-122.72 63.22,-155.01"/>
<image xlink:href="10.svg" width="30.9655px" height="32.294px" preserveAspectRatio="xMinYMin meet" x="32.2556" y="-155.012"/>
</g>
<!-- 12 -->
<g id="node13" class="node">
<title>12</title>
<polygon fill="none" stroke="black" points="94.19,-155.01 63.22,-155.01 63.22,-122.72 94.19,-122.72 94.19,-155.01"/>
<image xlink:href="12.svg" width="30.9655px" height="32.294px" preserveAspectRatio="xMinYMin meet" x="63.2211" y="-155.012"/>
</g>
<!-- 13 -->
<g id="node14" class="node">
<title>13</title>
<polygon fill="none" stroke="black" points="125.15,-155.01 94.19,-155.01 94.19,-122.72 125.15,-122.72 125.15,-155.01"/>
<image xlink:href="17.svg" width="30.9655px" height="32.294px" preserveAspectRatio="xMinYMin meet" x="94.1866" y="-155.012"/>
</g>
<!-- 14 -->
<g id="node15" class="node">
<title>14</title>
<polygon fill="none" stroke="black" points="156.12,-155.01 125.15,-155.01 125.15,-122.72 156.12,-122.72 156.12,-155.01"/>
<image xlink:href="6.svg" width="30.9655px" height="32.294px" preserveAspectRatio="xMinYMin meet" x="125.152" y="-155.012"/>
</g>
<!-- 15 -->
<g id="node16" class="node">
<title>15</title>
<polygon fill="none" stroke="black" points="187.08,-155.01 156.12,-155.01 156.12,-122.72 187.08,-122.72 187.08,-155.01"/>
<image xlink:href="17.svg" width="30.9655px" height="32.294px" preserveAspectRatio="xMinYMin meet" x="156.118" y="-155.012"/>
</g>
<!-- 16 -->
<g id="node17" class="node">
<title>16</title>
<polygon fill="none" stroke="black" points="64.85,-122.72 32.26,-122.72 32.26,-92.04 64.85,-92.04 64.85,-122.72"/>
<image xlink:href="9.svg" width="32.5951px" height="30.6795px" preserveAspectRatio="xMinYMin meet" x="32.2556" y="-122.718"/>
</g>
<!-- 17 -->
<g id="node18" class="node">
<title>17</title>
<polygon fill="none" stroke="black" points="64.85,-92.04 32.26,-92.04 32.26,-61.36 64.85,-61.36 64.85,-92.04"/>
<image xlink:href="1.svg" width="32.5951px" height="30.6795px" preserveAspectRatio="xMinYMin meet" x="32.2556" y="-92.0384"/>
</g>
<!-- 18 -->
<g id="node19" class="node">
<title>18</title>
<polygon fill="none" stroke="black" points="64.85,-61.36 32.26,-61.36 32.26,-30.68 64.85,-30.68 64.85,-61.36"/>
<image xlink:href="8.svg" width="32.5951px" height="30.6795px" preserveAspectRatio="xMinYMin meet" x="32.2556" y="-61.3589"/>
</g>
<!-- 19 -->
<g id="node20" class="node">
<title>19</title>
<polygon fill="none" stroke="black" points="64.85,-30.68 32.26,-30.68 32.26,0 64.85,0 64.85,-30.68"/>
<image xlink:href="2.svg" width="32.5951px" height="30.6795px" preserveAspectRatio="xMinYMin meet" x="32.2556" y="-30.6795"/>
</g>
<!-- 20 -->
<g id="node21" class="node">
<title>20</title>
<polygon fill="none" stroke="black" points="95.41,-122.72 64.85,-122.72 64.85,-89.99 95.41,-89.99 95.41,-122.72"/>
<image xlink:href="8.svg" width="30.5581px" height="32.7245px" preserveAspectRatio="xMinYMin meet" x="64.8507" y="-122.718"/>
</g>
<!-- 21 -->
<g id="node22" class="node">
<title>21</title>
<polygon fill="none" stroke="black" points="125.97,-122.72 95.41,-122.72 95.41,-89.99 125.97,-89.99 125.97,-122.72"/>
<image xlink:href="0.svg" width="30.5581px" height="32.7245px" preserveAspectRatio="xMinYMin meet" x="95.4088" y="-122.718"/>
</g>
<!-- 22 -->
<g id="node23" class="node">
<title>22</title>
<polygon fill="none" stroke="black" points="156.53,-122.72 125.97,-122.72 125.97,-89.99 156.53,-89.99 156.53,-122.72"/>
<image xlink:href="8.svg" width="30.5581px" height="32.7245px" preserveAspectRatio="xMinYMin meet" x="125.967" y="-122.718"/>
</g>
<!-- 23 -->
<g id="node24" class="node">
<title>23</title>
<polygon fill="none" stroke="black" points="187.08,-122.72 156.53,-122.72 156.53,-89.99 187.08,-89.99 187.08,-122.72"/>
<image xlink:href="18.svg" width="30.5581px" height="32.7245px" preserveAspectRatio="xMinYMin meet" x="156.525" y="-122.718"/>
</g>
<!-- 24 -->
<g id="node25" class="node">
<title>24</title>
<polygon fill="none" stroke="black" points="98.19,-89.99 64.85,-89.99 64.85,-60 98.19,-60 98.19,-89.99"/>
<image xlink:href="8.svg" width="33.3358px" height="29.9978px" preserveAspectRatio="xMinYMin meet" x="64.8507" y="-89.9933"/>
</g>
<!-- 25 -->
<g id="node26" class="node">
<title>25</title>
<polygon fill="none" stroke="black" points="98.19,-60 64.85,-60 64.85,-30 98.19,-30 98.19,-60"/>
<image xlink:href="9.svg" width="33.3358px" height="29.9978px" preserveAspectRatio="xMinYMin meet" x="64.8507" y="-59.9955"/>
</g>
<!-- 26 -->
<g id="node27" class="node">
<title>26</title>
<polygon fill="none" stroke="black" points="98.19,-30 64.85,-30 64.85,0 98.19,0 98.19,-30"/>
<image xlink:href="19.svg" width="33.3358px" height="29.9978px" preserveAspectRatio="xMinYMin meet" x="64.8507" y="-29.9978"/>
</g>
<!-- 27 -->
<g id="node28" class="node">
<title>27</title>
<polygon fill="none" stroke="black" points="127.82,-89.99 98.19,-89.99 98.19,-56.25 127.82,-56.25 127.82,-89.99"/>
<image xlink:href="14.svg" width="29.6322px" height="33.7471px" preserveAspectRatio="xMinYMin meet" x="98.1865" y="-89.9933"/>
</g>
<!-- 28 -->
<g id="node29" class="node">
<title>28</title>
<polygon fill="none" stroke="black" points="157.45,-89.99 127.82,-89.99 127.82,-56.25 157.45,-56.25 157.45,-89.99"/>
<image xlink:href="6.svg" width="29.6322px" height="33.7471px" preserveAspectRatio="xMinYMin meet" x="127.819" y="-89.9933"/>
</g>
<!-- 29 -->
<g id="node30" class="node">
<title>29</title>
<polygon fill="none" stroke="black" points="187.08,-89.99 157.45,-89.99 157.45,-56.25 187.08,-56.25 187.08,-89.99"/>
<image xlink:href="7.svg" width="29.6322px" height="33.7471px" preserveAspectRatio="xMinYMin meet" x="157.451" y="-89.9933"/>
</g>
<!-- 30 -->
<g id="node31" class="node">
<title>30</title>
<polygon fill="none" stroke="black" points="133.74,-56.25 98.19,-56.25 98.19,-28.12 133.74,-28.12 133.74,-56.25"/>
<image xlink:href="5.svg" width="35.5579px" height="28.1231px" preserveAspectRatio="xMinYMin meet" x="98.1865" y="-56.2462"/>
</g>
<!-- 31 -->
<g id="node32" class="node">
<title>31</title>
<polygon fill="none" stroke="black" points="133.74,-28.12 98.19,-28.12 98.19,0 133.74,0 133.74,-28.12"/>
<image xlink:href="7.svg" width="35.5579px" height="28.1231px" preserveAspectRatio="xMinYMin meet" x="98.1865" y="-28.1231"/>
</g>
<!-- 32 -->
<g id="node33" class="node">
<title>32</title>
<polygon fill="none" stroke="black" points="160.41,-56.25 133.74,-56.25 133.74,-18.75 160.41,-18.75 160.41,-56.25"/>
<image xlink:href="6.svg" width="26.6693px" height="37.4962px" preserveAspectRatio="xMinYMin meet" x="133.744" y="-56.2462"/>
</g>
<!-- 33 -->
<g id="node34" class="node">
<title>33</title>
<polygon fill="none" stroke="black" points="187.08,-56.25 160.41,-56.25 160.41,-18.75 187.08,-18.75 187.08,-56.25"/>
<image xlink:href="14.svg" width="26.6693px" height="37.4962px" preserveAspectRatio="xMinYMin meet" x="160.414" y="-56.2462"/>
</g>
<!-- 34 -->
<g id="node35" class="node">
<title>34</title>
<polygon fill="none" stroke="black" points="31.18,-187.08 0,-187.08 0,-155.01 31.18,-155.01 31.18,-187.08"/>
<image xlink:href="12.svg" width="31.1805px" height="32.0713px" preserveAspectRatio="xMinYMin meet" x="0" y="-187.083"/>
</g>
</g>
</svg>
