<?xml version="1.0" encoding="utf-8"?>
<!-- Generator: Adobe Illustrator 25.2.0, SVG Export Plug-In . SVG Version: 6.00 Build 0)  -->
<svg version="1.1" id="Layer_1" xmlns="http://www.w3.org/2000/svg" xmlns:xlink="http://www.w3.org/1999/xlink" x="0px" y="0px"
	 viewBox="0 0 70.9 70.9" style="enable-background:new 0 0 70.9 70.9;" xml:space="preserve">
<style type="text/css">
	.st0{fill:#231F20;}
</style>
<path class="st0" d="M31.1,41.5c0.1,0.4,0.2,0.8,0.5,1.2c0.3,0.3,0.6,0.6,1.1,0.8c0.4,0.2,1,0.3,1.5,0.3c0.6,0,1.2-0.1,1.8-0.3
	s1.1-0.4,1.6-0.8s1-0.7,1.3-1.2c0.4-0.4,0.7-0.9,0.9-1.4s0.2-1,0.2-1.4s-0.2-0.8-0.5-1.2c-0.3-0.3-0.6-0.6-1.1-0.8
	c-0.5-0.2-1-0.3-1.6-0.3s-1.2,0.1-1.8,0.3c-0.6,0.2-1.1,0.4-1.6,0.8c-0.5,0.3-1,0.7-1.3,1.1c-0.4,0.4-0.7,0.9-0.9,1.4
	C31.1,40.6,31,41,31.1,41.5z"/>
<g>
	<path class="st0" d="M32.2,30.5c0.3,0.3,0.6,0.4,1,0.4c0.4,0,0.8-0.1,1-0.4c0.3-0.3,0.4-0.6,0.4-1s-0.1-0.7-0.4-1s-0.6-0.4-1-0.4
		s-0.8,0.1-1,0.4s-0.4,0.6-0.4,1C31.8,29.9,31.9,30.3,32.2,30.5z"/>
	<path class="st0" d="M36.8,30.5c0.3,0.3,0.6,0.4,1,0.4c0.4,0,0.8-0.1,1-0.4c0.3-0.3,0.4-0.6,0.4-1s-0.1-0.7-0.4-1s-0.6-0.4-1-0.4
		s-0.8,0.1-1,0.4s-0.4,0.6-0.4,1C36.3,29.9,36.5,30.3,36.8,30.5z"/>
</g>
</svg>
