<?xml version="1.0" encoding="utf-8"?>
<!-- Generator: Adobe Illustrator 25.2.0, SVG Export Plug-In . SVG Version: 6.00 Build 0)  -->
<svg version="1.1" id="Layer_1" xmlns="http://www.w3.org/2000/svg" xmlns:xlink="http://www.w3.org/1999/xlink" x="0px" y="0px"
	 viewBox="0 0 70.9 70.9" style="enable-background:new 0 0 70.9 70.9;" xml:space="preserve">
<g>
	<path d="M29.7,34.4c0.2-0.3,0.3-0.7,0.7-1c0.3-0.3,0.7-0.5,1-0.8c0.3-0.2,0.7-0.3,1.2-0.5s0.8-0.2,1.3-0.2c0.5,0,0.8,0,1.2,0.2
		c0.3,0.2,0.5,0.3,0.8,0.5c0.2,0.2,0.3,0.5,0.3,0.8c0,0.3,0,0.7-0.2,1c-0.2,0.3-0.3,0.7-0.7,1c-0.3,0.3-0.7,0.7-1,0.8
		s-0.7,0.3-1.2,0.5c-0.5,0.2-0.8,0.2-1.3,0.2c-0.5,0-0.8,0-1.2-0.2s-0.5-0.3-0.8-0.5c-0.2-0.2-0.3-0.5-0.3-0.8
		C29.6,35.1,29.6,34.8,29.7,34.4z"/>
</g>
<g>
	<path d="M35.2,36.1c0.2-0.3,0.3-0.7,0.7-1s0.7-0.5,1-0.8c0.3-0.2,0.7-0.3,1.2-0.5s0.8-0.2,1.3-0.2s0.8,0,1.2,0.2
		c0.3,0.2,0.5,0.3,0.8,0.5c0.2,0.2,0.3,0.5,0.3,0.8s0,0.7-0.2,1c-0.2,0.3-0.3,0.7-0.7,1c-0.3,0.3-0.7,0.7-1,0.8s-0.7,0.3-1.2,0.5
		c-0.5,0.2-0.8,0.2-1.3,0.2s-0.8,0-1.2-0.2c-0.3-0.2-0.5-0.3-0.8-0.5c-0.2-0.2-0.3-0.5-0.3-0.8S35.1,36.4,35.2,36.1z"/>
</g>
<g>
	<path d="M35.2,30.2c0.2-0.3,0.3-0.7,0.7-1c0.3-0.3,0.7-0.5,1-0.8c0.3-0.2,0.7-0.3,1.2-0.5s0.8-0.2,1.3-0.2s0.8,0,1.2,0.2
		c0.3,0.2,0.5,0.3,0.8,0.5c0.2,0.2,0.3,0.5,0.3,0.8c0,0.3,0,0.7-0.2,1c-0.2,0.3-0.3,0.7-0.7,1c-0.3,0.3-0.7,0.7-1,0.8
		c-0.3,0.2-0.7,0.3-1.2,0.5c-0.5,0.2-0.8,0.2-1.3,0.2s-0.8,0-1.2-0.2s-0.5-0.3-0.8-0.5c-0.2-0.2-0.3-0.5-0.3-0.8
		C35.1,30.9,35.1,30.6,35.2,30.2z"/>
</g>
<g>
	<path d="M34.7,39.5c0.5,0.6,1.1,1.2,1.7,1.7c0.6,0.5,1.3,1.1,2.1,1.6l-4,3.3c-0.5-0.6-1-1.1-1.6-1.6c-0.6-0.5-1.3-1.1-2.2-1.8
		L34.7,39.5z M32.1,42.3l2.9,2.5l2-1.7l-2.9-2.5L32.1,42.3z"/>
</g>
</svg>
