<?xml version="1.0" encoding="utf-8"?>
<!-- Generator: Adobe Illustrator 25.2.0, SVG Export Plug-In . SVG Version: 6.00 Build 0)  -->
<svg version="1.1" id="Layer_1" xmlns="http://www.w3.org/2000/svg" xmlns:xlink="http://www.w3.org/1999/xlink" x="0px" y="0px"
	 viewBox="0 0 70.9 70.9" style="enable-background:new 0 0 70.9 70.9;" xml:space="preserve">
<g>
	<path d="M36.4,38c0,0.4-0.1,0.8-0.4,1c-0.3,0.3-0.6,0.4-1,0.4c-0.4,0-0.8-0.1-1-0.4c-0.3-0.3-0.4-0.6-0.4-1c0-0.4,0.1-0.7,0.4-1
		c0.3-0.3,0.6-0.4,1-0.4c0.4,0,0.7,0.1,1,0.4S36.4,37.6,36.4,38z"/>
</g>
<g>
	<path d="M34.9,26.4l-5.6,13h1.2L35,28.8l4.5,10.6h1.1l-5.4-13H34.9z"/>
</g>
</svg>
