<?xml version="1.0" encoding="utf-8"?>
<!-- Generator: Adobe Illustrator 25.2.0, SVG Export Plug-In . SVG Version: 6.00 Build 0)  -->
<svg version="1.1" id="Layer_1" xmlns="http://www.w3.org/2000/svg" xmlns:xlink="http://www.w3.org/1999/xlink" x="0px" y="0px"
	 viewBox="0 0 70.9 70.9" style="enable-background:new 0 0 70.9 70.9;" xml:space="preserve">
<style type="text/css">
	.st0{fill:#231F20;}
</style>
<path class="st0" d="M29.7,45.2c0.1,0.4,0.2,0.8,0.5,1.2c0.3,0.3,0.6,0.6,1.1,0.8c0.4,0.2,1,0.3,1.5,0.3c0.6,0,1.2-0.1,1.8-0.3
	s1.1-0.4,1.6-0.8s1-0.7,1.3-1.2c0.4-0.4,0.7-0.9,0.9-1.4s0.2-1,0.2-1.4s-0.2-0.8-0.5-1.2c-0.3-0.3-0.6-0.6-1.1-0.8
	c-0.5-0.2-1-0.3-1.6-0.3s-1.2,0.1-1.8,0.3c-0.6,0.2-1.1,0.4-1.6,0.8c-0.5,0.3-1,0.7-1.3,1.1c-0.4,0.4-0.7,0.9-0.9,1.4
	C29.7,44.3,29.6,44.8,29.7,45.2z"/>
<path class="st0" d="M30.8,32.8c0.1,0.4,0.1,0.8,0.1,1.2c0,0.4-0.1,0.8-0.3,1.1c-0.2,0.3-0.5,0.5-0.9,0.5c-0.1,0-0.2-0.1-0.3-0.2
	c-0.1-0.1-0.1-0.2-0.1-0.3c0-0.1,0-0.3,0.2-0.6c0.1-0.3,0.2-0.6,0.4-0.9c0.1-0.3,0.3-0.6,0.4-1c0.1-0.3,0.3-0.5,0.3-0.7
	C30.6,32.1,30.7,32.4,30.8,32.8z M29,31.9c-0.2,0.2-0.5,0.3-0.7,0.3c-0.2,0-0.4,0-0.6,0c-0.2-0.1-0.3-0.1-0.4-0.3
	c-0.1-0.1-0.2-0.2-0.2-0.3c0-0.2-0.1-0.3,0-0.5c0-0.2,0.1-0.4,0.2-0.6c0.1-0.2,0.3-0.3,0.5-0.4s0.4-0.2,0.7-0.2
	c0.4,0,0.7,0.1,0.9,0.3c0.2,0.2,0.3,0.4,0.3,0.5L29,31.9z M38.1,30.7c-0.1-0.3-0.1-0.4-0.2-0.5c-0.2-0.2-0.4-0.4-0.7-0.4
	c-0.3,0-0.5,0-0.8,0.1s-0.5,0.2-0.8,0.4c-0.2,0.1-0.4,0.3-0.6,0.4c-0.2-0.6-0.6-0.9-1.1-1s-1,0-1.6,0.2c-0.2,0.1-0.4,0.2-0.6,0.4
	s-0.4,0.3-0.6,0.4c0.2-0.6,0.5-1.1,0.7-1.7s0.5-1.1,0.7-1.7c-0.1,0-0.2,0-0.4,0s-0.3,0-0.5,0c-0.2,0-0.4,0-0.6,0
	c-0.1,0.3-0.2,0.7-0.4,1c-0.1,0.3-0.2,0.6-0.3,0.9c-0.1,0.3-0.2,0.6-0.3,0.8c-0.1,0-0.2-0.1-0.4-0.2s-0.4-0.1-0.6-0.2
	s-0.5-0.1-0.8,0s-0.6,0.1-0.9,0.3c-0.1,0.1-0.3,0.2-0.4,0.4c-0.1,0.1-0.2,0.3-0.3,0.5c-0.1,0.2-0.1,0.5-0.1,0.7
	c0,0.3,0.1,0.5,0.2,0.8c0.1,0.3,0.4,0.5,0.7,0.6s0.7,0.1,1.2,0c0,0.1-0.1,0.3-0.2,0.4c-0.1,0.2-0.1,0.4-0.2,0.5
	c-0.1,0.2-0.1,0.4-0.1,0.6c0,0.2-0.1,0.4-0.1,0.5c0,0.4,0.1,0.8,0.4,1.1s0.6,0.5,1.1,0.5c0.4,0,0.8-0.1,1-0.4
	c0.3-0.2,0.5-0.5,0.6-0.9c0.1-0.3,0.2-0.7,0.3-1.2c0.1-0.5,0-1-0.1-1.5c0-0.2-0.1-0.4-0.1-0.6s-0.1-0.4-0.2-0.6
	c0.1,0,0.3-0.1,0.5-0.3s0.5-0.3,0.8-0.4c0.3-0.1,0.5-0.2,0.8-0.2c0.2,0,0.4,0.1,0.6,0.3c0.1,0.2,0,0.8-0.4,1.7
	c-0.2,0.4-0.4,0.9-0.6,1.3s-0.4,0.9-0.6,1.3c-0.2,0.5-0.5,0.9-0.7,1.4h1.7c0.3-0.6,0.5-1.2,0.8-1.7c0.2-0.5,0.4-0.9,0.6-1.3
	s0.3-0.7,0.4-0.9c0.1-0.2,0.2-0.3,0.2-0.5c0.1-0.2,0.2-0.4,0.3-0.5c0.1-0.2,0.2-0.3,0.3-0.5s0.3-0.2,0.4-0.3c0.1,0,0.2,0,0.2,0.1
	c0,0.1,0,0.2,0,0.4c0,0.1,0,0.3,0,0.5c0,0.2,0,0.3,0.1,0.4c0,0.1,0.1,0.1,0.3,0.2c0.1,0,0.3,0.1,0.4,0.1c0.2,0,0.3,0,0.4-0.1
	s0.3-0.2,0.4-0.4C38.1,31.2,38.1,30.9,38.1,30.7z"/>
<path d="M43.7,28.9l-0.1,0c-0.1,0.2-0.2,0.4-0.4,0.6c-0.2,0.1-0.4,0.2-0.6,0.2c0,0-0.2,0-0.3-0.1c-0.2-0.1-0.4-0.2-0.7-0.2
	s-0.5-0.1-0.8-0.1s-0.6,0-0.9,0.2c0-0.1,0.1-0.1,0.2-0.2s0.3-0.2,0.5-0.2s0.4-0.2,0.6-0.2c0.2-0.1,0.4-0.2,0.6-0.2s0.4-0.1,0.6-0.2
	c0.2-0.1,0.3-0.1,0.4-0.1c0.3-0.1,0.6-0.3,0.9-0.6c0.2-0.3,0.3-0.5,0.3-0.9c0-0.5-0.1-0.9-0.3-1.2c-0.2-0.3-0.4-0.5-0.7-0.6
	s-0.6-0.2-0.9-0.2c-0.3,0-0.6,0-0.8,0c-0.3,0-0.6,0-0.9,0.1c-0.3,0.1-0.6,0.2-0.8,0.4c-0.2,0.2-0.5,0.4-0.6,0.6
	c-0.2,0.2-0.2,0.5-0.3,0.8c0,0.1,0,0.3,0,0.5c0,0.2,0.1,0.3,0.2,0.5c0.1,0.1,0.2,0.3,0.4,0.4s0.3,0.1,0.6,0.1c0.2,0,0.3,0,0.5-0.1
	s0.2-0.2,0.3-0.3c0.1-0.1,0.1-0.2,0.2-0.4c0-0.1,0-0.3,0-0.4c-0.1-0.2-0.1-0.3-0.2-0.4c-0.1-0.1-0.2-0.2-0.3-0.3S40,25.7,40,25.6
	l-0.1-0.2c0-0.1,0.1-0.2,0.2-0.3s0.2-0.2,0.3-0.2c0.1-0.1,0.2-0.1,0.3-0.1c0.1,0,0.2-0.1,0.2-0.1c0.2,0,0.3,0,0.5,0.1
	c0.2,0.1,0.3,0.2,0.4,0.3s0.2,0.3,0.3,0.5c0.1,0.2,0.1,0.4,0.1,0.6c0,0.2,0,0.4-0.1,0.6s-0.1,0.3-0.3,0.5s-0.4,0.4-0.6,0.5
	c-0.3,0.2-0.7,0.5-1.1,0.7c-0.2,0.1-0.5,0.4-0.7,0.6s-0.5,0.6-0.6,1c0,0.1,0,0.2-0.1,0.4c0,0.2-0.1,0.4,0,0.7h0.3
	c0.1-0.2,0.2-0.4,0.4-0.5c0.2-0.1,0.4-0.2,0.7-0.2c0.2,0,0.3,0,0.5,0.1s0.3,0.2,0.5,0.3c0.2,0.1,0.3,0.2,0.5,0.3s0.4,0.1,0.6,0.1
	c0.3,0,0.5-0.1,0.8-0.2c0.2-0.1,0.4-0.3,0.5-0.6s0.3-0.5,0.4-0.8s0.2-0.6,0.2-0.8L43.7,28.9z"/>
</svg>
