<?xml version="1.0" encoding="utf-8"?>
<!-- Generator: Adobe Illustrator 25.0.0, SVG Export Plug-In . SVG Version: 6.00 Build 0)  -->
<svg version="1.1" id="Layer_1" xmlns="http://www.w3.org/2000/svg" xmlns:xlink="http://www.w3.org/1999/xlink" x="0px" y="0px"
	 viewBox="0 0 70.87 70.87" style="enable-background:new 0 0 70.87 70.87;" xml:space="preserve">
<style type="text/css">
	.st0{fill:#231F20;}
</style>
<g>
	<path class="st0" d="M39.7,32.07c-0.26-0.6-0.62-1.12-1.08-1.57c-0.46-0.44-0.99-0.79-1.6-1.04c-0.61-0.25-1.25-0.38-1.93-0.38
		s-1.31,0.13-1.91,0.38s-1.12,0.6-1.57,1.04c-0.44,0.44-0.79,0.97-1.04,1.57c-0.25,0.6-0.38,1.24-0.38,1.91
		c0,0.7,0.13,1.34,0.38,1.93c0.25,0.59,0.6,1.11,1.04,1.57c0.44,0.46,0.97,0.81,1.57,1.06s1.24,0.38,1.91,0.38s1.31-0.13,1.93-0.38
		c0.61-0.25,1.15-0.61,1.6-1.06c0.46-0.46,0.82-0.98,1.08-1.57c0.26-0.59,0.4-1.23,0.4-1.93C40.1,33.3,39.96,32.67,39.7,32.07z
		 M38.8,35.52c-0.22,0.48-0.5,0.9-0.86,1.26c-0.36,0.36-0.79,0.65-1.28,0.86c-0.49,0.22-1.01,0.32-1.57,0.32s-1.07-0.11-1.55-0.32
		c-0.48-0.22-0.9-0.5-1.26-0.86c-0.36-0.36-0.64-0.78-0.85-1.26c-0.21-0.48-0.31-1-0.31-1.55s0.1-1.07,0.31-1.55
		c0.2-0.48,0.49-0.9,0.85-1.26c0.36-0.36,0.78-0.65,1.26-0.86c0.48-0.22,1-0.32,1.55-0.32s1.07,0.11,1.57,0.32
		c0.49,0.22,0.92,0.5,1.28,0.86c0.36,0.36,0.65,0.78,0.86,1.26c0.22,0.48,0.32,1,0.32,1.55S39.02,35.04,38.8,35.52z"/>
	<path class="st0" d="M39.7,32.07l0.23-0.1c-0.28-0.63-0.66-1.18-1.13-1.64c-0.48-0.47-1.04-0.83-1.68-1.1
		c-0.64-0.26-1.32-0.4-2.02-0.4c-0.7,0-1.38,0.13-2.01,0.4c-0.63,0.26-1.18,0.63-1.65,1.1s-0.83,1.02-1.1,1.65
		c-0.26,0.63-0.4,1.3-0.4,2.01c0,0.73,0.13,1.4,0.4,2.02c0.26,0.62,0.63,1.16,1.09,1.64c0.47,0.48,1.02,0.85,1.65,1.12
		c0.63,0.26,1.3,0.4,2.01,0.4c0.7,0,1.38-0.13,2.02-0.4c0.64-0.26,1.21-0.64,1.68-1.12c0.48-0.48,0.86-1.03,1.13-1.64
		c0.28-0.62,0.42-1.3,0.42-2.03c0-0.7-0.14-1.38-0.42-2.01L39.7,32.07l-0.23,0.1c0.25,0.57,0.37,1.17,0.38,1.81
		c0,0.66-0.13,1.27-0.37,1.82c-0.25,0.56-0.59,1.06-1.03,1.49c-0.43,0.43-0.94,0.77-1.52,1.01c-0.58,0.24-1.19,0.36-1.83,0.36
		c-0.64,0-1.24-0.12-1.81-0.36c-0.57-0.24-1.06-0.57-1.48-1.01c-0.42-0.43-0.75-0.93-0.99-1.49c-0.24-0.56-0.36-1.16-0.36-1.83
		c0-0.64,0.12-1.24,0.36-1.81c0.24-0.57,0.57-1.06,0.99-1.49c0.42-0.42,0.91-0.75,1.49-0.99c0.57-0.24,1.17-0.36,1.81-0.36
		c0.64,0,1.25,0.12,1.83,0.36c0.58,0.24,1.09,0.57,1.52,0.99c0.43,0.42,0.77,0.92,1.03,1.49L39.7,32.07z M38.8,35.52l-0.23-0.1
		c-0.2,0.45-0.47,0.85-0.81,1.19c-0.34,0.34-0.74,0.61-1.2,0.81c-0.46,0.2-0.95,0.3-1.47,0.3c-0.52,0-1-0.1-1.45-0.3
		c-0.46-0.2-0.85-0.47-1.19-0.81c-0.34-0.34-0.6-0.73-0.79-1.18c-0.19-0.45-0.29-0.93-0.29-1.45c0-0.52,0.1-1,0.29-1.45
		c0.19-0.45,0.46-0.84,0.79-1.18c0.34-0.34,0.73-0.61,1.19-0.81c0.45-0.2,0.93-0.3,1.45-0.3c0.52,0,1,0.1,1.47,0.3
		c0.46,0.21,0.86,0.48,1.2,0.81c0.34,0.34,0.61,0.73,0.81,1.19c0.2,0.45,0.3,0.93,0.3,1.45c0,0.52-0.1,1-0.3,1.45L38.8,35.52
		l0.23,0.1c0.23-0.51,0.35-1.07,0.35-1.65c0-0.58-0.12-1.14-0.35-1.65c-0.23-0.51-0.53-0.95-0.92-1.33
		c-0.38-0.38-0.84-0.69-1.35-0.92c-0.52-0.23-1.08-0.35-1.67-0.34c-0.58,0-1.14,0.11-1.65,0.35c-0.51,0.23-0.95,0.53-1.33,0.92
		c-0.38,0.38-0.68,0.83-0.9,1.34c-0.22,0.51-0.33,1.06-0.33,1.65c0,0.58,0.11,1.13,0.33,1.65c0.21,0.51,0.52,0.96,0.9,1.34
		c0.38,0.38,0.83,0.69,1.33,0.92c0.51,0.23,1.07,0.35,1.65,0.35c0.58,0,1.14-0.12,1.67-0.35c0.52-0.23,0.97-0.53,1.35-0.92
		c0.38-0.38,0.69-0.83,0.92-1.33L38.8,35.52z"/>
</g>
</svg>
