<?xml version="1.0" encoding="utf-8"?>
<!-- Generator: Adobe Illustrator 25.0.0, SVG Export Plug-In . SVG Version: 6.00 Build 0)  -->
<svg version="1.1" id="Layer_1" xmlns="http://www.w3.org/2000/svg" xmlns:xlink="http://www.w3.org/1999/xlink" x="0px" y="0px"
	 viewBox="0 0 70.87 70.87" style="enable-background:new 0 0 70.87 70.87;" xml:space="preserve">
<style type="text/css">
	.st0{fill:#231F20;}
</style>
<g>
	<path class="st0" d="M27.08,41.52c0.06,0.44,0.22,0.83,0.49,1.16c0.27,0.34,0.62,0.6,1.06,0.8c0.44,0.2,0.96,0.29,1.55,0.29
		c0.58,0,1.16-0.09,1.75-0.27c0.59-0.18,1.13-0.43,1.64-0.76s0.95-0.71,1.34-1.15c0.39-0.44,0.68-0.91,0.87-1.41
		s0.25-0.98,0.18-1.41s-0.23-0.82-0.49-1.15c-0.26-0.33-0.62-0.59-1.06-0.78c-0.45-0.2-0.97-0.29-1.57-0.29
		c-0.6,0-1.19,0.09-1.76,0.27c-0.58,0.18-1.12,0.43-1.62,0.76c-0.5,0.33-0.95,0.71-1.33,1.13c-0.38,0.43-0.67,0.9-0.85,1.4
		C27.09,40.61,27.02,41.08,27.08,41.52z"/>
	<path class="st0" d="M35.08,29.77l1.72-1.53c0.07-0.07,0.16-0.17,0.27-0.29s0.22-0.19,0.34-0.19l0.18,0.08l0.21,0.19l0.18,0.19
		l0.08,0.1l1.3,1.41c0.1,0.11,0.18,0.2,0.24,0.26l0.19,0.17l0.14,0.07l0.13-0.06l0.17-0.14c0.06-0.05,0.13-0.12,0.23-0.2l2.83-2.65
		v-0.76l-1.05,1.01l-0.12,0.09l-0.17,0.16l-0.18,0.15l-0.13,0.06l-0.15-0.08l-0.2-0.19l-0.18-0.19l-0.11-0.11l-1.6-1.81
		c-0.07-0.08-0.15-0.18-0.23-0.29s-0.15-0.17-0.21-0.17c-0.07,0-0.16,0.05-0.26,0.16c-0.1,0.11-0.21,0.21-0.33,0.3l-1.74,1.6
		l-0.1,0.09l-0.18,0.16l-0.19,0.15l-0.16,0.06l-0.14-0.08l-0.18-0.18l-0.16-0.18l-0.09-0.11l-1.24-1.47
		c-0.1-0.11-0.19-0.23-0.27-0.36c-0.08-0.13-0.16-0.19-0.23-0.19c-0.04,0-0.13,0.07-0.26,0.2c-0.13,0.13-0.22,0.22-0.26,0.26
		l-1.72,1.6c-0.1,0.08-0.2,0.18-0.29,0.28c-0.1,0.1-0.18,0.16-0.23,0.16c-0.06,0-0.14-0.06-0.24-0.18c-0.1-0.12-0.17-0.19-0.18-0.22
		l-1.58-1.64c-0.08-0.1-0.16-0.19-0.23-0.27l-0.19-0.19l-0.13-0.08l-0.15,0.07l-0.21,0.16l-0.25,0.21l-2.77,2.65v0.76l1.07-1.01
		l0.1-0.11l0.19-0.17l0.21-0.15l0.15-0.06l0.13,0.08l0.18,0.19l0.17,0.2l0.07,0.12l1.7,1.85c0.08,0.08,0.16,0.18,0.23,0.29
		c0.07,0.11,0.14,0.17,0.21,0.17c0.07,0,0.15-0.06,0.25-0.17c0.1-0.11,0.2-0.22,0.31-0.32l1.53-1.51l0.09-0.09l0.16-0.16l0.18-0.15
		l0.14-0.06l0.09,0.06l0.16,0.15l0.15,0.16l0.06,0.09l1.39,1.51c0.1,0.11,0.18,0.2,0.23,0.26l0.18,0.17l0.14,0.07l0.14-0.07
		l0.19-0.15C34.88,29.94,34.97,29.87,35.08,29.77z"/>
</g>
</svg>
