<?xml version="1.0" encoding="utf-8"?>
<!-- Generator: Adobe Illustrator 25.0.0, SVG Export Plug-In . SVG Version: 6.00 Build 0)  -->
<svg version="1.1" id="Layer_1" xmlns="http://www.w3.org/2000/svg" xmlns:xlink="http://www.w3.org/1999/xlink" x="0px" y="0px"
	 viewBox="0 0 70.87 70.87" style="enable-background:new 0 0 70.87 70.87;" xml:space="preserve">
<style type="text/css">
	.st0{fill:#231F20;stroke:#000000;stroke-width:0.5;stroke-miterlimit:10;}
</style>
<g id="Layer_1_1_">
</g>
<g>
	<path class="st0" d="M29.35,38.78c0-4.45,1.16-8.47,2.99-11.36c1.85-2.89,4.33-4.59,7.02-4.59v-0.88c-3.08,0-5.82,1.95-7.76,5
		s-3.13,7.22-3.13,11.82H29.35L29.35,38.78z"/>
	<path class="st0" d="M38.93,22.39c0.01,5.51,1.99,10.27,4.99,12.36l0.5-0.72c-2.64-1.8-4.62-6.32-4.6-11.64L38.93,22.39
		L38.93,22.39z"/>
	<path class="st0" d="M43.87,34.16c-0.54-1.18-0.32-3.03,0.08-4.22c0.6,2.02,1.61,3.96,3.17,5.42c-2.13,0.06-4.12,0.97-5.95,2.04
		C41.76,36.19,42.63,34.77,43.87,34.16z"/>
	<path class="st0" d="M33.16,38.76h-7.29v7.29h7.29V38.76z M26.71,39.6h5.61v5.61h-5.61C26.71,45.21,26.71,39.6,26.71,39.6z"/>
	<path class="st0" d="M33.16,38.76v-0.14h-7.44v7.58h7.58v-7.58h-0.14L33.16,38.76h-0.14v7.15h-7v-7h7.15v-0.15h-0.14H33.16z
		 M26.71,39.6v0.14h5.46v5.32h-5.32V39.6L26.71,39.6v0.14V39.6h-0.14v5.75h5.9v-5.9h-5.9v0.14h0.14V39.6z"/>
</g>
</svg>
