<?xml version="1.0" encoding="utf-8"?>
<!-- Generator: Adobe Illustrator 25.0.0, SVG Export Plug-In . SVG Version: 6.00 Build 0)  -->
<svg version="1.1" id="Layer_1" xmlns="http://www.w3.org/2000/svg" xmlns:xlink="http://www.w3.org/1999/xlink" x="0px" y="0px"
	 viewBox="0 0 70.87 70.87" style="enable-background:new 0 0 70.87 70.87;" xml:space="preserve">
<style type="text/css">
	.st0{fill:#231F20;}
</style>
<g>
	<polygon class="st0" points="35.78,34.8 39.53,38.55 39.53,37.4 36.34,34.21 39.53,31.02 39.53,29.87 35.78,33.62 32,29.87 
		32,31.02 35.19,34.21 32,37.4 32,38.55 	"/>
	<polygon class="st0" points="35.78,34.8 35.52,35.06 39.91,39.46 39.91,37.25 36.87,34.21 39.91,31.17 39.91,29.87 39.91,28.97 
		35.78,33.09 31.63,28.97 31.63,31.17 34.66,34.21 31.63,37.25 31.63,38.55 31.63,39.45 36.05,35.07 35.78,34.8 35.52,35.06 
		35.78,34.8 35.52,34.53 32.38,37.65 32.38,37.56 35.72,34.21 32.38,30.86 32.38,30.77 35.78,34.15 39.16,30.78 39.16,30.86 
		35.81,34.21 39.16,37.56 39.16,37.64 35.78,34.27 35.52,34.53 	"/>
</g>
</svg>
