<?xml version="1.0" encoding="utf-8"?>
<!-- Generator: Adobe Illustrator 25.0.0, SVG Export Plug-In . SVG Version: 6.00 Build 0)  -->
<svg version="1.1" id="Layer_1" xmlns="http://www.w3.org/2000/svg" xmlns:xlink="http://www.w3.org/1999/xlink" x="0px" y="0px"
	 viewBox="0 0 70.87 70.87" style="enable-background:new 0 0 70.87 70.87;" xml:space="preserve">
<style type="text/css">
	.st0{fill:#231F20;}
</style>
<g>
	<path class="st0" d="M31.72,39.73c0.06,0.44,0.22,0.83,0.49,1.16c0.27,0.34,0.62,0.6,1.06,0.8c0.44,0.2,0.96,0.29,1.55,0.29
		c0.58,0,1.16-0.09,1.75-0.27c0.59-0.18,1.13-0.43,1.64-0.76s0.95-0.71,1.34-1.15c0.39-0.44,0.68-0.91,0.87-1.41
		s0.25-0.98,0.18-1.41s-0.23-0.82-0.49-1.15c-0.26-0.33-0.62-0.59-1.06-0.78c-0.45-0.2-0.97-0.29-1.57-0.29
		c-0.6,0-1.19,0.09-1.76,0.27c-0.58,0.18-1.12,0.43-1.62,0.76c-0.5,0.33-0.95,0.71-1.33,1.13c-0.38,0.43-0.67,0.9-0.85,1.4
		C31.73,38.82,31.66,39.29,31.72,39.73z"/>
	<polygon class="st0" points="31.69,29.33 35.55,29.33 35.55,33.22 36.11,33.22 36.11,29.33 39.98,29.33 39.98,28.8 36.11,28.8 
		36.11,24.93 35.55,24.93 35.55,28.8 31.69,28.8 	"/>
	<polygon class="st0" points="31.69,29.33 31.69,29.58 35.3,29.58 35.3,33.47 36.11,33.47 36.36,33.47 36.36,29.58 40.23,29.58 
		40.23,28.8 40.23,28.55 36.36,28.55 36.36,24.68 35.55,24.68 35.3,24.68 35.3,28.55 31.44,28.55 31.44,29.33 31.44,29.58 
		31.69,29.58 31.69,29.33 31.94,29.33 31.94,29.05 35.8,29.05 35.8,25.18 35.86,25.18 35.86,29.05 39.73,29.05 39.73,29.08 
		35.86,29.08 35.86,32.97 35.8,32.97 35.8,29.08 31.69,29.08 31.69,29.33 31.94,29.33 	"/>
</g>
</svg>
