<?xml version="1.0" encoding="utf-8"?>
<!-- Generator: Adobe Illustrator 25.0.0, SVG Export Plug-In . SVG Version: 6.00 Build 0)  -->
<svg version="1.1" id="Layer_1" xmlns="http://www.w3.org/2000/svg" xmlns:xlink="http://www.w3.org/1999/xlink" x="0px" y="0px"
	 viewBox="0 0 70.87 70.87" style="enable-background:new 0 0 70.87 70.87;" xml:space="preserve">
<style type="text/css">
	.st0{fill:#231F20;}
</style>
<g>
	<path class="st0" d="M39.88,36.65c-0.05,0.23-0.14,0.45-0.29,0.66c-0.15,0.21-0.33,0.39-0.55,0.56c-0.21,0.17-0.42,0.32-0.6,0.45
		c-0.3,0.21-0.57,0.38-0.83,0.53c-0.25,0.15-0.52,0.3-0.8,0.45s-0.56,0.3-0.83,0.45c-0.27,0.15-0.56,0.3-0.88,0.45
		c-0.22,0.11-0.47,0.21-0.73,0.31c-0.26,0.09-0.52,0.15-0.77,0.18c-0.25,0.03-0.49,0-0.71-0.07s-0.4-0.22-0.53-0.45
		c-0.13-0.22-0.17-0.45-0.13-0.69c0.05-0.23,0.14-0.45,0.29-0.66s0.33-0.39,0.55-0.56c0.21-0.17,0.42-0.32,0.63-0.45
		c0.56-0.37,1.11-0.71,1.65-1.01c0.28-0.15,0.55-0.3,0.8-0.45c0.25-0.15,0.54-0.3,0.85-0.45c0.22-0.11,0.47-0.21,0.73-0.31
		c0.26-0.09,0.52-0.15,0.77-0.17s0.49,0.01,0.7,0.08c0.21,0.07,0.4,0.22,0.55,0.45C39.88,36.19,39.92,36.41,39.88,36.65z
		 M39.88,34.91c-0.21-0.14-0.44-0.25-0.67-0.34c-0.23-0.08-0.46-0.14-0.69-0.17c-0.22-0.03-0.41-0.05-0.56-0.07
		c-0.78-0.09-1.49-0.06-2.11,0.08c-0.63,0.15-1.15,0.35-1.58,0.59c-0.43,0.26-0.89,0.63-1.37,1.09c-0.49,0.47-0.86,1.05-1.12,1.76
		c-0.06,0.15-0.11,0.32-0.17,0.52c-0.06,0.2-0.1,0.41-0.13,0.64s-0.03,0.48,0,0.73s0.12,0.5,0.27,0.74
		c0.13,0.22,0.31,0.41,0.55,0.56c0.23,0.15,0.48,0.27,0.73,0.36s0.5,0.16,0.76,0.2c0.25,0.04,0.47,0.06,0.66,0.08
		c1.27,0.11,2.36-0.07,3.28-0.53c0.43-0.21,0.91-0.58,1.43-1.12c0.52-0.54,0.91-1.17,1.18-1.88c0.06-0.13,0.11-0.31,0.17-0.53
		s0.1-0.46,0.13-0.71c0.03-0.25,0.03-0.5,0-0.76c-0.03-0.25-0.1-0.48-0.21-0.69C40.26,35.24,40.09,35.05,39.88,34.91z"/>
	<polygon class="st0" points="31.45,29.2 35.31,29.2 35.31,33.09 35.87,33.09 35.87,29.2 39.74,29.2 39.74,28.66 35.87,28.66 
		35.87,24.8 35.31,24.8 35.31,28.66 31.45,28.66 	"/>
	<polygon class="st0" points="31.45,29.2 31.45,29.44 35.06,29.44 35.06,33.34 35.87,33.34 36.12,33.34 36.12,29.44 39.99,29.44 
		39.99,28.66 39.99,28.41 36.12,28.41 36.12,24.55 35.31,24.55 35.06,24.55 35.06,28.41 31.2,28.41 31.2,29.2 31.2,29.44 
		31.45,29.44 31.45,29.2 31.7,29.2 31.7,28.91 35.56,28.91 35.56,25.05 35.62,25.05 35.62,28.91 39.49,28.91 39.49,28.95 
		35.62,28.95 35.62,32.84 35.56,32.84 35.56,28.95 31.45,28.95 31.45,29.2 31.7,29.2 	"/>
</g>
</svg>
