<?xml version="1.0" encoding="utf-8"?>
<!-- Generator: Adobe Illustrator 25.0.0, SVG Export Plug-In . SVG Version: 6.00 Build 0)  -->
<svg version="1.1" id="Layer_1" xmlns="http://www.w3.org/2000/svg" xmlns:xlink="http://www.w3.org/1999/xlink" x="0px" y="0px"
	 viewBox="0 0 70.87 70.87" style="enable-background:new 0 0 70.87 70.87;" xml:space="preserve">
<style type="text/css">
	.st0{fill:#231F20;}
</style>
<g>
	<path class="st0" d="M36.29,30.54l-4.9,4.9l4.9,4.9l4.9-4.9L36.29,30.54z M32.33,35.44l3.96-3.96l3.96,3.96l-3.96,3.96L32.33,35.44
		z"/>
	<path class="st0" d="M36.29,30.54l-0.18-0.18l-5.07,5.07l5.25,5.25l5.25-5.25l-5.25-5.25l-0.18,0.18L36.29,30.54l-0.18,0.18
		l4.72,4.72l-4.54,4.54l-4.54-4.54l4.72-4.72L36.29,30.54l-0.18,0.18L36.29,30.54z M32.33,35.44l0.18,0.18l3.78-3.78l3.61,3.6
		l-3.6,3.61l-3.78-3.78L32.33,35.44l0.18,0.18L32.33,35.44l-0.18,0.18l4.14,4.14l4.31-4.31l-4.31-4.31l-4.31,4.31l0.18,0.18
		L32.33,35.44z"/>
</g>
</svg>
