<?xml version="1.0" encoding="utf-8"?>
<!-- Generator: Adobe Illustrator 25.0.0, SVG Export Plug-In . SVG Version: 6.00 Build 0)  -->
<svg version="1.1" id="Layer_1" xmlns="http://www.w3.org/2000/svg" xmlns:xlink="http://www.w3.org/1999/xlink" x="0px" y="0px"
	 viewBox="0 0 70.87 70.87" style="enable-background:new 0 0 70.87 70.87;" xml:space="preserve">
<style type="text/css">
	.st0{fill:#231F20;}
</style>
<g>
	<path class="st0" d="M29.67,36.88c0.06,0.44,0.22,0.83,0.49,1.16c0.27,0.34,0.62,0.6,1.06,0.8c0.44,0.2,0.96,0.29,1.55,0.29
		c0.58,0,1.16-0.09,1.75-0.27c0.59-0.18,1.13-0.43,1.64-0.76s0.95-0.71,1.34-1.15c0.39-0.44,0.68-0.91,0.87-1.41
		s0.25-0.98,0.18-1.41s-0.23-0.82-0.49-1.15c-0.26-0.33-0.62-0.59-1.06-0.78c-0.45-0.2-0.97-0.29-1.57-0.29
		c-0.6,0-1.19,0.09-1.76,0.27c-0.58,0.18-1.12,0.43-1.62,0.76c-0.5,0.33-0.95,0.71-1.33,1.13c-0.38,0.43-0.67,0.9-0.85,1.4
		C29.68,35.97,29.61,36.44,29.67,36.88z"/>
</g>
</svg>
