<?xml version="1.0" encoding="utf-8"?>
<!-- Generator: Adobe Illustrator 25.2.0, SVG Export Plug-In . SVG Version: 6.00 Build 0)  -->
<svg version="1.1" id="Layer_1" xmlns="http://www.w3.org/2000/svg" xmlns:xlink="http://www.w3.org/1999/xlink" x="0px" y="0px"
	 viewBox="0 0 70.9 70.9" style="enable-background:new 0 0 70.9 70.9;" xml:space="preserve">
<style type="text/css">
	.st0{fill:#231F20;}
</style>
<path class="st0" d="M30.5,42.5c0.1,0.4,0.2,0.8,0.5,1.2c0.3,0.3,0.6,0.6,1.1,0.8s1,0.3,1.5,0.3c0.6,0,1.2-0.1,1.8-0.3
	s1.1-0.4,1.6-0.8s1-0.7,1.3-1.2c0.4-0.4,0.7-0.9,0.9-1.4s0.2-1,0.2-1.4s-0.2-0.8-0.5-1.2c-0.3-0.3-0.6-0.6-1.1-0.8
	c-0.5-0.2-1-0.3-1.6-0.3s-1.2,0.1-1.8,0.3c-0.6,0.2-1.1,0.4-1.6,0.8c-0.5,0.3-1,0.7-1.3,1.1c-0.4,0.4-0.7,0.9-0.9,1.4
	C30.5,41.6,30.4,42.1,30.5,42.5z"/>
<path class="st0" d="M30.4,35.1l11.1-4.3l-11.1-4.3v1.1l8.4,3.1L30.4,34C30.4,34,30.4,35.1,30.4,35.1z"/>
</svg>
