<?xml version="1.0" encoding="utf-8"?>
<!-- Generator: Adobe Illustrator 25.0.0, SVG Export Plug-In . SVG Version: 6.00 Build 0)  -->
<svg version="1.1" id="Layer_1" xmlns="http://www.w3.org/2000/svg" xmlns:xlink="http://www.w3.org/1999/xlink" x="0px" y="0px"
	 viewBox="0 0 70.87 70.87" style="enable-background:new 0 0 70.87 70.87;" xml:space="preserve">
<style type="text/css">
	.st0{fill:#231F20;}
</style>
<g>
	<path class="st0" d="M29.66,45.24c0.06,0.44,0.22,0.83,0.49,1.16c0.27,0.34,0.62,0.6,1.06,0.8c0.44,0.2,0.96,0.29,1.55,0.29
		c0.58,0,1.16-0.09,1.75-0.27c0.59-0.18,1.13-0.43,1.64-0.76s0.95-0.71,1.34-1.15c0.39-0.44,0.68-0.91,0.87-1.41
		s0.25-0.98,0.18-1.41s-0.23-0.82-0.49-1.15c-0.26-0.33-0.62-0.59-1.06-0.78c-0.45-0.2-0.97-0.29-1.57-0.29
		c-0.6,0-1.19,0.09-1.76,0.27c-0.58,0.18-1.12,0.43-1.62,0.76c-0.5,0.33-0.95,0.71-1.33,1.13c-0.38,0.43-0.67,0.9-0.85,1.4
		C29.67,44.33,29.6,44.8,29.66,45.24z"/>
	<path class="st0" d="M40.97,29.09c0.05,0.35,0.02,0.71-0.07,1.08c-0.08,0.37-0.2,0.67-0.36,0.91c-0.16,0.24-0.35,0.46-0.58,0.67
		c-0.13,0.11-0.27,0.24-0.42,0.38s-0.3,0.28-0.43,0.4c-0.14,0.12-0.3,0.25-0.49,0.4v-2.06c0-0.37,0-0.78,0.01-1.24
		s0.09-0.84,0.25-1.14c0.13-0.24,0.27-0.41,0.43-0.5c0.16-0.1,0.32-0.14,0.48-0.14s0.31,0.03,0.44,0.1
		c0.14,0.06,0.24,0.14,0.32,0.24C40.79,28.43,40.93,28.74,40.97,29.09z M38.62,19.97H38v14.18c0.3-0.24,0.58-0.44,0.82-0.61
		c0.24-0.17,0.5-0.35,0.79-0.55c0.29-0.2,0.56-0.4,0.83-0.59c0.26-0.19,0.5-0.37,0.71-0.53c0.21-0.16,0.34-0.27,0.41-0.34
		c0.19-0.19,0.41-0.39,0.65-0.6c0.24-0.21,0.42-0.45,0.53-0.72c0.1-0.21,0.18-0.44,0.24-0.68c0.06-0.25,0.09-0.5,0.07-0.76
		c0-0.24-0.05-0.49-0.14-0.74c-0.1-0.26-0.23-0.49-0.41-0.7c-0.18-0.21-0.38-0.38-0.62-0.5c-0.24-0.13-0.51-0.19-0.82-0.19
		c-0.26,0-0.48,0.02-0.68,0.05c-0.2,0.03-0.39,0.08-0.56,0.16c-0.18,0.07-0.36,0.17-0.55,0.3s-0.4,0.3-0.62,0.5v-1.54v-4.25V19.97z
		 M30.81,29.8c0.07,0.41,0.09,0.82,0.06,1.22c-0.03,0.41-0.14,0.77-0.32,1.08c-0.18,0.31-0.48,0.48-0.88,0.49
		c-0.13-0.03-0.23-0.1-0.3-0.22c-0.07-0.11-0.11-0.22-0.11-0.31c0-0.13,0.05-0.34,0.16-0.62c0.1-0.29,0.23-0.6,0.37-0.92
		c0.14-0.33,0.29-0.65,0.43-0.96c0.14-0.31,0.26-0.55,0.34-0.71C30.65,29.07,30.74,29.39,30.81,29.8z M28.95,28.9
		c-0.24,0.19-0.47,0.31-0.7,0.35c-0.22,0.04-0.42,0.03-0.6-0.02c-0.18-0.06-0.32-0.14-0.43-0.26c-0.11-0.12-0.18-0.23-0.22-0.32
		c-0.05-0.16-0.06-0.34-0.04-0.54c0.02-0.2,0.09-0.39,0.2-0.56c0.11-0.18,0.27-0.32,0.47-0.44s0.44-0.19,0.71-0.2
		c0.4-0.02,0.69,0.07,0.88,0.26c0.18,0.19,0.28,0.37,0.28,0.53L28.95,28.9z M38.07,27.64c-0.06-0.26-0.13-0.44-0.19-0.52
		c-0.19-0.24-0.42-0.38-0.7-0.42c-0.27-0.04-0.54-0.02-0.8,0.06c-0.26,0.08-0.52,0.2-0.76,0.35c-0.24,0.15-0.43,0.29-0.58,0.42
		c-0.22-0.58-0.59-0.9-1.09-0.97c-0.5-0.07-1.04,0.01-1.62,0.25c-0.22,0.1-0.44,0.22-0.64,0.36s-0.41,0.27-0.64,0.38
		c0.22-0.56,0.45-1.12,0.68-1.69c0.23-0.57,0.46-1.13,0.68-1.69c-0.11,0.02-0.25,0.02-0.42,0.02s-0.34,0-0.52,0
		c-0.19,0-0.39-0.01-0.6-0.02c-0.13,0.34-0.25,0.66-0.36,0.98c-0.11,0.27-0.22,0.56-0.34,0.85c-0.11,0.3-0.21,0.56-0.29,0.78
		c-0.08-0.05-0.2-0.11-0.37-0.19c-0.17-0.08-0.37-0.14-0.61-0.19s-0.51-0.06-0.8-0.02s-0.6,0.13-0.9,0.29
		c-0.13,0.08-0.26,0.2-0.38,0.35c-0.13,0.15-0.23,0.34-0.3,0.55c-0.07,0.22-0.1,0.45-0.08,0.71c0.02,0.26,0.1,0.51,0.24,0.77
		c0.14,0.26,0.37,0.45,0.68,0.59c0.31,0.14,0.71,0.14,1.19,0.01c-0.05,0.11-0.11,0.26-0.18,0.43c-0.07,0.18-0.14,0.36-0.19,0.55
		c-0.06,0.19-0.1,0.39-0.14,0.6c-0.04,0.21-0.06,0.39-0.06,0.55c0,0.42,0.13,0.79,0.38,1.12c0.25,0.33,0.61,0.49,1.06,0.49
		c0.43,0,0.78-0.12,1.03-0.36c0.26-0.24,0.47-0.54,0.65-0.91c0.14-0.32,0.24-0.73,0.29-1.24s0.02-1-0.07-1.48
		c-0.03-0.18-0.08-0.38-0.14-0.6c-0.06-0.22-0.13-0.42-0.19-0.6c0.1-0.05,0.26-0.15,0.5-0.31c0.24-0.16,0.5-0.3,0.77-0.42
		c0.27-0.12,0.53-0.19,0.78-0.22c0.25-0.02,0.44,0.07,0.56,0.28c0.13,0.22,0.01,0.8-0.36,1.73c-0.18,0.42-0.37,0.86-0.59,1.32
		c-0.22,0.46-0.42,0.9-0.61,1.32c-0.22,0.48-0.45,0.95-0.67,1.42h1.7c0.27-0.61,0.53-1.18,0.77-1.7c0.21-0.45,0.41-0.89,0.61-1.32
		c0.2-0.43,0.34-0.74,0.42-0.91c0.08-0.16,0.16-0.33,0.24-0.52c0.08-0.18,0.17-0.36,0.26-0.54c0.1-0.18,0.2-0.34,0.32-0.48
		c0.12-0.14,0.26-0.24,0.42-0.29c0.13-0.05,0.2-0.02,0.23,0.07c0.02,0.1,0.03,0.22,0.02,0.36c-0.01,0.14-0.02,0.3-0.02,0.46
		c-0.01,0.16,0.02,0.29,0.08,0.38c0.05,0.08,0.14,0.14,0.26,0.19c0.13,0.05,0.27,0.07,0.42,0.06c0.15-0.01,0.3-0.05,0.44-0.13
		c0.14-0.08,0.26-0.22,0.36-0.41C38.09,28.2,38.13,27.9,38.07,27.64z"/>
</g>
</svg>
