<?xml version="1.0" encoding="utf-8"?>
<!-- Generator: Adobe Illustrator 25.0.0, SVG Export Plug-In . SVG Version: 6.00 Build 0)  -->
<svg version="1.1" id="Layer_1" xmlns="http://www.w3.org/2000/svg" xmlns:xlink="http://www.w3.org/1999/xlink" x="0px" y="0px"
	 viewBox="0 0 70.87 70.87" style="enable-background:new 0 0 70.87 70.87;" xml:space="preserve">
<style type="text/css">
	.st0{fill:#231F20;}
</style>
<path class="st0" d="M31.05,36.69c0.04,0.33,0.16,0.62,0.37,0.87c0.2,0.25,0.47,0.45,0.8,0.6c0.33,0.15,0.72,0.22,1.17,0.22
	c0.43,0,0.87-0.07,1.31-0.2c0.44-0.13,0.85-0.32,1.23-0.57c0.38-0.25,0.71-0.53,1.01-0.86c0.29-0.33,0.51-0.68,0.65-1.06
	s0.19-0.73,0.14-1.06c-0.05-0.33-0.17-0.62-0.37-0.86c-0.2-0.25-0.46-0.44-0.8-0.59c-0.34-0.15-0.73-0.22-1.18-0.22
	s-0.89,0.07-1.32,0.2c-0.43,0.13-0.84,0.32-1.22,0.57s-0.71,0.53-1,0.85s-0.5,0.67-0.64,1.05S31.01,36.36,31.05,36.69z"/>
<path class="st0" d="M40.45,33.1c-0.35-0.8-0.83-1.5-1.44-2.09c-0.61-0.59-1.32-1.06-2.14-1.39c-0.82-0.34-1.67-0.5-2.57-0.5
	c-0.9,0-1.74,0.17-2.54,0.5c-0.8,0.34-1.5,0.8-2.09,1.39c-0.59,0.59-1.06,1.29-1.39,2.09c-0.34,0.8-0.5,1.65-0.5,2.54
	c0,0.93,0.17,1.78,0.5,2.57c0.34,0.78,0.8,1.48,1.39,2.09c0.59,0.61,1.29,1.08,2.09,1.42c0.8,0.34,1.65,0.5,2.54,0.5
	c0.9,0,1.75-0.17,2.57-0.5c0.82-0.34,1.53-0.81,2.14-1.42c0.61-0.61,1.09-1.3,1.44-2.09c0.35-0.78,0.53-1.64,0.53-2.57
	C40.98,34.75,40.81,33.9,40.45,33.1z M39.25,37.71c-0.29,0.64-0.67,1.2-1.15,1.68s-1.05,0.86-1.7,1.15
	c-0.66,0.29-1.35,0.43-2.09,0.43c-0.74,0-1.42-0.14-2.06-0.43c-0.64-0.29-1.2-0.67-1.68-1.15c-0.48-0.48-0.86-1.04-1.13-1.68
	c-0.27-0.64-0.41-1.33-0.41-2.06s0.14-1.42,0.41-2.06c0.27-0.64,0.65-1.2,1.13-1.68c0.48-0.48,1.04-0.86,1.68-1.15
	c0.64-0.29,1.33-0.43,2.06-0.43c0.74,0,1.43,0.14,2.09,0.43c0.66,0.29,1.22,0.67,1.7,1.15s0.86,1.04,1.15,1.68
	c0.29,0.64,0.43,1.33,0.43,2.06S39.54,37.07,39.25,37.71z"/>
</svg>
