<?xml version="1.0" encoding="utf-8"?>
<!-- Generator: Adobe Illustrator 25.0.0, SVG Export Plug-In . SVG Version: 6.00 Build 0)  -->
<svg version="1.1" id="Layer_1" xmlns="http://www.w3.org/2000/svg" xmlns:xlink="http://www.w3.org/1999/xlink" x="0px" y="0px"
	 viewBox="0 0 70.9 70.9" style="enable-background:new 0 0 70.9 70.9;" xml:space="preserve">
<style type="text/css">
	.st0{fill:#231F20;}
</style>
<path class="st0" d="M37.7,25.5c0-0.3-0.2-0.6-0.4-0.9c-0.2-0.2-0.5-0.5-0.8-0.6c-0.3-0.2-0.7-0.2-1.2-0.2c-0.4,0-0.9,0.1-1.3,0.2
	c-0.4,0.1-0.8,0.3-1.2,0.6s-0.7,0.5-1,0.9c-0.3,0.3-0.5,0.7-0.7,1.1s-0.2,0.7-0.1,1.1s0.2,0.6,0.4,0.9c0.2,0.2,0.5,0.4,0.8,0.6
	s0.7,0.2,1.2,0.2s0.9-0.1,1.3-0.2s0.8-0.3,1.2-0.6s0.7-0.5,1-0.8s0.5-0.7,0.6-1S37.8,25.8,37.7,25.5z"/>
<path class="st0" d="M28.3,39.2c0.3,0.8,0.8,1.5,1.4,2.1c0.6,0.6,1.3,1.1,2.1,1.4c0.8,0.3,1.7,0.5,2.6,0.5s1.7-0.2,2.5-0.5
	c0.8-0.3,1.5-0.8,2.1-1.4s1.1-1.3,1.4-2.1c0.3-0.8,0.5-1.6,0.5-2.5c0-0.9-0.2-1.8-0.5-2.6c-0.3-0.8-0.8-1.5-1.4-2.1
	s-1.3-1.1-2.1-1.4c-0.8-0.3-1.7-0.5-2.5-0.5c-0.9,0-1.8,0.2-2.6,0.5c-0.8,0.3-1.5,0.8-2.1,1.4c-0.6,0.6-1.1,1.3-1.4,2.1
	c-0.3,0.8-0.5,1.6-0.5,2.6C27.8,37.6,28,38.4,28.3,39.2z M29.5,34.6c0.3-0.6,0.7-1.2,1.2-1.7s1-0.9,1.7-1.2c0.7-0.3,1.3-0.4,2.1-0.4
	s1.4,0.1,2.1,0.4c0.6,0.3,1.2,0.7,1.7,1.2c0.5,0.5,0.9,1,1.1,1.7c0.3,0.6,0.4,1.3,0.4,2.1s-0.1,1.4-0.4,2.1
	c-0.3,0.6-0.7,1.2-1.1,1.7s-1,0.9-1.7,1.2S35.2,42,34.5,42c-0.7,0-1.4-0.1-2.1-0.4s-1.2-0.7-1.7-1.2s-0.9-1-1.2-1.7
	s-0.4-1.3-0.4-2.1S29.2,35.2,29.5,34.6z"/>
</svg>
