<?xml version="1.0" encoding="utf-8"?>
<!-- Generator: Adobe Illustrator 25.2.0, SVG Export Plug-In . SVG Version: 6.00 Build 0)  -->
<svg version="1.1" id="Layer_1" xmlns="http://www.w3.org/2000/svg" xmlns:xlink="http://www.w3.org/1999/xlink" x="0px" y="0px"
	 viewBox="0 0 70.9 70.9" style="enable-background:new 0 0 70.9 70.9;" xml:space="preserve">
<g>
	<path d="M22.2,58.8c0.2-0.3,0.4-0.5,0.6-0.6s0.5-0.3,0.8-0.4s0.6-0.1,0.9-0.1c0.2,0,0.4,0,0.7,0.1s0.5,0.1,0.7,0.2
		c0.2,0.1,0.4,0.2,0.5,0.4s0.2,0.4,0.2,0.7c0,0.2,0,0.3,0,0.5c0,0.2-0.1,0.4-0.1,0.6c0,0.2-0.1,0.4-0.1,0.6s-0.1,0.3-0.1,0.5
		c-0.1,0.3-0.1,0.6-0.2,0.9c-0.1,0.2-0.1,0.4-0.1,0.6c0,0.2-0.1,0.3-0.1,0.4c0,0.1,0,0.2,0,0.3c0,0.1,0,0.2,0.1,0.2
		c0.1,0,0.2,0,0.3,0c0.1,0,0.1,0,0.2,0c0,0,0.1,0,0.1,0L26.4,64c-0.2,0-0.4,0.1-0.6,0.1c-0.4,0-0.6-0.2-0.7-0.7c0-0.1,0-0.1,0-0.2
		c0-0.1,0-0.1,0-0.2l0,0c-0.2,0.4-0.5,0.6-0.9,0.8s-0.8,0.3-1.2,0.3c-0.3,0-0.6,0-0.8-0.1c-0.2-0.1-0.4-0.2-0.6-0.3
		c-0.2-0.1-0.3-0.3-0.4-0.5c-0.1-0.2-0.2-0.5-0.2-0.8c0-0.3,0.1-0.6,0.2-0.8c0.1-0.2,0.3-0.4,0.5-0.6c0.2-0.1,0.4-0.3,0.7-0.3
		s0.5-0.2,0.8-0.2c0.4-0.1,0.8-0.1,1.1-0.1s0.6,0,0.9-0.1c0.2-0.1,0.4-0.2,0.6-0.3s0.2-0.5,0.2-0.9c0-0.2,0-0.3-0.1-0.5
		s-0.2-0.2-0.3-0.3c-0.1-0.1-0.3-0.1-0.4-0.1c-0.2,0-0.3,0-0.5,0c-0.2,0-0.5,0-0.7,0.1c-0.2,0-0.4,0.1-0.6,0.2
		c-0.2,0.1-0.3,0.3-0.4,0.4c-0.1,0.2-0.2,0.4-0.2,0.7h-0.8C21.9,59.3,22,59,22.2,58.8z M25.6,60.7c-0.1,0.1-0.2,0.1-0.3,0.2
		c-0.1,0-0.2,0.1-0.4,0.1c-0.1,0-0.3,0-0.4,0s-0.2,0-0.3,0c-0.2,0-0.5,0-0.8,0.1c-0.3,0-0.5,0.1-0.8,0.2s-0.5,0.2-0.6,0.4
		s-0.3,0.4-0.3,0.8c0,0.2,0,0.4,0.1,0.5c0.1,0.1,0.2,0.3,0.3,0.3s0.3,0.2,0.4,0.2s0.3,0.1,0.5,0.1c0.6,0,1.1-0.2,1.5-0.5
		s0.6-0.8,0.7-1.3L25.6,60.7L25.6,60.7z"/>
	<path d="M32.4,59.1c-0.1-0.2-0.2-0.3-0.3-0.5c-0.1-0.1-0.3-0.2-0.5-0.3c-0.2-0.1-0.4-0.1-0.6-0.1c-0.5,0-0.9,0.1-1.2,0.3
		c-0.3,0.2-0.6,0.5-0.8,0.8c-0.2,0.3-0.4,0.7-0.5,1.1c-0.1,0.4-0.2,0.8-0.2,1.2c0,0.3,0,0.5,0.1,0.8c0.1,0.2,0.2,0.4,0.3,0.6
		c0.1,0.2,0.3,0.3,0.5,0.4c0.2,0.1,0.5,0.1,0.8,0.1c0.5,0,0.9-0.1,1.3-0.4c0.3-0.3,0.6-0.7,0.8-1.1h0.8c-0.2,0.7-0.6,1.3-1.1,1.6
		c-0.5,0.4-1.1,0.5-1.8,0.5c-0.8,0-1.4-0.2-1.8-0.7c-0.4-0.5-0.6-1.1-0.6-1.8c0-0.5,0.1-1,0.2-1.4c0.2-0.5,0.4-0.9,0.7-1.3
		s0.6-0.7,1.1-0.9c0.4-0.2,0.9-0.4,1.4-0.4c0.3,0,0.6,0,0.9,0.1s0.5,0.2,0.7,0.4c0.2,0.2,0.4,0.4,0.5,0.7c0.1,0.3,0.2,0.6,0.2,0.9
		h-0.8C32.5,59.5,32.4,59.3,32.4,59.1z"/>
	<path d="M38.6,59.1c-0.1-0.2-0.2-0.3-0.3-0.5s-0.3-0.2-0.5-0.3c-0.2-0.1-0.4-0.1-0.6-0.1c-0.5,0-0.9,0.1-1.2,0.3
		c-0.3,0.2-0.6,0.5-0.8,0.8c-0.2,0.3-0.4,0.7-0.5,1.1c-0.1,0.4-0.2,0.8-0.2,1.2c0,0.3,0,0.5,0.1,0.8c0.1,0.2,0.2,0.4,0.3,0.6
		c0.1,0.2,0.3,0.3,0.5,0.4c0.2,0.1,0.5,0.1,0.8,0.1c0.5,0,0.9-0.1,1.3-0.4c0.3-0.3,0.6-0.7,0.8-1.1H39c-0.2,0.7-0.6,1.3-1.1,1.6
		c-0.5,0.4-1.1,0.5-1.8,0.5c-0.8,0-1.4-0.2-1.8-0.7c-0.4-0.5-0.6-1.1-0.6-1.8c0-0.5,0.1-1,0.2-1.4c0.2-0.5,0.4-0.9,0.7-1.3
		s0.6-0.7,1.1-0.9c0.4-0.2,0.9-0.4,1.4-0.4c0.3,0,0.6,0,0.9,0.1s0.5,0.2,0.7,0.4c0.2,0.2,0.4,0.4,0.5,0.7c0.1,0.3,0.2,0.6,0.2,0.9
		h-0.8C38.7,59.5,38.7,59.3,38.6,59.1z"/>
	<path d="M40.7,61.6c0,0.3,0,0.5,0.1,0.8c0.1,0.2,0.2,0.4,0.3,0.6c0.1,0.2,0.3,0.3,0.6,0.4c0.2,0.1,0.5,0.2,0.8,0.2
		c0.5,0,0.9-0.1,1.3-0.4c0.4-0.3,0.6-0.7,0.7-1.1h0.8c-0.2,0.7-0.5,1.2-1,1.6s-1.1,0.6-1.8,0.6c-0.8,0-1.5-0.2-1.9-0.7
		C40.2,63,40,62.4,40,61.6c0-0.5,0.1-1,0.2-1.4c0.1-0.5,0.4-0.9,0.7-1.3c0.3-0.4,0.6-0.7,1.1-0.9c0.4-0.2,0.9-0.3,1.4-0.3
		c0.4,0,0.7,0.1,1,0.2c0.3,0.1,0.5,0.3,0.7,0.5s0.4,0.5,0.5,0.8c0.1,0.3,0.2,0.6,0.2,1c0,0.2,0,0.4,0,0.5s0,0.4,0,0.5h-4.8
		C40.8,61.3,40.7,61.4,40.7,61.6z M44.9,60.2c0-0.1,0-0.2,0-0.2c0-0.5-0.1-0.9-0.4-1.3c-0.3-0.3-0.7-0.5-1.2-0.5
		c-0.3,0-0.6,0.1-0.9,0.2s-0.5,0.3-0.7,0.5c-0.2,0.2-0.4,0.4-0.5,0.7c-0.1,0.3-0.2,0.5-0.3,0.8h4C44.9,60.4,44.9,60.3,44.9,60.2z"/>
	<path d="M48.5,55.5L46.7,64h-0.7l1.8-8.6H48.5z"/>
	<path d="M48.8,62.8h1L49.5,64h-1L48.8,62.8z"/>
</g>
</svg>
