<?xml version="1.0" encoding="utf-8"?>
<!-- Generator: Adobe Illustrator 25.0.0, SVG Export Plug-In . SVG Version: 6.00 Build 0)  -->
<svg version="1.1" id="Layer_1" xmlns="http://www.w3.org/2000/svg" xmlns:xlink="http://www.w3.org/1999/xlink" x="0px" y="0px"
	 viewBox="0 0 70.87 70.87" style="enable-background:new 0 0 70.87 70.87;" xml:space="preserve">
<style type="text/css">
	.st0{fill:#231F20;}
</style>
<g>
	<polyline points="19.91,60.64 58.05,64.89 58.16,63.9 20.02,59.65 	"/>
	<polyline points="20.02,60.3 58.16,56.3 58.05,55.31 19.91,59.31 	"/>
	<path class="st0" d="M15.5,62.59c-0.31-0.14-0.59-0.34-0.85-0.58c-0.25-0.24-0.45-0.52-0.59-0.85c-0.14-0.32-0.22-0.67-0.22-1.03
		c0-0.36,0.07-0.71,0.22-1.04c0.14-0.34,0.34-0.62,0.59-0.86s0.53-0.43,0.85-0.58c0.31-0.14,0.65-0.22,1.01-0.22
		c0.77,0,1.42,0.26,1.96,0.79c0.54,0.54,0.81,1.18,0.81,1.92c0,0.72-0.27,1.34-0.81,1.87c-0.54,0.53-1.19,0.79-1.96,0.79
		C16.15,62.81,15.81,62.74,15.5,62.59z M15.21,56.99c-0.41,0.18-0.77,0.42-1.08,0.72c-0.31,0.3-0.56,0.66-0.74,1.08
		c-0.18,0.42-0.27,0.87-0.27,1.35c0,0.46,0.09,0.89,0.27,1.31c0.18,0.42,0.43,0.79,0.74,1.1c0.31,0.31,0.67,0.56,1.08,0.74
		c0.41,0.18,0.84,0.27,1.3,0.27c0.48,0,0.93-0.09,1.35-0.27c0.42-0.18,0.78-0.43,1.08-0.74c0.3-0.31,0.54-0.68,0.72-1.1
		c0.18-0.42,0.27-0.86,0.27-1.31c0-0.96-0.33-1.77-0.99-2.43c-0.66-0.66-1.47-0.99-2.43-0.99C16.05,56.72,15.62,56.81,15.21,56.99z"
		/>
</g>
</svg>
