<?xml version="1.0" encoding="utf-8"?>
<!-- Generator: Adobe Illustrator 25.2.0, SVG Export Plug-In . SVG Version: 6.00 Build 0)  -->
<svg version="1.1" id="Layer_1" xmlns="http://www.w3.org/2000/svg" xmlns:xlink="http://www.w3.org/1999/xlink" x="0px" y="0px"
	 viewBox="0 0 70.9 70.9" style="enable-background:new 0 0 70.9 70.9;" xml:space="preserve">
<g>
	<path d="M22,56.9l-0.3,1.4h0c0.2-0.4,0.5-0.8,0.9-1.1c0.4-0.3,0.8-0.4,1.4-0.4h0.2c0,0,0.1,0,0.1,0c0,0,0.1,0,0.1,0l-0.2,0.8
		c-0.1,0-0.1,0-0.2,0c-0.1,0-0.1,0-0.2,0c-0.3,0-0.6,0.1-0.9,0.2c-0.3,0.1-0.5,0.3-0.7,0.5c-0.2,0.2-0.4,0.5-0.5,0.7
		c-0.1,0.3-0.2,0.6-0.3,0.8l-0.7,3.2H20l1.3-6.2H22z"/>
	<path d="M25,57.8c0.2-0.3,0.4-0.5,0.6-0.6s0.5-0.3,0.8-0.4s0.6-0.1,0.9-0.1c0.2,0,0.4,0,0.7,0.1s0.5,0.1,0.7,0.2
		c0.2,0.1,0.4,0.2,0.5,0.4s0.2,0.4,0.2,0.7c0,0.2,0,0.3,0,0.5c0,0.2-0.1,0.4-0.1,0.6c0,0.2-0.1,0.4-0.1,0.6s-0.1,0.3-0.1,0.5
		c-0.1,0.3-0.1,0.6-0.2,0.9c-0.1,0.2-0.1,0.4-0.1,0.6c0,0.2-0.1,0.3-0.1,0.4c0,0.1,0,0.2,0,0.3c0,0.1,0,0.2,0.1,0.2
		c0.1,0,0.2,0,0.3,0c0.1,0,0.1,0,0.2,0c0,0,0.1,0,0.1,0l-0.1,0.6c-0.2,0-0.4,0.1-0.6,0.1c-0.4,0-0.6-0.2-0.7-0.7c0-0.1,0-0.1,0-0.2
		c0-0.1,0-0.1,0-0.2l0,0c-0.2,0.4-0.5,0.6-0.9,0.8s-0.8,0.3-1.2,0.3c-0.3,0-0.6,0-0.8-0.1c-0.2-0.1-0.4-0.2-0.6-0.3
		c-0.2-0.1-0.3-0.3-0.4-0.5c-0.1-0.2-0.2-0.5-0.2-0.8c0-0.3,0.1-0.6,0.2-0.8c0.1-0.2,0.3-0.4,0.5-0.6c0.2-0.1,0.4-0.3,0.7-0.3
		s0.5-0.2,0.8-0.2c0.4-0.1,0.8-0.1,1.1-0.1s0.6,0,0.9-0.1c0.2-0.1,0.4-0.2,0.6-0.3s0.2-0.5,0.2-0.9c0-0.2,0-0.3-0.1-0.5
		s-0.2-0.2-0.3-0.3c-0.1-0.1-0.3-0.1-0.4-0.1c-0.2,0-0.3,0-0.5,0c-0.2,0-0.5,0-0.7,0.1c-0.2,0-0.4,0.1-0.6,0.2
		c-0.2,0.1-0.3,0.3-0.4,0.4c-0.1,0.2-0.2,0.4-0.2,0.7h-0.8C24.7,58.4,24.8,58.1,25,57.8z M28.4,59.7c-0.1,0.1-0.2,0.1-0.3,0.2
		C28,60,27.9,60,27.8,60c-0.1,0-0.3,0-0.4,0s-0.2,0-0.3,0c-0.2,0-0.5,0-0.8,0.1c-0.3,0-0.5,0.1-0.8,0.2s-0.5,0.2-0.6,0.4
		s-0.3,0.4-0.3,0.8c0,0.2,0,0.4,0.1,0.5c0.1,0.1,0.2,0.3,0.3,0.3s0.3,0.2,0.4,0.2s0.3,0.1,0.5,0.1c0.6,0,1.1-0.2,1.5-0.5
		s0.6-0.8,0.7-1.3L28.4,59.7L28.4,59.7z"/>
	<path d="M32.6,54.5l-1.8,8.6H30l1.8-8.6H32.6z"/>
	<path d="M34.8,54.5L33,63.1h-0.7l1.8-8.6H34.8z"/>
	<path d="M35.5,60.7c0,0.3,0,0.5,0.1,0.8c0.1,0.2,0.2,0.4,0.3,0.6c0.1,0.2,0.3,0.3,0.6,0.4c0.2,0.1,0.5,0.2,0.8,0.2
		c0.5,0,0.9-0.1,1.3-0.4c0.4-0.3,0.6-0.7,0.7-1.1h0.8c-0.2,0.7-0.5,1.2-1,1.6s-1.1,0.6-1.8,0.6c-0.8,0-1.5-0.2-1.9-0.7
		c-0.4-0.5-0.6-1.1-0.6-1.9c0-0.5,0.1-1,0.2-1.4c0.1-0.5,0.4-0.9,0.7-1.3c0.3-0.4,0.6-0.7,1.1-0.9c0.4-0.2,0.9-0.3,1.4-0.3
		c0.4,0,0.7,0.1,1,0.2c0.3,0.1,0.5,0.3,0.7,0.5s0.4,0.5,0.5,0.8c0.1,0.3,0.2,0.6,0.2,1c0,0.2,0,0.4,0,0.5s0,0.4,0,0.5h-4.8
		C35.5,60.3,35.5,60.5,35.5,60.7z M39.7,59.3c0-0.1,0-0.2,0-0.2c0-0.5-0.2-0.9-0.5-1.3c-0.3-0.3-0.7-0.5-1.2-0.5
		c-0.3,0-0.6,0.1-0.9,0.2c-0.3,0.1-0.5,0.3-0.7,0.5s-0.4,0.4-0.5,0.7c-0.1,0.3-0.2,0.5-0.3,0.8h4C39.7,59.5,39.7,59.4,39.7,59.3z"/>
	<path d="M42.7,56.9L42.5,58h0c0.2-0.4,0.5-0.7,0.9-0.9s0.8-0.4,1.3-0.4c0.3,0,0.5,0,0.8,0.1c0.2,0.1,0.4,0.2,0.6,0.3
		c0.2,0.1,0.3,0.3,0.4,0.5s0.1,0.5,0.1,0.8c0,0.2,0,0.4-0.1,0.7l-0.9,4h-0.8l0.9-4c0-0.1,0-0.2,0.1-0.3c0-0.1,0-0.2,0-0.3
		c0-0.2,0-0.4-0.1-0.5c-0.1-0.1-0.2-0.3-0.3-0.3c-0.1-0.1-0.3-0.2-0.4-0.2s-0.3-0.1-0.5-0.1c-0.3,0-0.5,0.1-0.8,0.2
		s-0.5,0.3-0.7,0.5c-0.2,0.2-0.4,0.5-0.6,0.8c-0.2,0.3-0.3,0.7-0.4,1.1l-0.7,3.2h-0.7l1.3-6.2H42.7z"/>
	<path d="M47.8,61.8h1l-0.3,1.3h-1L47.8,61.8z"/>
</g>
</svg>
