<?xml version="1.0" encoding="utf-8"?>
<!-- Generator: Adobe Illustrator 25.0.0, SVG Export Plug-In . SVG Version: 6.00 Build 0)  -->
<svg version="1.1" id="Layer_1" xmlns="http://www.w3.org/2000/svg" xmlns:xlink="http://www.w3.org/1999/xlink" x="0px" y="0px"
	 viewBox="0 0 70.9 70.9" style="enable-background:new 0 0 70.9 70.9;" xml:space="preserve">
<g>
	<path d="M67.6,65c0-0.7-0.3-1.4-0.7-2c-0.8-1.1-2.2-2-4-2.8c-5.5-2.5-15.3-4.1-26.5-4.1c-8.5,0-16.3,1-22,2.5
		c-2.8,0.8-5.1,1.7-6.8,2.7c-0.8,0.5-1.5,1.1-1.9,1.7c-0.5,0.6-0.7,1.3-0.7,2h1c0-0.4,0.2-0.9,0.5-1.4c0.6-0.8,1.9-1.7,3.7-2.5
		c5.3-2.4,15.1-4,26.2-4c8.5,0,16.1,0.9,21.6,2.5c2.8,0.8,5,1.6,6.5,2.6c0.7,0.5,1.3,1,1.7,1.5c0.4,0.5,0.5,0.9,0.5,1.4H67.6
		L67.6,65z"/>
</g>
</svg>
